<svg width="90" height="42" viewBox="0 0 90 42" fill="none" xmlns="http://www.w3.org/2000/svg">
<rect x="0.5" y="0.5" width="89" height="41" fill="white"/>
<rect x="0.5" y="0.5" width="89" height="41" stroke="#3E7742"/>
<g clip-path="url(#clip0_697_27092)">
<path d="M39.9794 23.6485C39.2494 25.3318 37.9824 26.2701 36.1645 26.477C35.9579 26.5046 35.7513 26.5046 35.5447 26.5184C35.5172 26.5184 35.4896 26.5184 35.4621 26.5184C34.8837 26.5184 34.3053 26.4494 33.7544 26.2839C33.052 26.0907 32.4323 25.7595 31.8538 25.318C31.7023 25.2076 31.5508 25.0972 31.3856 25.0145C31.2203 24.9179 31.1239 24.9593 31.0275 25.111C30.9586 25.2214 30.8898 25.3318 30.8209 25.4284C30.7658 25.4974 30.697 25.594 30.6281 25.6216C30.5317 25.663 30.394 25.6768 30.3251 25.6354C30.2563 25.594 30.2012 25.4422 30.2012 25.3594C30.3251 23.8968 30.4766 22.4481 30.6143 20.9855C30.6419 20.7509 30.6419 20.7509 30.876 20.7647C31.2754 20.7785 31.2754 20.7785 31.2892 21.1649C31.3443 22.4343 31.7987 23.5381 32.6801 24.4488C33.7957 25.594 35.6411 25.9113 37.0872 25.2214C38.0513 24.7661 38.6021 23.9934 38.7123 22.9172C38.8225 21.8824 38.6297 20.9027 37.9273 20.0886C37.5279 19.6195 37.0046 19.3022 36.4675 19.0262C36.013 18.7916 35.531 18.6123 35.0352 18.4191C33.9472 18.019 32.8867 17.5774 31.9778 16.8324C31.0688 16.1149 30.6281 15.1628 30.4491 14.059C30.3389 13.3139 30.2838 12.5688 30.5592 11.8514C31.179 10.1818 32.2808 9.0504 34.1124 8.74684C35.3106 8.55367 36.4675 8.69165 37.6106 9.07799C37.7758 9.13318 37.9273 9.20217 38.0788 9.28496C38.2854 9.38154 38.368 9.36774 38.5333 9.21597C38.671 9.09179 38.8225 8.95381 38.9878 8.85723C39.153 8.74685 39.2632 8.80204 39.2908 8.99521C39.3321 9.22977 39.3183 9.47813 39.3458 9.71269C39.4285 10.5958 39.5111 11.4788 39.6075 12.3619C39.6351 12.5826 39.6488 12.8034 39.6626 13.0242C39.6764 13.1759 39.6213 13.2587 39.4698 13.2863C39.1255 13.3553 39.1668 13.3967 39.0566 13.038C38.7399 12.0031 38.2028 11.0925 37.404 10.3474C36.7842 9.78168 36.0405 9.54712 35.2142 9.53332C34.6358 9.51952 34.0711 9.57471 33.5478 9.85067C32.749 10.2646 32.3221 10.9683 32.1843 11.8238C32.0329 12.762 32.1568 13.6451 32.8179 14.3764C33.1897 14.7903 33.6717 15.0524 34.1538 15.3008C34.925 15.7009 35.7789 15.9217 36.5914 16.2115C37.1698 16.4184 37.7483 16.6392 38.2854 16.9427C39.6626 17.7154 40.365 18.9434 40.4889 20.5026C40.5302 21.5788 40.4063 22.6412 39.9794 23.6485Z" fill="black"/>
<path d="M68.5976 16.2272V16.5722C68.5976 16.8205 68.5701 16.8481 68.3222 16.8481C68.1844 16.8481 68.0605 16.8481 67.9228 16.8481C67.4821 16.8481 67.1515 17.0275 66.9725 17.4414C66.6007 18.3383 66.215 19.2214 65.857 20.132C65.0444 22.1327 64.2456 24.1472 63.4468 26.1479C63.3918 26.2583 63.3091 26.3963 63.1989 26.4514C62.9786 26.5618 62.7858 26.5066 62.6618 26.2859C62.5517 26.0651 62.469 25.8167 62.3864 25.5822C61.6702 23.4849 60.9541 21.3738 60.2379 19.2628C60.2242 19.2214 60.1691 19.18 60.1415 19.1386C60.1002 19.18 60.0589 19.2214 60.0314 19.2628C59.0949 21.4704 58.1584 23.6781 57.2356 25.8857C57.1943 25.9823 57.153 26.0927 57.0979 26.1893C57.0015 26.3825 56.85 26.5066 56.6297 26.4928C56.4231 26.479 56.3404 26.2997 56.2854 26.1341C56.1201 25.7064 55.9686 25.2648 55.8033 24.8371C54.8944 22.3673 53.9854 19.8975 53.0765 17.4276C52.925 17.0413 52.6495 16.8481 52.1813 16.8343C51.9885 16.8343 51.7819 16.8343 51.5891 16.8343C51.4514 16.8343 51.3825 16.7791 51.3963 16.6274C51.41 16.4618 51.41 16.31 51.3963 16.1444C51.3825 15.9927 51.4513 15.9375 51.6028 15.9513C52.0986 15.9789 52.5944 16.0203 53.0902 16.0065C53.9303 16.0065 54.7842 15.9651 55.6243 15.9513C55.886 15.9513 55.9273 15.9789 55.9273 16.2272C55.9273 16.3652 55.9273 16.5032 55.9273 16.6412C55.9273 16.7653 55.8722 16.8067 55.762 16.8205C55.6932 16.8205 55.6243 16.8205 55.5417 16.8205C55.2938 16.8205 55.156 16.9723 55.1836 17.2207C55.1836 17.3034 55.2111 17.3862 55.2387 17.469C55.8584 19.5663 56.4644 21.6498 57.0841 23.7333C57.0979 23.7885 57.1392 23.8299 57.1668 23.8712C57.1943 23.8299 57.2494 23.7885 57.2632 23.7333C58.0482 21.843 58.8194 19.9665 59.6044 18.0762C59.7972 17.5932 59.4254 16.9861 58.9158 16.9723C58.7643 16.9585 58.6128 16.9585 58.4476 16.9723C58.3236 16.9723 58.2548 16.9171 58.2548 16.7791C58.2548 16.6412 58.2548 16.517 58.2548 16.379C58.2548 16.1168 58.3099 16.0616 58.5853 16.0754C58.9709 16.0892 59.3565 16.1306 59.7422 16.1306C60.6098 16.1168 61.4774 16.103 62.3451 16.0754C62.6205 16.0754 62.6756 16.103 62.6756 16.3928C62.6756 16.517 62.6756 16.6412 62.6756 16.7791C62.6756 16.9033 62.6067 16.9723 62.4828 16.9723C62.3451 16.9723 62.2211 16.9861 62.0834 16.9723C61.7666 16.9447 61.6014 17.2483 61.6565 17.4828C61.7391 17.8002 61.8355 18.1176 61.9319 18.4349C62.4277 20.0631 62.9373 21.6774 63.4331 23.3055C63.4468 23.3607 63.4744 23.4297 63.5019 23.4849C63.5157 23.4849 63.5432 23.4849 63.557 23.4849C63.5846 23.4435 63.5983 23.3883 63.6259 23.3469C64.2456 21.636 64.8791 19.9113 65.4989 18.2003C65.5953 17.9381 65.6504 17.6484 65.6642 17.3586C65.6779 17.0137 65.4713 16.8343 65.127 16.8343C64.6175 16.8343 64.6863 16.8481 64.6863 16.3928C64.6863 15.9375 64.6863 15.9375 65.127 15.9651C66.2013 16.0478 67.2755 16.0341 68.3497 15.9651C68.5563 15.9651 68.5976 16.0065 68.5976 16.2272Z" fill="black"/>
<path d="M77.7966 24.5853C77.7691 24.5853 77.7415 24.6129 77.714 24.6267C77.6727 24.6681 77.6313 24.7233 77.59 24.7647C77.3284 25.0131 76.9978 25.1511 76.6535 25.0545C76.3368 24.9717 76.2266 24.6681 76.1853 24.3784C76.1302 24.0196 76.0889 23.6471 76.0889 23.2746C76.0751 21.5084 76.0889 19.7423 76.0751 17.9762C76.0751 17.6727 76.0475 17.3415 75.9511 17.0518C75.7032 16.3205 75.111 15.948 74.3811 15.8238C73.2794 15.6306 72.2189 15.8238 71.2273 16.3205C70.6076 16.6241 70.0429 16.9966 69.6022 17.5485C69.2855 17.9624 69.0376 18.4039 69.0513 18.942C69.0651 19.5078 69.2441 19.6733 69.8088 19.6457C69.8363 19.6457 69.8501 19.6457 69.8777 19.6457C70.4423 19.6043 70.7453 19.3284 70.8555 18.7765C70.9243 18.4177 70.883 18.0728 70.8279 17.7279C70.8004 17.4933 70.8692 17.3001 71.0345 17.1484C71.1309 17.0656 71.2411 16.9966 71.3513 16.9414C71.8608 16.7206 72.3842 16.5965 72.9351 16.6792C73.6925 16.7896 74.147 17.107 74.2572 17.9348C74.3536 18.5971 74.326 19.2594 74.3398 19.9355C74.3398 20.0597 74.3123 20.1287 74.2021 20.1838C73.6512 20.4736 73.1003 20.791 72.5494 21.0669C71.9435 21.3705 71.3237 21.6464 70.7177 21.9776C70.3046 22.1983 69.9465 22.5019 69.6848 22.902C69.134 23.7299 69.1202 24.6267 69.4369 25.5236C69.616 26.0203 70.0016 26.3377 70.5112 26.4067C71.0758 26.4756 71.6543 26.4618 72.2051 26.2549C73.059 25.9375 73.8716 25.5374 74.4913 24.8061C74.5051 24.8337 74.5189 24.8337 74.5189 24.8475C74.5326 24.8889 74.5464 24.9441 74.5602 24.9855C74.6979 25.427 74.8907 25.8409 75.2763 26.1307C76.144 26.7654 77.7002 26.4343 78.1685 25.0407C78.2373 24.9027 77.9619 24.5716 77.7966 24.5853ZM73.9817 24.4474C73.6099 24.8337 73.183 25.0959 72.6734 25.2338C71.8608 25.4408 71.186 24.9579 71.1447 24.13C71.1034 23.3987 71.3237 22.764 71.9022 22.2811C72.3291 21.9224 72.7973 21.6188 73.3069 21.3843C73.6512 21.2325 73.9817 21.0393 74.3398 20.8461V21.0255C74.3398 21.8672 74.326 22.695 74.3398 23.5367C74.3536 23.9093 74.2296 24.199 73.9817 24.4474Z" fill="black"/>
<path d="M50.9293 23.3163C50.7365 23.2197 50.6676 23.2335 50.5712 23.4129C49.8551 24.6547 48.3401 25.2894 46.9354 24.9169C45.8749 24.6409 45.2139 23.9234 44.7594 22.9714C44.3049 21.9917 44.2498 20.9431 44.3462 19.8807C44.36 19.7427 44.4013 19.7013 44.5528 19.7013C45.5168 19.7013 46.4809 19.7013 47.4449 19.7013C48.3814 19.7013 49.3317 19.7013 50.2682 19.7013C50.3922 19.7013 50.5161 19.6875 50.6263 19.6737C50.888 19.6323 50.9706 19.5219 50.9706 19.2598C50.9568 18.7492 50.8053 18.2801 50.5988 17.8248C50.1718 16.8727 49.5108 16.1552 48.4641 15.8931C47.4174 15.6309 46.3707 15.6999 45.3929 16.1139C44.181 16.6106 43.3822 17.5626 42.9139 18.763C42.3493 20.2118 42.3768 21.6882 42.79 23.1645C43.0654 24.158 43.6025 25.041 44.4702 25.6343C45.5857 26.407 46.8527 26.6002 48.1611 26.338C49.5934 26.0621 50.5023 25.0962 51.1221 23.8406C51.2598 23.5233 51.2323 23.4819 50.9293 23.3163ZM45.6133 16.9693C46.233 16.5002 46.9216 16.3346 47.6653 16.6244C48.23 16.8313 48.5329 17.3005 48.6982 17.8524C48.7671 18.0869 48.7808 18.3353 48.8084 18.5837C48.8359 18.7492 48.7533 18.8596 48.6018 18.901C48.4779 18.9286 48.3539 18.97 48.23 18.97C47.018 18.97 45.8061 18.97 44.5941 18.97C44.5528 18.97 44.5253 18.97 44.4564 18.9562C44.6905 18.1835 44.9522 17.466 45.6133 16.9693Z" fill="black"/>
<path d="M81.2407 17.385H81.0204C80.9928 16.9434 80.9791 16.5157 80.9515 16.0742C80.9378 16.0742 80.9378 16.0742 80.924 16.0742C80.7863 16.4605 80.6485 16.8468 80.5108 17.2332C80.4833 17.2884 80.4282 17.3712 80.3731 17.385C80.2492 17.4126 80.2629 17.3022 80.2354 17.2332C80.1114 16.8744 80.0013 16.5157 79.8773 16.157C79.8635 16.1294 79.8498 16.1156 79.836 16.0604C79.8084 16.5295 79.7809 16.9572 79.7671 17.3988H79.5605C79.6019 16.8468 79.6294 16.2949 79.6707 15.743C79.9462 15.6878 79.9462 15.6878 80.0288 15.9224C80.1528 16.2811 80.2767 16.6537 80.4006 17.0262C80.5384 16.6537 80.6623 16.2811 80.7863 15.9224C80.8689 15.6878 80.8689 15.6878 81.1443 15.7154C81.1719 16.2811 81.2132 16.833 81.2407 17.385Z" fill="#6D6E71"/>
<path d="M79.4229 15.9041H78.9271V17.3805H78.7067V15.9041H78.2109V15.7109H79.4229C79.4091 15.7799 79.4229 15.8351 79.4229 15.9041Z" fill="#6D6E71"/>
<path d="M69.6989 32.3975C69.6989 32.5079 69.6576 32.5493 69.5612 32.5355C69.5198 32.5355 69.4785 32.5355 69.451 32.5355C69.327 32.5493 69.2857 32.5079 69.2857 32.3837C69.2857 32.0112 69.2995 31.6387 69.2857 31.2799C69.2857 31.1005 69.2719 30.9074 69.2444 30.728C69.2169 30.5348 69.0929 30.4107 68.9001 30.3693C68.6935 30.3279 68.4732 30.3555 68.363 30.5486C68.2804 30.6866 68.2115 30.866 68.1977 31.0316C68.1702 31.4869 68.1839 31.9284 68.1977 32.3837C68.1977 32.5631 68.1013 32.5493 67.9911 32.5355C67.881 32.5355 67.7708 32.5631 67.7846 32.3837C67.7983 31.9698 67.7983 31.5697 67.7846 31.1557C67.7846 30.9902 67.7708 30.8108 67.7157 30.6452C67.6331 30.3969 67.4127 30.3003 67.096 30.3417C66.8481 30.3831 66.6828 30.5762 66.6828 30.8246C66.6828 31.3351 66.669 31.8318 66.6828 32.3423C66.6828 32.5493 66.5726 32.5079 66.4349 32.5217C66.2834 32.5355 66.2559 32.4803 66.2559 32.3286C66.2696 31.6387 66.2559 30.935 66.2559 30.2451C66.2559 30.0105 66.2559 30.0105 66.49 30.0243C66.5313 30.0243 66.5588 30.0243 66.6139 30.0381C66.6415 30.1347 66.6552 30.2175 66.6828 30.3417C66.8894 30.0933 67.1373 29.9691 67.4403 29.9829C67.757 29.9829 67.9774 30.1209 68.1151 30.4383C68.1702 30.3693 68.1977 30.3279 68.239 30.2865C68.5282 29.9277 69.0791 29.8725 69.4097 30.1623C69.63 30.3555 69.6851 30.6314 69.6989 30.9074C69.7127 31.4179 69.6989 31.9146 69.6989 32.3975Z" fill="#6D6E71"/>
<path d="M32.942 30.0508C32.8318 30.4372 32.7354 30.8097 32.6253 31.1685C32.5151 31.5686 32.3911 31.9825 32.281 32.3827C32.2534 32.4793 32.2259 32.5482 32.1019 32.5482C31.9917 32.5344 31.8816 32.562 31.8403 32.3965C31.675 31.8308 31.5097 31.265 31.3445 30.7131C31.3307 30.6855 31.3169 30.6579 31.2894 30.6027C31.2618 30.6579 31.2481 30.6993 31.2343 30.7269C31.069 31.2926 30.9038 31.8446 30.7385 32.4103C30.6972 32.5482 30.6145 32.5482 30.5044 32.562C30.3942 32.562 30.3253 32.5344 30.2978 32.4103C30.0912 31.679 29.8708 30.9477 29.6643 30.2026C29.6505 30.1612 29.6505 30.1198 29.6367 30.0784C29.6643 30.0784 29.678 30.0646 29.6918 30.0646C30.0361 30.037 30.0361 30.037 30.1187 30.382C30.2427 30.8925 30.3666 31.3892 30.4906 31.8997C30.4906 31.8997 30.5044 31.9135 30.5181 31.9273C30.5319 31.8997 30.5457 31.8859 30.5595 31.8583C30.7247 31.3064 30.89 30.7545 31.0552 30.2026C31.0966 30.0646 31.1792 30.0646 31.2894 30.0646C31.4133 30.0646 31.4684 30.0922 31.496 30.2164C31.6612 30.7821 31.8265 31.3616 31.9918 31.9273C31.9918 31.9411 32.0055 31.9687 32.0331 32.0239C32.0606 31.9135 32.0744 31.8446 32.1019 31.7618C32.2259 31.265 32.3498 30.7545 32.46 30.2578C32.4875 30.0922 32.5564 30.0508 32.7217 30.0646C32.7905 30.0508 32.8456 30.0508 32.942 30.0508Z" fill="#6D6E71"/>
<path d="M40.8602 30.0531C40.7638 30.3843 40.6812 30.7016 40.5847 31.0052C40.447 31.4743 40.3093 31.9296 40.1854 32.3987C40.1578 32.5091 40.1165 32.5643 39.9926 32.5505C39.8824 32.5367 39.786 32.5643 39.7447 32.4125C39.5794 31.8468 39.4141 31.2811 39.2351 30.7154C39.2213 30.6878 39.2075 30.6464 39.18 30.5912C39.0836 30.8948 39.0147 31.1845 38.9183 31.4605C38.8219 31.7778 38.7117 32.0814 38.6291 32.3987C38.5878 32.5505 38.5052 32.5367 38.395 32.5367C38.2848 32.5367 38.2297 32.5229 38.1884 32.3987C37.9818 31.6537 37.7615 30.9224 37.5549 30.1773C37.5411 30.1359 37.5411 30.1083 37.5273 30.0393C37.6513 30.0393 37.7615 30.0255 37.8716 30.0393C37.913 30.0393 37.9543 30.1221 37.9681 30.1635C38.1058 30.7154 38.2435 31.2673 38.3812 31.8192C38.3812 31.833 38.395 31.8606 38.395 31.8744C38.4088 31.8744 38.4225 31.8744 38.4363 31.8744C38.4914 31.6813 38.5465 31.5019 38.6016 31.3087C38.7118 30.9362 38.8357 30.5498 38.9459 30.1773C38.9872 30.0393 39.0423 30.0117 39.18 30.0117C39.3177 30.0117 39.3728 30.0669 39.4004 30.1911C39.5656 30.7706 39.7447 31.3501 39.9375 31.9296C39.9512 31.902 39.9788 31.8606 39.9926 31.833C40.1165 31.2949 40.2542 30.7706 40.3644 30.2325C40.4057 30.0669 40.4746 29.9841 40.6398 30.0255C40.7225 30.0531 40.7776 30.0531 40.8602 30.0531Z" fill="#6D6E71"/>
<path d="M54.7976 30.0522C54.7287 30.3005 54.6599 30.5213 54.6048 30.7421C54.4533 31.294 54.288 31.8459 54.1365 32.384C54.109 32.4944 54.0539 32.5496 53.9299 32.5358C53.8198 32.5358 53.7234 32.5358 53.682 32.384C53.5306 31.8183 53.3515 31.2664 53.1862 30.7145C53.1725 30.6731 53.1587 30.6455 53.1312 30.5765C53.1036 30.6455 53.0898 30.6731 53.0761 30.7145C52.9108 31.2802 52.7455 31.8459 52.5803 32.4116C52.5527 32.522 52.4839 32.5496 52.3875 32.5358C52.3048 32.522 52.2084 32.5772 52.1671 32.4392C51.9468 31.6527 51.7126 30.8663 51.4785 30.0522C51.6162 30.0522 51.7402 30.0384 51.8504 30.0522C51.8917 30.0522 51.9192 30.135 51.933 30.1902C52.0845 30.7559 52.2222 31.3354 52.3737 31.9149C52.3875 31.8873 52.415 31.8597 52.4288 31.8321C52.594 31.2802 52.7593 30.7283 52.9246 30.1764C52.9659 30.0522 53.0348 30.0246 53.1449 30.0384C53.2551 30.0384 53.324 30.0384 53.3653 30.1764C53.5306 30.7421 53.6958 31.294 53.8611 31.8459C53.8749 31.8735 53.8886 31.9149 53.9162 31.9977C53.9713 31.7631 54.0126 31.5837 54.0539 31.4044C54.1503 31.018 54.2467 30.6317 54.3293 30.2316C54.3569 30.0798 54.4257 30.0246 54.5772 30.0522C54.6461 30.0522 54.7012 30.0522 54.7976 30.0522Z" fill="#6D6E71"/>
<path d="M36.9089 30.0542C36.8125 30.3853 36.7299 30.7027 36.6335 31.0062C36.4958 31.4754 36.358 31.9307 36.2341 32.3998C36.2065 32.5102 36.1652 32.5516 36.0413 32.5516C35.9311 32.5378 35.8347 32.5654 35.7934 32.4136C35.6281 31.8479 35.4629 31.2822 35.2976 30.7303C35.2838 30.7027 35.27 30.6613 35.2287 30.6061C35.1599 30.8407 35.1048 31.0614 35.0497 31.2684C34.9395 31.6547 34.8018 32.0273 34.7054 32.4136C34.6641 32.5516 34.5952 32.5654 34.4713 32.5654C34.3611 32.5654 34.2922 32.5516 34.2509 32.4274C34.0443 31.6823 33.824 30.951 33.6174 30.206C33.6036 30.1646 33.6036 30.137 33.5898 30.068C33.7138 30.068 33.824 30.0542 33.9204 30.068C33.9617 30.068 34.0168 30.137 34.0306 30.1784C34.1683 30.7303 34.306 31.2822 34.4437 31.8479C34.4437 31.8755 34.4575 31.8893 34.4713 31.9583C34.4988 31.9031 34.5126 31.8617 34.5263 31.8341C34.6916 31.2822 34.8569 30.7303 35.0221 30.1784C35.0497 30.0542 35.1323 30.068 35.2287 30.068C35.3251 30.068 35.4078 30.0404 35.4491 30.1784C35.6143 30.7579 35.7934 31.3374 35.9724 31.9169C35.9724 31.9307 35.9862 31.9583 36 32.0135C36.0275 31.9307 36.0413 31.8893 36.0551 31.8479C36.1928 31.296 36.3167 30.7303 36.4544 30.1784C36.4682 30.137 36.5371 30.0818 36.5922 30.068C36.6886 30.0404 36.785 30.0542 36.9089 30.0542Z" fill="#6D6E71"/>
<path d="M77.331 30.3846C77.0556 29.9155 76.3946 29.8603 75.9952 30.2328C75.9676 30.2604 75.9263 30.3018 75.8712 30.3432C75.8437 30.2742 75.8299 30.2328 75.8161 30.1914C75.8023 29.9983 75.6646 30.0535 75.5545 30.0535C75.4167 30.0535 75.4718 30.1638 75.4718 30.2328C75.4718 31.2263 75.4718 32.2335 75.4718 33.227C75.4718 33.5305 75.4718 33.5167 75.7748 33.5167C75.885 33.5167 75.9263 33.489 75.9125 33.3786C75.9125 33.1993 75.9125 33.02 75.9125 32.8268V32.3025C75.9676 32.3439 75.9952 32.3577 76.0227 32.3853C76.491 32.7716 77.1658 32.6475 77.4275 32.1093C77.6891 31.5298 77.6616 30.9365 77.331 30.3846ZM77.0694 31.8609C76.9317 32.2058 76.6011 32.3577 76.2431 32.2335C76.0227 32.1645 75.9125 31.999 75.9125 31.7644V31.2953C75.9125 31.1435 75.8988 30.9779 75.9125 30.8123C75.9263 30.702 75.9676 30.5778 76.0365 30.5088C76.3257 30.219 76.7939 30.288 76.9867 30.6468C77.1933 31.0469 77.2209 31.4469 77.0694 31.8609Z" fill="#6D6E71"/>
<path d="M57.5792 30.7424C57.5654 30.5078 57.4828 30.3147 57.29 30.1767C56.9181 29.9007 56.2295 29.9559 55.899 30.2871C55.7888 30.3975 55.7062 30.5216 55.7337 30.7148C55.8577 30.7148 55.9816 30.7286 56.0918 30.701C56.1331 30.6872 56.1469 30.5768 56.202 30.5354C56.2709 30.4664 56.3397 30.3975 56.4224 30.3699C56.7529 30.2457 57.1936 30.3837 57.1798 30.908C57.1798 31.0459 57.1385 31.1149 56.987 31.1011C56.808 31.1011 56.6152 31.0735 56.4499 31.1149C56.2433 31.1563 56.023 31.2253 55.8439 31.3357C55.6098 31.4875 55.5685 31.7496 55.6098 32.0118C55.6511 32.2878 55.8026 32.4809 56.078 32.5499C56.4361 32.6465 56.7391 32.5775 57.0145 32.3291C57.0559 32.2878 57.111 32.2464 57.166 32.205C57.2487 32.5775 57.2762 32.5913 57.6068 32.5361V31.5565C57.5792 31.2805 57.5792 31.0184 57.5792 30.7424ZM56.3948 32.2326C56.2433 32.2188 56.1194 32.1774 56.0505 32.0394C55.9816 31.9014 55.9954 31.7496 56.0918 31.6255C56.202 31.4737 56.3535 31.3909 56.5463 31.3909C56.6703 31.3909 56.7942 31.3909 56.9319 31.3909C57.166 31.3909 57.166 31.3909 57.166 31.6393C57.2211 31.9842 56.7391 32.274 56.3948 32.2326Z" fill="#6D6E71"/>
<path d="M43.6022 31.3776C44.0291 31.3914 44.4698 31.3776 44.9105 31.3776C45.0207 31.3776 45.062 31.35 45.0482 31.2396C45.0345 31.1016 45.0345 30.9774 45.0207 30.8395C44.9656 30.4255 44.7728 30.122 44.3459 30.0254C43.9189 29.915 43.5195 30.053 43.2441 30.4117C43.0237 30.7015 42.9824 31.0326 42.9824 31.3914C42.9962 32.4538 43.9052 32.8263 44.7315 32.4538C44.9931 32.3434 45.0069 32.2744 44.8141 32.0399C44.8141 32.0399 44.8003 32.0399 44.7866 32.0261C44.7315 32.0537 44.6764 32.0951 44.6213 32.1226C44.0429 32.44 43.4782 32.164 43.4094 31.5569C43.4094 31.419 43.4507 31.3776 43.6022 31.3776ZM43.4644 30.8946C43.5471 30.6325 43.671 30.4117 43.9602 30.3427C44.3183 30.2599 44.6902 30.6187 44.6213 30.9774C44.6075 31.005 44.5524 31.0602 44.5111 31.0602C44.3459 31.074 44.1944 31.0602 44.0291 31.0602C43.8776 31.0602 43.7399 31.0602 43.5884 31.0602C43.4507 31.0602 43.4231 31.0188 43.4644 30.8946Z" fill="#6D6E71"/>
<path d="M49.3299 31.375C49.6604 31.375 49.991 31.375 50.3215 31.375C50.8035 31.375 50.8173 31.375 50.7622 30.8921C50.7346 30.5471 50.5832 30.2298 50.2389 30.0918C49.8808 29.94 49.5227 29.9538 49.1922 30.1884C48.8892 30.4229 48.7515 30.7403 48.7101 31.1128C48.6551 31.7889 48.9167 32.534 49.7568 32.5892C50.1011 32.6168 50.4179 32.5478 50.7071 32.2857C50.6382 32.1891 50.5969 32.1063 50.5418 32.0373C50.4317 32.0925 50.349 32.1477 50.2664 32.1891C49.7017 32.4236 49.2748 32.1753 49.1646 31.582C49.1371 31.4302 49.1784 31.375 49.3299 31.375ZM49.9496 30.354C50.1838 30.4229 50.3903 30.7265 50.349 30.9611C50.349 30.9887 50.3077 31.0439 50.2802 31.0439C49.9221 31.0439 49.564 31.0439 49.1922 31.0439C49.1784 30.5747 49.5502 30.2436 49.9496 30.354Z" fill="#6D6E71"/>
<path d="M65.2378 30.8383C65.1138 30.3278 64.742 30.0242 64.2324 29.9966C63.7091 29.9828 63.3235 30.245 63.1582 30.7555C63.0618 31.059 63.0618 31.3902 63.1307 31.6937C63.2408 32.2319 63.654 32.5768 64.1911 32.5768C64.6869 32.5906 65.1001 32.2733 65.2378 31.7627C65.2791 31.611 65.2791 31.4454 65.3067 31.2936C65.2791 31.1556 65.2653 30.9901 65.2378 30.8383ZM64.7282 31.9283C64.6318 32.1629 64.439 32.2732 64.1911 32.2595C63.9432 32.2595 63.7504 32.1491 63.6402 31.9283C63.4474 31.5144 63.4474 31.0866 63.6402 30.6727C63.7504 30.4519 63.9294 30.3278 64.1773 30.3278C64.4252 30.3278 64.6181 30.4381 64.7145 30.6727C64.7971 30.8659 64.8384 31.0866 64.8935 31.3074C64.8384 31.5144 64.8109 31.7351 64.7282 31.9283Z" fill="#6D6E71"/>
<path d="M74.3955 32.4115C74.3955 32.5081 74.3542 32.5495 74.2578 32.5357C74.2165 32.5357 74.1751 32.5357 74.12 32.5357C74.0099 32.5495 73.9686 32.4943 73.9686 32.3839C73.9686 31.901 73.9686 31.4181 73.9686 30.9489C73.9686 30.6178 73.8584 30.4384 73.638 30.3694C73.3626 30.2866 73.0458 30.3832 72.8806 30.6316C72.8392 30.6868 72.8255 30.7696 72.8255 30.8524C72.8255 31.3629 72.8255 31.8596 72.8255 32.3701C72.8255 32.5081 72.7842 32.5633 72.6464 32.5495C72.6189 32.5495 72.5776 32.5495 72.55 32.5495C72.4261 32.5633 72.3848 32.5219 72.3848 32.3839C72.3848 31.6664 72.3848 30.9351 72.3848 30.2177C72.3848 30.1073 72.3985 30.0383 72.5363 30.0521C72.6602 30.0659 72.8117 30.0107 72.7979 30.2177C72.7979 30.2728 72.8117 30.3142 72.8117 30.3694C72.8255 30.3832 72.853 30.397 72.8668 30.4108C72.8806 30.3832 72.8943 30.3418 72.9081 30.3142C73.1698 30.0245 73.5554 29.9279 73.9135 30.0659C74.2165 30.1901 74.3542 30.4246 74.3679 30.7282C74.4093 31.2801 74.3955 31.8458 74.3955 32.4115Z" fill="#6D6E71"/>
<path d="M47.541 32.4255C47.0865 32.7015 46.3841 32.6325 46.0674 32.2599C45.9572 32.1357 45.8746 31.9978 45.9296 31.7908C46.026 31.7908 46.1225 31.777 46.2051 31.7908C46.2464 31.7908 46.3153 31.846 46.3153 31.8874C46.4392 32.3151 47.0865 32.3427 47.3206 32.122C47.4997 31.9564 47.4721 31.6942 47.2518 31.5838C47.0865 31.5011 46.9075 31.4735 46.7422 31.4045C46.5769 31.3493 46.4117 31.2941 46.2602 31.2113C45.9434 31.0319 45.8883 30.6042 46.1225 30.3282C46.4668 29.8867 47.3069 29.8729 47.6649 30.3006C47.6925 30.342 47.7338 30.3834 47.7476 30.4248C47.7751 30.5214 47.7889 30.6318 47.8027 30.7284C47.6925 30.7422 47.5823 30.756 47.4584 30.756C47.4308 30.756 47.4033 30.7008 47.3895 30.6594C47.2518 30.3558 46.8524 30.2179 46.5907 30.411C46.4943 30.48 46.4254 30.618 46.4117 30.7284C46.3979 30.8526 46.4943 30.9629 46.6182 31.0181C46.7835 31.0733 46.9488 31.1147 47.1003 31.1561C47.238 31.1975 47.3757 31.2527 47.4997 31.3079C47.9817 31.5286 47.9128 32.1909 47.541 32.4255Z" fill="#6D6E71"/>
<path d="M62.2627 31.7913C62.2627 31.9706 62.1938 32.1362 62.0699 32.2604C61.7393 32.6053 61.3262 32.6743 60.8855 32.5226C60.4585 32.3846 60.2795 32.0396 60.2106 31.6257C60.1556 31.2808 60.1831 30.9496 60.3071 30.6185C60.6238 29.8182 61.698 29.8596 62.0561 30.3011C62.1938 30.4667 62.2627 30.6461 62.2627 30.8668C62.1938 30.8668 62.1525 30.8668 62.1112 30.8806C61.9735 30.8944 61.8908 30.8668 61.8495 30.7012C61.7807 30.4529 61.5879 30.3425 61.34 30.3287C61.1058 30.3149 60.8855 30.3977 60.7753 30.6185C60.555 31.06 60.555 31.5291 60.7753 31.9706C60.8717 32.1776 61.0645 32.2604 61.2986 32.2604C61.5328 32.2604 61.7118 32.1638 61.8358 31.9706C61.9597 31.7499 61.9735 31.7361 62.2627 31.7913Z" fill="#6D6E71"/>
<path d="M41.9192 32.3283C41.9192 32.5353 41.9192 32.5352 41.6989 32.5352C41.4785 32.5352 41.4785 32.5353 41.4785 32.3145C41.4785 32.0938 41.4785 32.0938 41.6989 32.0938C41.9192 32.0938 41.9192 32.0937 41.9192 32.3283Z" fill="#6D6E71"/>
<path d="M59.1223 32.3303C59.1223 32.5373 59.1223 32.5373 58.902 32.5373C58.6816 32.5373 58.6816 32.5373 58.6816 32.2889C58.6816 32.082 58.6816 32.082 58.9158 32.082C59.1223 32.0958 59.1223 32.0958 59.1223 32.3303Z" fill="#6D6E71"/>
<path d="M71.2297 32.3272C71.2297 32.548 71.2297 32.548 71.0093 32.548C70.8027 32.548 70.8027 32.548 70.8027 32.3272C70.8027 32.1064 70.8027 32.1064 71.0093 32.1064C71.2297 32.0926 71.2297 32.0926 71.2297 32.3272Z" fill="#6D6E71"/>
<path d="M27.3204 19.0129C26.2187 19.0129 25.1169 19.0129 24.0151 19.0129C23.8912 19.0129 23.8499 18.9853 23.8636 18.8611C23.8774 18.599 23.8636 18.3368 23.8636 18.0884C23.8774 17.7848 23.8361 17.4675 23.8774 17.1639C23.9325 17.1226 23.9876 17.1501 24.0565 17.1501C25.1444 17.1501 26.2462 17.1501 27.3342 17.1501C27.4031 17.1501 27.4582 17.1502 27.527 17.1364C27.4857 16.8052 27.4444 16.4741 27.3893 16.1429C27.1965 15.1771 26.866 14.2526 26.3977 13.3833C25.7917 12.2795 25.0205 11.3137 24.0565 10.5134C22.8445 9.51996 21.4811 8.84387 19.9386 8.51272C18.7267 8.25056 17.5009 8.22296 16.289 8.42993C14.0441 8.83007 12.1436 9.8787 10.6562 11.6172C8.54908 14.087 7.81916 16.957 8.46645 20.1443C9.00356 22.7659 10.4359 24.808 12.6669 26.2843C13.8789 27.0984 15.2285 27.5813 16.6746 27.7745C16.7159 27.7745 16.771 27.7745 16.8123 27.7883C16.8261 27.7883 16.8261 27.8021 16.8399 27.8021C16.8812 27.8021 16.9225 27.8021 16.9776 27.8021C17.0327 27.8021 17.1016 27.8021 17.1566 27.8159C17.1704 27.8159 17.1704 27.8159 17.1842 27.8297C17.2806 27.8297 17.377 27.8435 17.4734 27.8435C17.7764 27.8435 18.0931 27.8435 18.3961 27.8435C18.4788 27.8435 18.5752 27.8435 18.6578 27.8297C18.6716 27.8297 18.6716 27.8159 18.6853 27.8159C18.6853 27.8159 18.6853 27.8159 18.6991 27.8159C18.7542 27.8021 18.8093 27.8021 18.8644 27.8021C19.1398 27.7607 19.429 27.7331 19.7045 27.6779C20.7787 27.471 21.7841 27.0984 22.7343 26.5465C23.3679 26.174 23.9601 25.7462 24.4972 25.2357C25.1031 24.67 25.6265 24.0353 26.081 23.3316C26.5905 22.5313 26.9761 21.6621 27.2378 20.7514C27.3755 20.2409 27.4857 19.7304 27.5408 19.2199C27.527 19.0129 27.5408 19.0129 27.3204 19.0129ZM21.9631 20.4755C21.729 21.2757 21.3571 21.9932 20.7925 22.6141C19.9937 23.4972 19.0021 23.9249 17.8315 24.0215C17.0327 24.0905 16.2339 24.0353 15.4764 23.7455C14.595 23.4144 13.9615 22.7797 13.4106 22.0484C12.846 21.2895 12.5843 20.4203 12.3777 19.5234C12.1298 18.4196 12.1023 17.3295 12.4053 16.2395C12.7496 14.9977 13.4382 13.9629 14.5399 13.2592C15.2286 12.8176 16.4543 12.5003 17.3632 12.5003C18.7404 12.4865 19.7182 13.1488 20.4344 14.2802C20.6961 14.6803 20.9026 15.1081 21.0128 15.591C21.0955 15.9773 21.0266 16.1153 20.641 16.2119C20.159 16.3361 19.9386 16.3913 19.4566 16.4603C17.7901 16.7362 15.8621 16.9984 14.1956 17.2605C14.113 17.2743 14.0579 17.3019 14.0717 17.3985C14.1543 18.9715 14.5262 20.4203 15.7381 21.5379C17.1566 22.8625 19.126 22.5727 20.3104 21.5793C20.7787 21.193 21.123 20.7238 21.3296 20.1443C21.3847 19.9925 21.4811 19.9511 21.6463 20.0063C21.6739 20.0201 21.7152 20.0339 21.7427 20.0339C22.0182 20.1443 22.0457 20.1719 21.9631 20.4755Z" fill="#60BB46"/>
<path d="M21.7285 20.0339C21.7009 20.0201 21.6734 20.0063 21.6321 20.0063C21.4668 19.9511 21.3704 19.9925 21.3153 20.1442C21.1087 20.7238 20.7644 21.1929 20.2962 21.5792C19.1118 22.5727 17.1561 22.8624 15.7239 21.5378C14.5119 20.4202 14.1401 18.9576 14.0574 17.3984C14.0574 17.3019 14.0987 17.2743 14.1814 17.2605C15.8478 16.9983 17.7759 16.7361 19.4423 16.4602C19.9243 16.3774 20.1447 16.336 20.6267 16.2118C21.0123 16.1152 21.0812 15.9635 20.9986 15.5909C20.8884 15.1218 20.6818 14.6941 20.4201 14.2801C19.704 13.1487 18.7262 12.4864 17.349 12.5002C16.44 12.5002 15.2281 12.8176 14.5257 13.2591C13.4239 13.9628 12.7353 14.9838 12.391 16.2394C12.1018 17.3294 12.1156 18.4195 12.3635 19.5233C12.57 20.434 12.8317 21.3033 13.3964 22.0483C13.9473 22.7796 14.5808 23.4143 15.4622 23.7455C16.2196 24.0352 17.0184 24.0766 17.8172 24.0214C18.9878 23.9386 19.9794 23.4971 20.7782 22.614C21.3429 21.9931 21.7147 21.2757 21.9488 20.4754C22.0452 20.1718 22.0177 20.1442 21.7285 20.0339ZM14.3329 16.3222C14.4155 15.7703 14.5119 15.2322 14.7874 14.7355C15.1592 14.0456 15.7101 13.5626 16.4951 13.4109C17.4591 13.2177 18.2028 13.604 18.6573 14.5561C18.7813 14.8182 18.8777 15.108 18.919 15.384C18.919 15.5495 18.8363 15.6185 18.7262 15.6875C18.5471 15.7979 18.3405 15.8255 18.1477 15.8531C16.922 16.0462 15.7101 16.2394 14.4844 16.4464C14.3466 16.474 14.3191 16.4602 14.3329 16.3222Z" fill="white"/>
<path d="M18.9203 15.3946C18.9203 15.5602 18.8377 15.6292 18.7275 15.6982C18.5485 15.8085 18.3419 15.8361 18.1491 15.8637C16.9234 16.0569 15.7114 16.2501 14.4857 16.457C14.3618 16.4708 14.3205 16.457 14.348 16.3191C14.4306 15.7672 14.527 15.229 14.8025 14.7323C15.1743 14.0424 15.7252 13.5595 16.5102 13.4077C17.4743 13.2146 18.218 13.6009 18.6724 14.5529C18.7826 14.8427 18.8652 15.1187 18.9203 15.3946Z" fill="#60BB46"/>
</g>
<defs>
<clipPath id="clip0_697_27092">
<rect width="74" height="26" fill="white" transform="translate(8 8)"/>
</clipPath>
</defs>
</svg>
