<svg width="90" height="42" viewBox="0 0 90 42" fill="none" xmlns="http://www.w3.org/2000/svg">
<rect x="0.5" y="0.5" width="89" height="41" fill="white"/>
<rect x="0.5" y="0.5" width="89" height="41" stroke="#F2F2F2"/>
<g clip-path="url(#clip0_697_27119)">
<path d="M38.9236 8.50705C38.6475 8.20794 38.3024 8.04688 37.8652 8.04688H14.028C13.5909 8.04688 13.2227 8.20794 12.9696 8.50705C12.6935 8.80617 12.5785 9.17431 12.6475 9.61148L14.3502 25.9708C14.4422 26.9371 15.2475 28.1336 16.0528 28.6398L24.474 33.6097C24.8652 33.8398 25.4174 33.9778 25.9696 33.9778C26.5448 33.9778 27.074 33.8398 27.4652 33.6097L35.8864 28.6398C36.7148 28.1796 37.474 26.9371 37.5891 25.9708L39.2917 9.61148C39.2917 9.22033 39.1997 8.80617 38.9236 8.50705ZM32.021 26.638C31.3307 27.0982 30.4103 26.9141 29.9502 26.2469L25.6475 19.9194L23.0475 22.5194V25.3955C23.0475 26.2239 22.3802 26.8911 21.5519 26.8911C20.7236 26.8911 20.0563 26.2239 20.0563 25.3955V12.9248C20.0563 12.0964 20.7236 11.4292 21.5519 11.4292C22.3802 11.4292 23.0475 12.0964 23.0475 12.9248V18.2858L29.467 11.8663C30.0422 11.2911 31.0086 11.2911 31.5838 11.8663C32.159 12.4416 32.159 13.4079 31.5838 13.9832L27.7873 17.7566C27.7873 17.7796 27.8103 17.7796 27.8103 17.8026L32.4121 24.5442C32.8723 25.2345 32.6882 26.1548 32.021 26.638Z" fill="#5D2E8E"/>
<path fill-rule="evenodd" clip-rule="evenodd" d="M76.1055 13.9828V24.4058C76.1055 25.8094 74.9551 26.9598 73.5515 26.9598H38.7852L38.8772 25.8554H73.5515C74.3338 25.8554 75.0011 25.1881 75.0011 24.4058V13.9368C75.0011 13.1545 74.3338 12.4872 73.5515 12.4872H40.2807L40.3728 11.3828H73.5515C74.9551 11.3828 76.1055 12.5333 76.1055 13.9828Z" fill="#5D2E8E"/>
<path fill-rule="evenodd" clip-rule="evenodd" d="M43.1803 16.3531C43.1803 16.1921 43.0882 16.1231 42.9502 16.1231H42.49V15.1797H43.5484C44.0546 15.1797 44.2847 15.3177 44.2847 15.8469V19.5514H44.7909C44.998 19.5514 45.2511 19.4823 45.3891 19.3213L46.7236 17.4806H47.9661L46.4245 19.5744C46.1484 19.8965 45.9873 20.0115 45.9873 20.0115V20.0346C45.9873 20.0346 46.1944 20.1036 46.3555 20.4717L47.1838 22.0133C47.2758 22.1744 47.3909 22.2434 47.69 22.2434H48.0121V23.1638H47.2068C46.6776 23.1638 46.5165 23.0717 46.2634 22.6346L45.228 20.7248C45.09 20.5177 44.8599 20.4947 44.6528 20.4947H44.2157V23.1868H43.1112L43.1803 16.3531Z" fill="#5D2E8E"/>
<path fill-rule="evenodd" clip-rule="evenodd" d="M49.1395 16.3766C49.1395 16.2155 49.0474 16.1465 48.9094 16.1465H48.4492V15.2031H49.5076C50.0138 15.2031 50.2439 15.4102 50.2439 15.8934V18.1252C50.2439 18.4014 50.2209 18.5854 50.2209 18.5854H50.2439C50.474 18.0102 51.2103 17.3199 52.3377 17.3199C53.6722 17.3199 54.2705 18.0562 54.2705 19.5288V21.9907C54.2705 22.1518 54.3625 22.2208 54.5005 22.2208H54.9607V23.1412H53.9023C53.3961 23.1412 53.166 22.9341 53.166 22.4049V19.7819C53.166 18.9766 53.005 18.3553 52.1076 18.3553C51.2333 18.3553 50.543 18.9536 50.3129 19.7589C50.2439 19.989 50.2209 20.2651 50.2209 20.5182V23.1872H49.1165L49.1395 16.3766Z" fill="#5D2E8E"/>
<path d="M57.9291 22.4287C58.8725 22.4287 59.4707 21.4623 59.4707 20.634V20.4269H59.1946C58.3663 20.4269 56.8937 20.4499 56.8937 21.5314C56.8477 22.0145 57.2158 22.4287 57.9291 22.4287ZM59.1946 19.6446H59.4247V19.5756C59.4247 18.5862 59.0566 18.2181 58.1592 18.2181C57.8831 18.2181 57.2158 18.2871 57.2158 18.6553V18.9774H56.1805V18.4022C56.1805 17.4588 57.607 17.3438 58.1362 17.3438C59.9769 17.3438 60.4601 18.3101 60.4601 19.5756V22.0145C60.4601 22.1756 60.5521 22.2676 60.6902 22.2676H61.1504V23.188H60.115C59.6088 23.188 59.4247 22.9579 59.4247 22.5207C59.4247 22.3137 59.4477 22.1986 59.4477 22.1986H59.4247C59.4247 22.1986 58.9645 23.3261 57.63 23.3261C56.6636 23.3261 55.6973 22.7278 55.6973 21.6004C55.7433 19.7827 58.2512 19.6446 59.1946 19.6446Z" fill="#5D2E8E"/>
<path fill-rule="evenodd" clip-rule="evenodd" d="M62.1165 16.1934H61.6104V15.25H62.6688C63.175 15.25 63.405 15.4571 63.405 15.9863V22.0146C63.405 22.1757 63.4971 22.2447 63.6351 22.2447H64.0953V23.165H63.0369C62.5307 23.165 62.3006 22.958 62.3006 22.4288V16.4235C62.3236 16.4235 62.3466 16.1934 62.1165 16.1934Z" fill="#5D2E8E"/>
<path fill-rule="evenodd" clip-rule="evenodd" d="M65.3378 18.3565H64.6016V17.4821H65.3609V15.8945H66.4193V17.4821H67.7768V18.3565H66.4423V20.9565C66.4423 22.0839 67.2246 22.268 67.6157 22.268C67.7768 22.268 67.8918 22.268 67.8918 22.268V23.1653C67.8918 23.1653 67.7538 23.1883 67.5237 23.1883C66.7874 23.1883 65.3609 22.9582 65.3609 21.0485V18.3565H65.3378Z" fill="#5D2E8E"/>
<path fill-rule="evenodd" clip-rule="evenodd" d="M69.6634 15.2266H70.3537C70.4227 15.2266 70.4918 15.2956 70.4918 15.3646V16.2159C70.4918 16.285 70.4227 16.354 70.3537 16.354H69.6634C69.5944 16.354 69.5254 16.285 69.5254 16.2159V15.3646C69.5254 15.2726 69.5714 15.2266 69.6634 15.2266Z" fill="#5D2E8E"/>
<path fill-rule="evenodd" clip-rule="evenodd" d="M69.4793 18.6539C69.4793 18.4929 69.3873 18.4238 69.2492 18.4238H68.7891V17.4805H69.8475C70.3537 17.4805 70.5838 17.6875 70.5838 18.2168V22.0132C70.5838 22.1743 70.6758 22.2433 70.8138 22.2433H71.274V23.1637H70.2156C69.7094 23.1637 69.4793 22.9566 69.4793 22.4274V18.6539Z" fill="#5D2E8E"/>
<path fill-rule="evenodd" clip-rule="evenodd" d="M10.8761 12.3214L8.0976 12.9604L10.0281 21.202L12.6283 20.628L10.8761 12.3214Z" fill="#F9A61C"/>
<path d="M11.8098 12.1774L8.03418 12.5742L8.95773 21.3612L12.7334 20.9644L11.8098 12.1774Z" fill="#F9A61C"/>
</g>
<defs>
<clipPath id="clip0_697_27119">
<rect width="68.1062" height="26" fill="white" transform="translate(8 8)"/>
</clipPath>
</defs>
</svg>
