<svg width="24" height="24" viewBox="0 0 24 24" fill="none" xmlns="http://www.w3.org/2000/svg">
<g clip-path="url(#clip0_697_27893)">
<path d="M1.23077 4.30859H22.7692C23.449 4.30859 24 4.85964 24 5.53936V18.4624C24 19.1422 23.449 19.6932 22.7692 19.6932H1.23077C0.551046 19.6932 0 19.1422 0 18.4624V5.53936C0 4.85964 0.551046 4.30859 1.23077 4.30859Z" fill="#16366F"/>
<path d="M13.816 11.9996C13.816 15.0502 11.3431 17.5227 8.29261 17.5227C5.24215 17.5227 2.76953 15.0501 2.76953 11.9996C2.76953 8.94939 5.24221 6.47656 8.29261 6.47656C11.343 6.47656 13.816 8.94949 13.816 11.9996Z" fill="#D9222A"/>
<path d="M15.7073 6.47656C14.2803 6.47656 12.9799 7.01798 11.9996 7.90629C11.7999 8.08749 11.6135 8.28281 11.4419 8.49078H12.5578C12.7106 8.67653 12.8512 8.87195 12.9789 9.07579H11.0209C10.9031 9.26413 10.7969 9.45946 10.7027 9.66066H13.2969C13.3859 9.85096 13.464 10.0462 13.5308 10.2454H10.4689C10.4045 10.4372 10.351 10.6325 10.3083 10.8303H13.6911C13.7739 11.2146 13.8155 11.6066 13.8155 11.9998C13.8155 12.6131 13.7153 13.2032 13.5307 13.7542H10.4688C10.5354 13.9536 10.6134 14.1488 10.7025 14.3391H13.2969C13.2026 14.5404 13.0963 14.7357 12.9785 14.9242H11.0208C11.1486 15.1281 11.2894 15.3235 11.4419 15.5087H12.5575C12.3861 15.717 12.1997 15.9125 11.9997 16.0936C12.98 16.9819 14.2802 17.523 15.7074 17.523C18.7578 17.523 21.2307 15.0503 21.2307 11.9999C21.2307 8.94976 18.7578 6.47684 15.7074 6.47684" fill="#EE9F2D"/>
<path d="M20.495 15.0781C20.495 14.9796 20.5747 14.8996 20.6733 14.8996C20.7719 14.8996 20.8517 14.9796 20.8517 15.0781C20.8517 15.1765 20.7719 15.2565 20.6733 15.2565C20.5748 15.2565 20.495 15.1766 20.495 15.0781ZM20.6733 15.2137C20.7483 15.2137 20.8089 15.1529 20.809 15.0781C20.809 15.0032 20.7483 14.9426 20.6735 14.9426H20.6733C20.5986 14.9424 20.5379 15.003 20.5378 15.0777V15.0781C20.5377 15.1529 20.5983 15.2137 20.6732 15.2137C20.6732 15.2137 20.6733 15.2137 20.6733 15.2137ZM20.6492 15.1565H20.6127V14.9997H20.6788C20.6927 14.9997 20.7067 14.9997 20.719 15.0075C20.7317 15.0161 20.7388 15.0312 20.7388 15.0469C20.7388 15.0644 20.7285 15.0808 20.7117 15.0872L20.7405 15.1565H20.7L20.676 15.0944H20.6493L20.6492 15.1565ZM20.6492 15.0675H20.6695C20.6771 15.0675 20.685 15.0682 20.6918 15.0645C20.6978 15.0606 20.7009 15.0534 20.7009 15.0465C20.7009 15.0405 20.6972 15.0336 20.692 15.0306C20.6857 15.0266 20.6755 15.0275 20.6687 15.0275H20.6492V15.0675ZM7.00309 12.6041C6.94016 12.5968 6.91247 12.5948 6.86924 12.5948C6.52939 12.5948 6.35733 12.7114 6.35733 12.9415C6.35733 13.0834 6.44133 13.1737 6.57232 13.1737C6.81656 13.1737 6.99259 12.9411 7.00309 12.6041ZM7.43912 13.6193H6.94232L6.95373 13.3831C6.80219 13.5698 6.60001 13.6585 6.32527 13.6585C6.00029 13.6585 5.77746 13.4047 5.77746 13.0361C5.77746 12.4815 6.16502 12.1579 6.83029 12.1579C6.89822 12.1579 6.98539 12.1641 7.07462 12.1755C7.09324 12.1003 7.0981 12.0682 7.0981 12.0278C7.0981 11.8767 6.99361 11.8204 6.71349 11.8204C6.42016 11.8171 6.17822 11.8903 6.07887 11.923C6.08515 11.8852 6.16195 11.4105 6.16195 11.4105C6.46078 11.3229 6.65786 11.2899 6.87964 11.2899C7.3945 11.2899 7.66721 11.5211 7.66672 11.958C7.6677 12.0751 7.64835 12.2195 7.6181 12.4094C7.56604 12.7396 7.45441 13.4469 7.43912 13.6193ZM5.52656 13.6193H4.92693L5.27041 11.4656L4.50349 13.6193H4.09487L4.04441 11.4779L3.68336 13.6193H3.12207L3.59093 10.8177H4.45309L4.50539 12.3858L5.0313 10.8177H5.99029L5.52656 13.6193ZM16.449 12.6041C16.3863 12.5968 16.3585 12.5948 16.3154 12.5948C15.9757 12.5948 15.8036 12.7114 15.8036 12.9415C15.8036 13.0834 15.8875 13.1737 16.0185 13.1737C16.2627 13.1737 16.4389 12.9411 16.449 12.6041ZM16.8854 13.6193H16.3887L16.3999 13.3831C16.2483 13.5698 16.046 13.6585 15.7716 13.6585C15.4465 13.6585 15.2239 13.4047 15.2239 13.0361C15.2239 12.4815 15.6112 12.1579 16.2766 12.1579C16.3445 12.1579 16.4315 12.1641 16.5207 12.1755C16.5393 12.1003 16.5442 12.0682 16.5442 12.0278C16.5442 11.8767 16.4398 11.8204 16.1597 11.8204C15.8663 11.8171 15.6247 11.8903 15.5249 11.923C15.5312 11.8852 15.6083 11.4105 15.6083 11.4105C15.9071 11.3229 16.104 11.2899 16.3255 11.2899C16.8407 11.2899 17.1134 11.5211 17.1129 11.958C17.1139 12.0751 17.0945 12.2195 17.0643 12.4094C17.0125 12.7396 16.9006 13.4469 16.8854 13.6193ZM10.1042 13.5847C9.94007 13.6364 9.81213 13.6585 9.67343 13.6585C9.36687 13.6585 9.19958 13.4824 9.19958 13.158C9.19521 13.0574 9.24367 12.7925 9.28173 12.5507C9.31635 12.3379 9.54173 10.9959 9.54173 10.9959H10.1378L10.0682 11.3408H10.4282L10.3468 11.8884H9.98555C9.91632 12.3217 9.81773 12.8615 9.8166 12.933C9.8166 13.0505 9.87927 13.1017 10.0218 13.1017C10.0902 13.1017 10.1431 13.0948 10.1835 13.0802L10.1042 13.5847ZM11.9316 13.5662C11.7269 13.6288 11.5293 13.6591 11.3199 13.6586C10.6528 13.6579 10.305 13.3095 10.305 12.6422C10.305 11.8633 10.7474 11.29 11.348 11.29C11.8394 11.29 12.1533 11.611 12.1533 12.1145C12.1533 12.2815 12.1317 12.4446 12.0798 12.6748H10.8929C10.8528 13.0054 11.0643 13.143 11.411 13.143C11.6243 13.143 11.8167 13.0991 12.0307 12.9996L11.9316 13.5662ZM11.5966 12.2155C11.5999 12.168 11.6598 11.8088 11.3193 11.8088C11.1294 11.8088 10.9937 11.9535 10.9384 12.2155H11.5966ZM7.79909 12.0611C7.79909 12.3493 7.93881 12.548 8.25573 12.6973C8.49856 12.8114 8.53613 12.8453 8.53613 12.9487C8.53613 13.0907 8.42906 13.1548 8.19176 13.1548C8.01293 13.1548 7.84653 13.1269 7.65459 13.065C7.65459 13.065 7.57573 13.5671 7.57213 13.5912C7.70844 13.6209 7.82998 13.6484 8.19613 13.6586C8.82881 13.6586 9.12099 13.4177 9.12099 12.897C9.12099 12.5839 8.99869 12.4002 8.69832 12.2622C8.4469 12.1468 8.41804 12.121 8.41804 12.0146C8.41804 11.8914 8.51767 11.8286 8.71152 11.8286C8.82921 11.8286 8.98998 11.8411 9.14229 11.8628L9.22767 11.3343C9.07241 11.3097 8.83703 11.29 8.69998 11.29C8.02921 11.29 7.79702 11.6403 7.79909 12.0611ZM14.848 11.3499C15.0146 11.3499 15.1698 11.3935 15.3838 11.5012L15.4819 10.8932C15.394 10.8587 15.0848 10.6562 14.8229 10.6562C14.4216 10.6562 14.0824 10.8553 13.8438 11.1839C13.4958 11.0687 13.3528 11.3016 13.1774 11.5337L13.0216 11.57C13.0334 11.4936 13.0441 11.4177 13.0405 11.3409H12.4899C12.4146 12.046 12.2813 12.7602 12.1769 13.4662L12.1497 13.6194H12.7496C12.8497 12.9688 12.9046 12.5523 12.9379 12.2704L13.1638 12.1447C13.1975 12.0192 13.3032 11.9768 13.5151 11.9819C13.4866 12.136 13.4723 12.2923 13.4725 12.4491C13.4725 13.1945 13.8747 13.6586 14.5202 13.6586C14.6865 13.6586 14.8292 13.6367 15.0501 13.5768L15.1557 12.938C14.9569 13.0359 14.7938 13.0819 14.6461 13.0819C14.2975 13.0819 14.0866 12.8246 14.0866 12.3993C14.0866 11.7824 14.4003 11.3499 14.848 11.3499Z" fill="black"/>
<path d="M5.69844 13.4536H5.09871L5.44241 11.3002L4.67548 13.4536H4.26681L4.21628 11.3125L3.85527 13.4536H3.29395L3.76281 10.6523H4.62496L4.64921 12.3866L5.23087 10.6523H6.16216L5.69844 13.4536Z" fill="white"/>
<path d="M19.9238 10.8203L19.7909 11.6298C19.6269 11.414 19.4508 11.2579 19.2182 11.2579C18.9156 11.2579 18.6403 11.4872 18.46 11.8248C18.209 11.7727 17.9493 11.6844 17.9493 11.6844L17.9492 11.6865C17.9695 11.4978 17.9775 11.3826 17.9757 11.3435H17.425C17.35 12.0487 17.2167 12.7629 17.1124 13.4689L17.085 13.622H17.6847C17.7657 13.0959 17.8278 12.6591 17.8734 12.3127C18.0783 12.1276 18.1809 11.9661 18.3879 11.9768C18.2963 12.1986 18.2425 12.4539 18.2425 12.7158C18.2425 13.2855 18.5307 13.6612 18.9667 13.6612C19.1864 13.6612 19.355 13.5855 19.5195 13.4098L19.4914 13.6216H20.0586L20.5152 10.8203H19.9238ZM19.1739 13.0955C18.9698 13.0955 18.8668 12.9444 18.8668 12.6463C18.8668 12.1985 19.0597 11.8809 19.3318 11.8809C19.5378 11.8809 19.6493 12.038 19.6493 12.3273C19.6493 12.7791 19.4533 13.0955 19.1739 13.0955Z" fill="black"/>
<path d="M7.1746 12.4386C7.11177 12.4313 7.08396 12.4294 7.04088 12.4294C6.701 12.4294 6.52907 12.5459 6.52907 12.776C6.52907 12.9177 6.61306 13.0082 6.74383 13.0082C6.9883 13.0082 7.16433 12.7757 7.1746 12.4386ZM7.61088 13.4535H7.11408L7.12537 13.2177C6.97396 13.404 6.77153 13.4931 6.49703 13.4931C6.1719 13.4931 5.94922 13.2392 5.94922 12.8706C5.94922 12.3158 6.33663 11.9924 7.00202 11.9924C7.06999 11.9924 7.15716 11.9986 7.24626 12.01C7.26485 11.9349 7.26971 11.9027 7.26971 11.8621C7.26971 11.711 7.16537 11.655 6.88522 11.655C6.59177 11.6517 6.34999 11.7249 6.25048 11.7572C6.25676 11.7195 6.33356 11.2453 6.33356 11.2453C6.6323 11.1573 6.82959 11.1243 7.05113 11.1243C7.56614 11.1243 7.83894 11.3557 7.83845 11.7922C7.83934 11.9097 7.81983 12.0541 7.78971 12.2437C7.7378 12.5737 7.62602 13.2814 7.61088 13.4535ZM15.6533 10.7276L15.5551 11.3358C15.3413 11.2282 15.1859 11.1844 15.0195 11.1844C14.5718 11.1844 14.258 11.6169 14.258 12.2338C14.258 12.6591 14.469 12.9163 14.8175 12.9163C14.9652 12.9163 15.1281 12.8704 15.3268 12.7724L15.2216 13.4109C15.0005 13.4711 14.858 13.4931 14.6916 13.4931C14.0461 13.4931 13.6439 13.029 13.6439 12.2836C13.6439 11.282 14.1995 10.582 14.9943 10.582C15.256 10.5821 15.5654 10.6931 15.6533 10.7276ZM16.6208 12.4386C16.558 12.4313 16.5303 12.4294 16.4871 12.4294C16.1473 12.4294 15.9753 12.5459 15.9753 12.776C15.9753 12.9177 16.0592 13.0082 16.1901 13.0082C16.4344 13.0082 16.6105 12.7757 16.6208 12.4386ZM17.0571 13.4535H16.5601L16.5715 13.2177C16.42 13.404 16.2177 13.4931 15.9432 13.4931C15.6182 13.4931 15.3954 13.2392 15.3954 12.8706C15.3954 12.3158 15.7829 11.9924 16.4481 11.9924C16.5162 11.9924 16.6032 11.9986 16.6924 12.01C16.7109 11.9349 16.7159 11.9027 16.7159 11.8621C16.7159 11.711 16.6115 11.655 16.3314 11.655C16.0381 11.6517 15.7961 11.7249 15.6967 11.7572C15.7029 11.7195 15.7799 11.2453 15.7799 11.2453C16.0786 11.1573 16.2757 11.1243 16.4973 11.1243C17.0124 11.1243 17.2851 11.3557 17.2845 11.7922C17.2855 11.9097 17.2661 12.0541 17.2359 12.2437C17.1841 12.5737 17.0721 13.2814 17.0571 13.4535ZM10.2758 13.419C10.1116 13.4706 9.98365 13.4931 9.84507 13.4931C9.53851 13.4931 9.37122 13.3169 9.37122 12.9926C9.36697 12.8916 9.41543 12.627 9.45353 12.3853C9.48799 12.1722 9.7134 10.8304 9.7134 10.8304H10.3093L10.2398 11.1754H10.5457L10.4643 11.7227H10.1574C10.0881 12.1563 9.98928 12.6956 9.98827 12.7673C9.98827 12.8851 10.0511 12.936 10.1935 12.936C10.2618 12.936 10.3147 12.9293 10.3552 12.9147L10.2758 13.419ZM12.1033 13.4008C11.8987 13.4633 11.7008 13.4935 11.4916 13.4931C10.8244 13.4924 10.4766 13.144 10.4766 12.4767C10.4766 11.6976 10.9191 11.1244 11.5197 11.1244C12.0111 11.1244 12.3249 11.4453 12.3249 11.949C12.3249 12.1162 12.3034 12.2792 12.2516 12.5094H11.0647C11.0245 12.8398 11.236 12.9777 11.5828 12.9777C11.796 12.9777 11.9885 12.9336 12.2024 12.8338L12.1033 13.4008ZM11.7681 12.0496C11.7717 12.0023 11.8315 11.643 11.4908 11.643C11.3011 11.643 11.1653 11.7881 11.1101 12.0496H11.7681ZM7.9706 11.8957C7.9706 12.1838 8.11036 12.3823 8.42728 12.5318C8.67008 12.6459 8.70765 12.6799 8.70765 12.7832C8.70765 12.9253 8.60048 12.9894 8.36343 12.9894C8.18445 12.9894 8.01805 12.9614 7.82599 12.8995C7.82599 12.8995 7.7474 13.4017 7.74383 13.4257C7.87983 13.4554 8.0015 13.4826 8.36765 13.4931C9.00048 13.4931 9.29254 13.2522 9.29254 12.7317C9.29254 12.4184 9.17036 12.2347 8.86983 12.0967C8.61854 11.981 8.58947 11.9557 8.58947 11.8491C8.58947 11.726 8.68931 11.6627 8.88303 11.6627C9.0006 11.6627 9.16137 11.6756 9.31393 11.6973L9.39919 11.1687C9.24408 11.1441 9.0087 11.1244 8.87162 11.1244C8.20073 11.1244 7.9687 11.4745 7.9706 11.8957ZM20.2306 13.4535H19.6633L19.6915 13.2414C19.527 13.4173 19.3585 13.4931 19.1387 13.4931C18.7028 13.4931 18.4147 13.1173 18.4147 12.5477C18.4147 11.7898 18.8615 11.151 19.3904 11.151C19.6229 11.151 19.799 11.246 19.9628 11.4616L20.0959 10.6522H20.6873L20.2306 13.4535ZM19.3461 12.927C19.6254 12.927 19.8215 12.6106 19.8215 12.1593C19.8215 11.8699 19.7098 11.7128 19.5038 11.7128C19.2319 11.7128 19.0387 12.0303 19.0387 12.4782C19.0387 12.7762 19.142 12.927 19.3461 12.927ZM17.5971 11.1754C17.5221 11.8805 17.3887 12.5948 17.2845 13.3004L17.257 13.4535H17.8568C18.0713 12.0604 18.1232 11.7883 18.4595 11.8224C18.5131 11.5373 18.6128 11.2876 18.6871 11.1615C18.436 11.1092 18.2957 11.2512 18.1121 11.5208C18.1266 11.4042 18.1532 11.291 18.1479 11.1754H17.5971ZM12.6611 11.1754C12.5859 11.8805 12.4525 12.5948 12.3483 13.3004L12.321 13.4535H12.921C13.1352 12.0604 13.187 11.7883 13.5231 11.8224C13.577 11.5373 13.6767 11.2876 13.7508 11.1615C13.4999 11.1092 13.3596 11.2512 13.1761 11.5208C13.1906 11.4042 13.2169 11.291 13.2119 11.1754H12.6611ZM20.4941 13.2751C20.4941 13.1762 20.5739 13.0967 20.6724 13.0967C20.7708 13.0966 20.8506 13.1763 20.8507 13.2747V13.2751C20.8507 13.3736 20.7709 13.4534 20.6724 13.4535C20.5739 13.4534 20.4941 13.3736 20.4941 13.2751ZM20.6724 13.4106C20.7472 13.4107 20.8079 13.35 20.8079 13.2752V13.2752C20.808 13.2003 20.7473 13.1396 20.6725 13.1395H20.6724C20.5975 13.1396 20.5368 13.2003 20.5367 13.2752C20.5368 13.35 20.5975 13.4106 20.6724 13.4106ZM20.6483 13.3531H20.6117V13.1967H20.678C20.6917 13.1967 20.7059 13.1969 20.7179 13.2045C20.7307 13.2132 20.738 13.2281 20.738 13.2437C20.738 13.2614 20.7276 13.2779 20.7107 13.2842L20.7396 13.353H20.699L20.675 13.2912H20.6483V13.353V13.3531ZM20.6483 13.2645H20.6684C20.6759 13.2645 20.6842 13.265 20.6908 13.2614C20.6968 13.2576 20.6999 13.2503 20.6999 13.2434C20.6996 13.2369 20.6964 13.2309 20.6911 13.2272C20.6848 13.2236 20.6744 13.2246 20.6676 13.2246H20.6482L20.6483 13.2645Z" fill="white"/>
</g>
<defs>
<clipPath id="clip0_697_27893">
<rect width="24" height="24" fill="white"/>
</clipPath>
</defs>
</svg>
