<svg width="157" height="48" viewBox="0 0 157 48" fill="none" xmlns="http://www.w3.org/2000/svg">
<g clip-path="url(#clip0_1034_8532)">
<path d="M14.0627 11.3774C15.2109 13.8228 16.4498 16.4693 17.6627 18.811H50.8411C51.133 16.7547 51.4055 13.9201 51.613 11.3774H14.0627Z" fill="#FFBA3B"/>
<path d="M51.9881 4.37842H11.6746C12.1286 5.26058 12.6151 6.27247 13.134 7.3622H51.774C51.8908 6.16869 51.9362 5.11788 51.9881 4.37842Z" fill="#E07A15"/>
<path d="M22.702 26.4455C26.3344 27.3731 49.2966 23.9417 50.2307 22.3979C50.3561 22.1457 50.4457 21.8772 50.4966 21.6001H18.7388C20.2112 24.2336 21.6058 26.1731 22.702 26.4455Z" fill="#FFEFB8"/>
<path d="M59.415 0.992432C56.1069 0.992432 54.9069 4.79351 54.3361 9.37297H11.6161C8.63879 4.13189 5.3242 0 0.997713 0C0.745846 0.0202795 0.51085 0.134654 0.339496 0.320358C0.168143 0.506063 0.072998 0.74948 0.072998 1.00216C0.072998 1.25484 0.168143 1.49826 0.339496 1.68397C0.51085 1.86967 0.745846 1.98404 0.997713 2.00432C4.07879 2.00432 6.83555 5.21514 9.28744 9.37297H8.91771C8.66585 9.39325 8.43085 9.50763 8.2595 9.69333C8.08814 9.87904 7.993 10.1225 7.993 10.3751C7.993 10.6278 8.08814 10.8712 8.2595 11.0569C8.43085 11.2426 8.66585 11.357 8.91771 11.3773H10.4291C11.4539 13.2389 12.4334 15.2043 13.3739 17.1049C13.6593 17.6822 13.9447 18.253 14.2301 18.8108H13.8734C13.735 18.7997 13.5958 18.8173 13.4646 18.8626C13.3334 18.9079 13.2129 18.9799 13.1109 19.0741C13.0089 19.1682 12.9274 19.2825 12.8717 19.4096C12.816 19.5368 12.7873 19.6741 12.7873 19.813C12.7873 19.9518 12.816 20.0891 12.8717 20.2163C12.9274 20.3435 13.0089 20.4577 13.1109 20.5519C13.2129 20.646 13.3334 20.718 13.4646 20.7633C13.5958 20.8086 13.735 20.8263 13.8734 20.8151H15.2485C18.0896 26.3092 20.8139 30.5449 24.3685 30.5449C30.5307 30.5449 43.4064 28.8649 50.1329 26.653C45.1902 30.8562 35.4864 32.7632 27.8907 34.2551C20.535 35.6757 16.9804 36.4865 16.6172 38.5881C16.5596 38.8952 16.5742 39.2116 16.6597 39.5121C16.7452 39.8127 16.8995 40.0892 17.1101 40.32C18.2518 41.6173 21.1772 41.8184 22.9026 41.8184V43.0313C22.324 43.2641 21.8444 43.691 21.5462 44.2387C21.248 44.7864 21.1498 45.4209 21.2683 46.0331C21.3868 46.6454 21.7148 47.1974 22.1958 47.5942C22.6769 47.9911 23.2811 48.2082 23.9047 48.2082C24.5284 48.2082 25.1326 47.9911 25.6137 47.5942C26.0947 47.1974 26.4227 46.6454 26.5412 46.0331C26.6597 45.4209 26.5615 44.7864 26.2633 44.2387C25.965 43.691 25.4855 43.2641 24.9069 43.0313V41.7924H46.9934V43.0313C46.4148 43.2641 45.9353 43.691 45.637 44.2387C45.3388 44.7864 45.2406 45.4209 45.3591 46.0331C45.4776 46.6454 45.8056 47.1974 46.2866 47.5942C46.7677 47.9911 47.3719 48.2082 47.9956 48.2082C48.6192 48.2082 49.2234 47.9911 49.7045 47.5942C50.1856 47.1974 50.5135 46.6454 50.632 46.0331C50.7505 45.4209 50.6523 44.7864 50.3541 44.2387C50.0559 43.691 49.5763 43.2641 48.9977 43.0313V41.7924H54.2258C54.3642 41.8036 54.5034 41.7859 54.6346 41.7406C54.7659 41.6953 54.8863 41.6233 54.9883 41.5292C55.0904 41.435 55.1718 41.3208 55.2275 41.1936C55.2832 41.0664 55.3119 40.9291 55.3119 40.7903C55.3119 40.6514 55.2832 40.5141 55.2275 40.3869C55.1718 40.2598 55.0904 40.1455 54.9883 40.0514C54.8863 39.9572 54.7659 39.8852 54.6346 39.8399C54.5034 39.7946 54.3642 39.777 54.2258 39.7881H23.8561C21.1966 39.9178 18.7966 39.4314 18.5826 38.9514C19.0366 38.0303 24.375 37.0054 28.2734 36.2141C38.9177 34.1319 53.4345 31.2714 55.1664 22.0086C55.1633 21.9546 55.1633 21.9005 55.1664 21.8465V21.7557C55.2248 21.4703 55.2766 21.1589 55.322 20.8346H56.1977C56.4496 20.8143 56.6846 20.6999 56.8559 20.5142C57.0273 20.3285 57.1224 20.0851 57.1224 19.8324C57.1224 19.5798 57.0273 19.3363 56.8559 19.1506C56.6846 18.9649 56.4496 18.8506 56.1977 18.8303H55.5491C55.6399 17.7795 55.7242 16.6054 55.802 15.3016C55.8799 13.9978 55.9707 12.707 56.0875 11.4097H56.788C56.9264 11.4209 57.0656 11.4032 57.1968 11.3579C57.328 11.3126 57.4485 11.2406 57.5505 11.1465C57.6525 11.0523 57.7339 10.9381 57.7896 10.8109C57.8453 10.6837 57.8741 10.5464 57.8741 10.4076C57.8741 10.2687 57.8453 10.1314 57.7896 10.0042C57.7339 9.87707 57.6525 9.76281 57.5505 9.66866C57.4485 9.57451 57.328 9.50252 57.1968 9.45721C57.0656 9.4119 56.9264 9.39426 56.788 9.40541H56.308C56.7556 5.94162 57.6053 3.0227 59.3631 3.0227C59.4943 3.0227 59.6242 2.99687 59.7454 2.94666C59.8666 2.89646 59.9767 2.82288 60.0695 2.73013C60.1622 2.63737 60.2358 2.52725 60.286 2.40605C60.3362 2.28486 60.362 2.15496 60.362 2.02378C60.362 1.8926 60.3362 1.76271 60.286 1.64151C60.2358 1.52032 60.1622 1.4102 60.0695 1.31744C59.9767 1.22468 59.8666 1.1511 59.7454 1.1009C59.6242 1.0507 59.4943 1.02486 59.3631 1.02486L59.415 0.992432ZM17.5123 20.8151H53.3502C53.3047 21.0681 53.2658 21.3016 53.2204 21.5286C53.2204 21.613 53.2204 21.6973 53.1685 21.7816C53.0927 22.3177 52.8879 22.8274 52.5718 23.267C50.2496 25.5827 33.0799 28.5405 24.3685 28.5405C22.0529 28.5405 19.7761 25.0638 17.5123 20.8151ZM53.8366 15.1524C53.7653 16.333 53.681 17.6173 53.5707 18.8108H16.4745C16.0334 17.9546 15.5988 17.0789 15.1772 16.2162C14.3664 14.5946 13.5491 12.973 12.7188 11.3838H54.1285C54.0183 12.6292 53.9404 13.907 53.8366 15.1524Z" fill="#212121"/>
<path d="M90.1615 20.2173H85.2365L80.4865 10.3673L78.7365 20.2173H73.8115L76.9365 2.59228H81.8365L86.6115 12.5673L88.3615 2.59228H93.2615L90.1615 20.2173ZM101.778 6.01728C103.611 6.01728 105.061 6.50895 106.128 7.49229C107.211 8.47562 107.753 9.81728 107.753 11.5173C107.753 12.084 107.711 12.584 107.628 13.0173C107.528 13.5506 107.428 13.934 107.328 14.1673H98.0527C98.0361 14.2673 98.0277 14.4173 98.0277 14.6173C98.0277 15.2506 98.1777 15.7173 98.4777 16.0173C98.7944 16.3173 99.2111 16.4673 99.7277 16.4673C100.544 16.4673 101.194 16.1006 101.678 15.3673H106.878C106.494 16.334 105.919 17.2006 105.153 17.9673C104.403 18.7173 103.511 19.309 102.478 19.7423C101.461 20.1756 100.378 20.3923 99.2277 20.3923C97.3944 20.3923 95.9361 19.8923 94.8527 18.8923C93.7694 17.8923 93.2277 16.5173 93.2277 14.7673C93.2277 14.2673 93.2777 13.7423 93.3777 13.1923C93.6444 11.7256 94.1694 10.459 94.9527 9.39228C95.7527 8.30895 96.7361 7.47562 97.9027 6.89228C99.0861 6.30895 100.378 6.01728 101.778 6.01728ZM102.803 11.9673C102.836 11.734 102.853 11.584 102.853 11.5173C102.853 10.984 102.686 10.584 102.353 10.3173C102.019 10.034 101.586 9.89228 101.053 9.89228C100.436 9.89228 99.9027 10.0673 99.4527 10.4173C99.0027 10.7673 98.6694 11.284 98.4527 11.9673H102.803ZM115.383 8.14228C115.883 7.49228 116.516 6.97562 117.283 6.59228C118.05 6.20895 118.908 6.01728 119.858 6.01728C121.325 6.01728 122.5 6.50062 123.383 7.46728C124.283 8.43395 124.733 9.75895 124.733 11.4423C124.733 11.9756 124.683 12.559 124.583 13.1923C124.316 14.6423 123.825 15.9173 123.108 17.0173C122.391 18.1006 121.525 18.934 120.508 19.5173C119.508 20.1006 118.45 20.3923 117.333 20.3923C116.383 20.3923 115.591 20.2006 114.958 19.8173C114.341 19.434 113.891 18.9173 113.608 18.2673L112.083 26.9173H107.183L110.833 6.19228H115.733L115.383 8.14228ZM119.583 13.1923C119.633 12.9423 119.658 12.7006 119.658 12.4673C119.658 11.784 119.458 11.2506 119.058 10.8673C118.675 10.484 118.175 10.2923 117.558 10.2923C116.841 10.2923 116.183 10.5506 115.583 11.0673C115 11.584 114.633 12.2923 114.483 13.1923C114.433 13.4423 114.408 13.6756 114.408 13.8923C114.408 14.5923 114.6 15.1423 114.983 15.5423C115.383 15.9256 115.891 16.1173 116.508 16.1173C117.241 16.1173 117.9 15.859 118.483 15.3423C119.066 14.809 119.433 14.0923 119.583 13.1923ZM125.775 13.1923C126.042 11.7423 126.534 10.4756 127.25 9.39228C127.967 8.30895 128.825 7.47562 129.825 6.89228C130.842 6.30895 131.909 6.01728 133.025 6.01728C133.992 6.01728 134.792 6.20895 135.425 6.59228C136.059 6.97562 136.5 7.49228 136.75 8.14228L137.1 6.19228H142L139.525 20.2173H134.625L134.975 18.2673C134.492 18.9173 133.859 19.434 133.075 19.8173C132.292 20.2006 131.425 20.3923 130.475 20.3923C129.009 20.3923 127.834 19.909 126.95 18.9423C126.067 17.959 125.625 16.6256 125.625 14.9423C125.625 14.3923 125.675 13.809 125.775 13.1923ZM135.875 13.1923C135.925 12.9423 135.95 12.709 135.95 12.4923C135.95 11.7923 135.75 11.2506 135.35 10.8673C134.967 10.484 134.467 10.2923 133.85 10.2923C133.117 10.2923 132.459 10.5506 131.875 11.0673C131.292 11.5673 130.925 12.2756 130.775 13.1923C130.725 13.4423 130.7 13.684 130.7 13.9173C130.7 14.6173 130.892 15.159 131.275 15.5423C131.675 15.9256 132.184 16.1173 132.8 16.1173C133.534 16.1173 134.192 15.859 134.775 15.3423C135.359 14.8256 135.725 14.109 135.875 13.1923ZM150.517 1.71728L147.242 20.2173H142.317L145.592 1.71728H150.517Z" fill="#434043"/>
<path d="M81.6935 33.4972V34.7552H76.5425V38.7502H80.7245V40.0082H76.5425V45.3462H74.9955V33.4972H81.6935ZM91.8239 36.0302V45.3462H90.2769V43.9692C89.9823 44.4452 89.5686 44.8192 89.0359 45.0912C88.5146 45.3519 87.9366 45.4822 87.3019 45.4822C86.5766 45.4822 85.9249 45.3349 85.3469 45.0402C84.7689 44.7342 84.3099 44.2809 83.9699 43.6802C83.6413 43.0795 83.4769 42.3485 83.4769 41.4872V36.0302H85.0069V41.2832C85.0069 42.2012 85.2393 42.9095 85.7039 43.4082C86.1686 43.8955 86.8033 44.1392 87.6079 44.1392C88.4353 44.1392 89.0869 43.8842 89.5629 43.3742C90.0389 42.8642 90.2769 42.1219 90.2769 41.1472V36.0302H91.8239ZM95.983 37.5432C96.255 37.0105 96.6403 36.5969 97.139 36.3022C97.649 36.0075 98.2666 35.8602 98.992 35.8602V37.4582H98.584C96.85 37.4582 95.983 38.3989 95.983 40.2802V45.3462H94.436V36.0302H95.983V37.5432ZM105.317 35.8602C106.45 35.8602 107.368 36.2059 108.071 36.8972C108.773 37.5772 109.125 38.5632 109.125 39.8552V45.3462H107.595V40.0762C107.595 39.1469 107.362 38.4385 106.898 37.9512C106.433 37.4525 105.798 37.2032 104.994 37.2032C104.178 37.2032 103.526 37.4582 103.039 37.9682C102.563 38.4782 102.325 39.2205 102.325 40.1952V45.3462H100.778V36.0302H102.325V37.3562C102.631 36.8802 103.044 36.5119 103.566 36.2512C104.098 35.9905 104.682 35.8602 105.317 35.8602ZM112.451 34.5172C112.156 34.5172 111.907 34.4152 111.703 34.2112C111.499 34.0072 111.397 33.7579 111.397 33.4632C111.397 33.1685 111.499 32.9192 111.703 32.7152C111.907 32.5112 112.156 32.4092 112.451 32.4092C112.734 32.4092 112.972 32.5112 113.165 32.7152C113.369 32.9192 113.471 33.1685 113.471 33.4632C113.471 33.7579 113.369 34.0072 113.165 34.2112C112.972 34.4152 112.734 34.5172 112.451 34.5172ZM113.199 36.0302V45.3462H111.652V36.0302H113.199ZM123.128 33.4972V34.7552H119.898V45.3462H118.351V34.7552H115.104V33.4972H123.128ZM133.533 40.3312C133.533 40.6259 133.516 40.9375 133.482 41.2662H126.036C126.092 42.1842 126.404 42.9039 126.971 43.4252C127.549 43.9352 128.246 44.1902 129.062 44.1902C129.73 44.1902 130.286 44.0372 130.728 43.7312C131.181 43.4139 131.498 42.9945 131.68 42.4732H133.346C133.096 43.3685 132.598 44.0995 131.85 44.6662C131.102 45.2215 130.172 45.4992 129.062 45.4992C128.178 45.4992 127.384 45.3009 126.682 44.9042C125.99 44.5075 125.446 43.9465 125.05 43.2212C124.653 42.4845 124.455 41.6345 124.455 40.6712C124.455 39.7079 124.647 38.8635 125.033 38.1382C125.418 37.4129 125.956 36.8575 126.648 36.4722C127.35 36.0755 128.155 35.8772 129.062 35.8772C129.946 35.8772 130.728 36.0699 131.408 36.4552C132.088 36.8405 132.609 37.3732 132.972 38.0532C133.346 38.7219 133.533 39.4812 133.533 40.3312ZM131.935 40.0082C131.935 39.4189 131.804 38.9145 131.544 38.4952C131.283 38.0645 130.926 37.7415 130.473 37.5262C130.031 37.2995 129.538 37.1862 128.994 37.1862C128.212 37.1862 127.543 37.4355 126.988 37.9342C126.444 38.4329 126.132 39.1242 126.053 40.0082H131.935ZM134.997 40.6712C134.997 39.7079 135.189 38.8692 135.575 38.1552C135.96 37.4299 136.493 36.8689 137.173 36.4722C137.864 36.0755 138.652 35.8772 139.536 35.8772C140.68 35.8772 141.621 36.1549 142.358 36.7102C143.106 37.2655 143.599 38.0362 143.837 39.0222H142.171C142.012 38.4555 141.7 38.0079 141.236 37.6792C140.782 37.3505 140.216 37.1862 139.536 37.1862C138.652 37.1862 137.938 37.4922 137.394 38.1042C136.85 38.7049 136.578 39.5605 136.578 40.6712C136.578 41.7932 136.85 42.6602 137.394 43.2722C137.938 43.8842 138.652 44.1902 139.536 44.1902C140.216 44.1902 140.782 44.0315 141.236 43.7142C141.689 43.3969 142.001 42.9435 142.171 42.3542H143.837C143.587 43.3062 143.089 44.0712 142.341 44.6492C141.593 45.2159 140.658 45.4992 139.536 45.4992C138.652 45.4992 137.864 45.3009 137.173 44.9042C136.493 44.5075 135.96 43.9465 135.575 43.2212C135.189 42.4959 134.997 41.6459 134.997 40.6712ZM150.525 35.8602C151.227 35.8602 151.862 36.0132 152.429 36.3192C152.995 36.6139 153.437 37.0615 153.755 37.6622C154.083 38.2629 154.248 38.9939 154.248 39.8552V45.3462H152.718V40.0762C152.718 39.1469 152.485 38.4385 152.021 37.9512C151.556 37.4525 150.921 37.2032 150.117 37.2032C149.301 37.2032 148.649 37.4582 148.162 37.9682C147.686 38.4782 147.448 39.2205 147.448 40.1952V45.3462H145.901V32.7662H147.448V37.3562C147.754 36.8802 148.173 36.5119 148.706 36.2512C149.25 35.9905 149.856 35.8602 150.525 35.8602Z" fill="#E07A15"/>
<path d="M66 4L66 43" stroke="#8B8B8B" stroke-width="0.499459" stroke-linecap="round" stroke-linejoin="round"/>
</g>
<defs>
<clipPath id="clip0_1034_8532">
<rect width="156.973" height="48" fill="white"/>
</clipPath>
</defs>
</svg>
