<svg width="1440" height="726" viewBox="0 0 1440 726" fill="none" xmlns="http://www.w3.org/2000/svg">
<g clip-path="url(#clip0_1794_22297)">
<mask id="mask0_1794_22297" style="mask-type:luminance" maskUnits="userSpaceOnUse" x="-31" y="21" width="167" height="167">
<path d="M69.1137 24.2041C113.46 33.3796 141.971 76.7673 132.795 121.113C123.62 165.459 80.2321 193.97 35.8863 184.795C-8.45963 175.619 -36.9708 132.232 -27.7953 87.8857C-18.6198 43.5398 24.7679 15.0286 69.1137 24.2041Z" fill="white" stroke="white"/>
</mask>
<g mask="url(#mask0_1794_22297)">
<path d="M0.70105 -10.8467L173.703 80.331" stroke="#FFBA3B" stroke-width="1.58" stroke-miterlimit="10"/>
<path d="M-3.86615 -2.91992L169.136 88.2578" stroke="#FFBA3B" stroke-width="1.58" stroke-miterlimit="10"/>
<path d="M-8.43335 5.00781L164.568 96.1855" stroke="#FFBA3B" stroke-width="1.58" stroke-miterlimit="10"/>
<path d="M-13.0006 12.9355L160.001 104.113" stroke="#FFBA3B" stroke-width="1.58" stroke-miterlimit="10"/>
<path d="M-17.5676 20.8623L155.434 112.04" stroke="#FFBA3B" stroke-width="1.58" stroke-miterlimit="10"/>
<path d="M-22.1348 28.79L150.867 119.968" stroke="#FFBA3B" stroke-width="1.58" stroke-miterlimit="10"/>
<path d="M-26.7017 36.7178L146.3 127.895" stroke="#FFBA3B" stroke-width="1.58" stroke-miterlimit="10"/>
<path d="M-31.2689 44.6309L141.733 135.822" stroke="#FFBA3B" stroke-width="1.58" stroke-miterlimit="10"/>
<path d="M-35.8361 52.5576L137.166 143.735" stroke="#FFBA3B" stroke-width="1.58" stroke-miterlimit="10"/>
<path d="M-40.4033 60.4854L132.598 151.663" stroke="#FFBA3B" stroke-width="1.58" stroke-miterlimit="10"/>
<path d="M-44.9701 68.4131L128.032 159.591" stroke="#FFBA3B" stroke-width="1.58" stroke-miterlimit="10"/>
<path d="M-49.5374 76.3398L123.464 167.518" stroke="#FFBA3B" stroke-width="1.58" stroke-miterlimit="10"/>
<path d="M-54.1046 84.2676L118.897 175.445" stroke="#FFBA3B" stroke-width="1.58" stroke-miterlimit="10"/>
<path d="M-58.6716 92.1943L114.33 183.372" stroke="#FFBA3B" stroke-width="1.58" stroke-miterlimit="10"/>
<path d="M-63.2388 100.122L109.763 191.3" stroke="#FFBA3B" stroke-width="1.58" stroke-miterlimit="10"/>
<path d="M-67.8196 108.049L105.196 199.227" stroke="#FFBA3B" stroke-width="1.58" stroke-miterlimit="10"/>
<path d="M-72.3867 115.977L100.629 207.154" stroke="#FFBA3B" stroke-width="1.58" stroke-miterlimit="10"/>
<path d="M-76.9539 123.903L96.0616 215.081" stroke="#FFBA3B" stroke-width="1.58" stroke-miterlimit="10"/>
</g>
<mask id="mask1_1794_22297" style="mask-type:luminance" maskUnits="userSpaceOnUse" x="111" y="490" width="102" height="102">
<path d="M172.185 491.776C199.371 497.401 216.849 523.999 211.224 551.185C205.599 578.371 179.001 595.849 151.815 590.224C124.629 584.599 107.151 558.001 112.776 530.815C118.401 503.629 144.999 486.151 172.185 491.776Z" fill="white" stroke="white"/>
</mask>
<g mask="url(#mask1_1794_22297)">
<path d="M130.124 470.018L236.586 526.127" stroke="#FFEFB8" stroke-width="1.58" stroke-miterlimit="10"/>
<path d="M127.313 474.896L233.776 531.005" stroke="#FFEFB8" stroke-width="1.58" stroke-miterlimit="10"/>
<path d="M124.502 479.774L230.965 535.884" stroke="#FFEFB8" stroke-width="1.58" stroke-miterlimit="10"/>
<path d="M121.692 484.652L228.154 540.762" stroke="#FFEFB8" stroke-width="1.58" stroke-miterlimit="10"/>
<path d="M118.881 489.531L225.344 545.641" stroke="#FFEFB8" stroke-width="1.58" stroke-miterlimit="10"/>
<path d="M116.071 494.409L222.533 550.519" stroke="#FFEFB8" stroke-width="1.58" stroke-miterlimit="10"/>
<path d="M113.26 499.287L219.723 555.396" stroke="#FFEFB8" stroke-width="1.58" stroke-miterlimit="10"/>
<path d="M110.45 504.157L216.912 560.275" stroke="#FFEFB8" stroke-width="1.58" stroke-miterlimit="10"/>
<path d="M107.639 509.036L214.102 565.145" stroke="#FFEFB8" stroke-width="1.58" stroke-miterlimit="10"/>
<path d="M104.829 513.914L211.291 570.023" stroke="#FFEFB8" stroke-width="1.58" stroke-miterlimit="10"/>
<path d="M102.018 518.792L208.481 574.901" stroke="#FFEFB8" stroke-width="1.58" stroke-miterlimit="10"/>
<path d="M99.2076 523.671L205.67 579.78" stroke="#FFEFB8" stroke-width="1.58" stroke-miterlimit="10"/>
<path d="M96.3971 528.549L202.86 584.658" stroke="#FFEFB8" stroke-width="1.58" stroke-miterlimit="10"/>
<path d="M93.5865 533.428L200.049 589.537" stroke="#FFEFB8" stroke-width="1.58" stroke-miterlimit="10"/>
<path d="M90.776 538.306L197.239 594.415" stroke="#FFEFB8" stroke-width="1.58" stroke-miterlimit="10"/>
<path d="M87.957 543.184L194.428 599.293" stroke="#FFEFB8" stroke-width="1.58" stroke-miterlimit="10"/>
<path d="M85.1465 548.062L191.617 604.172" stroke="#FFEFB8" stroke-width="1.58" stroke-miterlimit="10"/>
<path d="M82.3359 552.94L188.807 609.05" stroke="#FFEFB8" stroke-width="1.58" stroke-miterlimit="10"/>
</g>
<mask id="mask2_1794_22297" style="mask-type:luminance" maskUnits="userSpaceOnUse" x="1368" y="0" width="96" height="96">
<path d="M1425.5 2.08977C1450.85 7.336 1467.16 32.1435 1461.91 57.4988C1456.66 82.8542 1431.86 99.1559 1406.5 93.9096C1381.15 88.6634 1364.84 63.8559 1370.09 38.5006C1375.34 13.1452 1400.14 -3.15645 1425.5 2.08977Z" fill="white" stroke="white"/>
</mask>
<g mask="url(#mask2_1794_22297)">
<path d="M1386.25 -18.25L1485.61 34.1187" stroke="#E07A15" stroke-width="1.58" stroke-miterlimit="10"/>
<path d="M1383.63 -13.6973L1482.99 38.6715" stroke="#E07A15" stroke-width="1.58" stroke-miterlimit="10"/>
<path d="M1381 -9.14355L1480.37 43.2252" stroke="#E07A15" stroke-width="1.58" stroke-miterlimit="10"/>
<path d="M1378.38 -4.59082L1477.74 47.7779" stroke="#E07A15" stroke-width="1.58" stroke-miterlimit="10"/>
<path d="M1375.76 -0.0371094L1475.12 52.3316" stroke="#E07A15" stroke-width="1.58" stroke-miterlimit="10"/>
<path d="M1373.13 4.51562L1472.5 56.8844" stroke="#E07A15" stroke-width="1.58" stroke-miterlimit="10"/>
<path d="M1370.51 9.06934L1469.87 61.4381" stroke="#E07A15" stroke-width="1.58" stroke-miterlimit="10"/>
<path d="M1367.89 13.6143L1467.25 65.9909" stroke="#E07A15" stroke-width="1.58" stroke-miterlimit="10"/>
<path d="M1365.26 18.167L1464.63 70.5357" stroke="#E07A15" stroke-width="1.58" stroke-miterlimit="10"/>
<path d="M1362.64 22.7207L1462.01 75.0894" stroke="#E07A15" stroke-width="1.58" stroke-miterlimit="10"/>
<path d="M1360.02 27.2734L1459.38 79.6422" stroke="#E07A15" stroke-width="1.58" stroke-miterlimit="10"/>
<path d="M1357.39 31.8262L1456.76 84.1949" stroke="#E07A15" stroke-width="1.58" stroke-miterlimit="10"/>
<path d="M1354.77 36.3799L1454.14 88.7486" stroke="#E07A15" stroke-width="1.58" stroke-miterlimit="10"/>
<path d="M1352.15 40.9326L1451.51 93.3013" stroke="#E07A15" stroke-width="1.58" stroke-miterlimit="10"/>
<path d="M1349.52 45.4863L1448.89 97.855" stroke="#E07A15" stroke-width="1.58" stroke-miterlimit="10"/>
<path d="M1346.89 50.0391L1446.27 102.408" stroke="#E07A15" stroke-width="1.58" stroke-miterlimit="10"/>
<path d="M1344.27 54.5928L1443.64 106.961" stroke="#E07A15" stroke-width="1.58" stroke-miterlimit="10"/>
<path d="M1341.65 59.1455L1441.02 111.514" stroke="#E07A15" stroke-width="1.58" stroke-miterlimit="10"/>
</g>
<mask id="mask3_1794_22297" style="mask-type:luminance" maskUnits="userSpaceOnUse" x="1225" y="632" width="96" height="96">
<path d="M1282.5 634.09C1307.85 639.336 1324.16 664.143 1318.91 689.499C1313.66 714.854 1288.86 731.156 1263.5 725.91C1238.15 720.663 1221.84 695.856 1227.09 670.501C1232.34 645.145 1257.14 628.844 1282.5 634.09Z" fill="white" stroke="white"/>
</mask>
<g mask="url(#mask3_1794_22297)">
<path d="M1243.25 613.75L1342.61 666.119" stroke="#3E7742" stroke-width="1.58" stroke-miterlimit="10"/>
<path d="M1240.63 618.303L1339.99 670.671" stroke="#3E7742" stroke-width="1.58" stroke-miterlimit="10"/>
<path d="M1238 622.856L1337.37 675.225" stroke="#3E7742" stroke-width="1.58" stroke-miterlimit="10"/>
<path d="M1235.38 627.409L1334.74 679.778" stroke="#3E7742" stroke-width="1.58" stroke-miterlimit="10"/>
<path d="M1232.76 631.963L1332.12 684.332" stroke="#3E7742" stroke-width="1.58" stroke-miterlimit="10"/>
<path d="M1230.13 636.516L1329.5 688.884" stroke="#3E7742" stroke-width="1.58" stroke-miterlimit="10"/>
<path d="M1227.51 641.069L1326.87 693.438" stroke="#3E7742" stroke-width="1.58" stroke-miterlimit="10"/>
<path d="M1224.89 645.614L1324.25 697.991" stroke="#3E7742" stroke-width="1.58" stroke-miterlimit="10"/>
<path d="M1222.26 650.167L1321.63 702.536" stroke="#3E7742" stroke-width="1.58" stroke-miterlimit="10"/>
<path d="M1219.64 654.721L1319.01 707.089" stroke="#3E7742" stroke-width="1.58" stroke-miterlimit="10"/>
<path d="M1217.02 659.273L1316.38 711.642" stroke="#3E7742" stroke-width="1.58" stroke-miterlimit="10"/>
<path d="M1214.39 663.826L1313.76 716.195" stroke="#3E7742" stroke-width="1.58" stroke-miterlimit="10"/>
<path d="M1211.77 668.38L1311.14 720.749" stroke="#3E7742" stroke-width="1.58" stroke-miterlimit="10"/>
<path d="M1209.15 672.933L1308.51 725.301" stroke="#3E7742" stroke-width="1.58" stroke-miterlimit="10"/>
<path d="M1206.52 677.486L1305.89 729.855" stroke="#3E7742" stroke-width="1.58" stroke-miterlimit="10"/>
<path d="M1203.89 682.039L1303.27 734.408" stroke="#3E7742" stroke-width="1.58" stroke-miterlimit="10"/>
<path d="M1201.27 686.593L1300.64 738.961" stroke="#3E7742" stroke-width="1.58" stroke-miterlimit="10"/>
<path d="M1198.65 691.146L1298.02 743.514" stroke="#3E7742" stroke-width="1.58" stroke-miterlimit="10"/>
</g>
<path opacity="0.45" d="M1310.58 301.477C1311.94 277.419 1293.54 256.816 1269.48 255.458C1245.42 254.1 1224.82 272.502 1223.46 296.56C1222.1 320.618 1240.5 341.222 1264.56 342.579C1288.62 343.937 1309.22 325.535 1310.58 301.477Z" fill="#FFBA3B"/>
</g>
<defs>
<clipPath id="clip0_1794_22297">
<rect width="1440" height="726" fill="white"/>
</clipPath>
</defs>
</svg>
