<svg width="450" height="216" viewBox="0 0 450 216" fill="none" xmlns="http://www.w3.org/2000/svg">
<g filter="url(#filter0_i_797_16944)">
<path d="M255.39 101.165C256.948 90.5957 257.193 81.4802 256.126 73.8186C255.238 66.1834 253.101 60.1943 249.715 55.8514C246.354 51.3294 241.898 48.659 236.344 47.8404C230.791 47.0217 225.753 48.2925 221.231 51.6526C216.915 54.86 213.23 59.9908 210.177 67.0451C207.123 74.0993 204.818 82.9111 203.26 93.4804C200.777 110.32 201.168 123.189 204.432 132.09C207.722 140.812 213.487 145.78 221.728 146.994C230.147 148.236 237.191 145.156 242.857 137.754C248.73 130.201 252.907 118.004 255.39 101.165ZM216.649 183.31C202.497 181.224 190.432 176.151 180.455 168.091C170.658 160.057 163.651 149.232 159.435 135.615C155.219 121.998 154.511 105.696 157.31 86.7068C160.03 68.2554 165.373 53.1191 173.339 41.298C181.304 29.4769 191.15 21.0445 202.875 16.0008C214.78 10.9835 227.809 9.51793 241.961 11.6041C255.934 13.6639 267.806 18.8001 277.577 27.0128C287.528 35.2518 294.611 46.1797 298.827 59.7965C303.222 73.4398 304.059 89.4871 301.339 107.939C298.54 126.927 293.068 142.319 284.923 154.114C276.957 165.935 267.035 174.265 255.157 179.103C243.458 183.967 230.622 185.37 216.649 183.31Z" fill="#E07A15"/>
</g>
<path d="M148.961 70.6029C148.884 69.9068 149.528 69.3491 150.206 69.5247L300.724 108.505C301.2 108.628 301.516 109.079 301.469 109.568L294.89 178.372C294.731 180.126 293.92 181.757 292.618 182.943C291.315 184.128 289.616 184.783 287.855 184.778H167.955C166.213 184.779 164.531 184.136 163.233 182.973C161.935 181.811 161.111 180.21 160.92 178.478L148.961 70.6029ZM146.856 65.6596C146.178 65.484 145.534 66.0418 145.611 66.7379L158.035 178.797C158.305 181.239 159.466 183.496 161.297 185.135C163.127 186.774 165.498 187.68 167.955 187.679H287.847C290.329 187.678 292.722 186.753 294.559 185.084C296.396 183.414 297.545 181.12 297.783 178.65L304.598 107.378C304.645 106.889 304.33 106.438 303.854 106.315L146.856 65.6596Z" fill="#595959"/>
<path d="M146.677 69.7385L131.803 66.4415C131.561 66.388 131.333 66.2844 131.132 66.1367C130.931 65.989 130.76 65.8001 130.629 65.5807C130.499 65.3614 130.411 65.116 130.371 64.8585C130.332 64.601 130.341 64.3365 130.398 64.0801C130.455 63.8238 130.559 63.5806 130.703 63.3644C130.848 63.1481 131.031 62.9631 131.242 62.8197C131.453 62.6764 131.688 62.5776 131.932 62.5289C132.177 62.4803 132.427 62.4828 132.669 62.5363L147.542 65.8333C147.784 65.8868 148.011 65.9903 148.213 66.1377C148.414 66.2852 148.585 66.4739 148.715 66.6929C148.846 66.9119 148.934 67.157 148.973 67.4142C149.013 67.6714 149.005 67.9356 148.948 68.1919C148.891 68.4484 148.788 68.692 148.643 68.9086C148.498 69.1252 148.315 69.3107 148.104 69.4543C147.893 69.598 147.659 69.697 147.414 69.7458C147.169 69.7945 146.918 69.7921 146.677 69.7385Z" fill="#595959"/>
<path d="M180.041 215.389C188.236 215.389 194.88 208.745 194.88 200.549C194.88 192.354 188.236 185.71 180.041 185.71C171.845 185.71 165.201 192.354 165.201 200.549C165.201 208.745 171.845 215.389 180.041 215.389Z" fill="#212121"/>
<g style="mix-blend-mode:multiply" opacity="0.6">
<path d="M185.245 207.404C189.023 204.528 189.754 199.134 186.878 195.357C184.003 191.579 178.609 190.848 174.832 193.724C171.054 196.599 170.323 201.993 173.198 205.771C176.074 209.548 181.468 210.279 185.245 207.404Z" fill="#212121"/>
</g>
<path d="M180.041 204.66C182.311 204.66 184.151 202.82 184.151 200.55C184.151 198.28 182.311 196.439 180.041 196.439C177.771 196.439 175.931 198.28 175.931 200.55C175.931 202.82 177.771 204.66 180.041 204.66Z" fill="#454545"/>
<path d="M273.432 215.389C281.628 215.389 288.272 208.745 288.272 200.549C288.272 192.354 281.628 185.71 273.432 185.71C265.237 185.71 258.593 192.354 258.593 200.549C258.593 208.745 265.237 215.389 273.432 215.389Z" fill="#212121"/>
<g style="mix-blend-mode:multiply" opacity="0.6">
<path d="M279.507 206.629C282.864 203.272 282.864 197.829 279.507 194.472C276.15 191.115 270.707 191.115 267.35 194.472C263.993 197.829 263.993 203.272 267.35 206.629C270.707 209.986 276.15 209.986 279.507 206.629Z" fill="#212121"/>
</g>
<path d="M277.551 200.549C277.551 201.357 277.311 202.147 276.862 202.818C276.413 203.49 275.775 204.014 275.029 204.323C274.282 204.633 273.46 204.713 272.668 204.556C271.875 204.398 271.147 204.009 270.576 203.438C270.005 202.866 269.615 202.138 269.458 201.346C269.3 200.553 269.381 199.732 269.69 198.985C269.999 198.238 270.523 197.6 271.195 197.151C271.867 196.703 272.657 196.463 273.465 196.463C274.549 196.463 275.588 196.893 276.354 197.66C277.12 198.426 277.551 199.465 277.551 200.549Z" fill="#454545"/>
<path d="M166.362 72.6504L178.104 185.71" stroke="#595959" stroke-width="2.90902" stroke-miterlimit="10"/>
<path d="M186.488 77.5859L195.657 185.71" stroke="#595959" stroke-width="2.90902" stroke-miterlimit="10"/>
<path d="M206.614 82.5215L213.209 185.71" stroke="#595959" stroke-width="2.90902" stroke-miterlimit="10"/>
<path d="M226.741 87.4648L230.761 185.71" stroke="#595959" stroke-width="2.90902" stroke-miterlimit="10"/>
<path d="M246.859 92.4014L248.313 185.711" stroke="#595959" stroke-width="2.90902" stroke-miterlimit="10"/>
<path d="M266.985 97.3438L265.865 185.709" stroke="#595959" stroke-width="2.90902" stroke-miterlimit="10"/>
<path d="M287.111 102.28L283.418 185.71" stroke="#595959" stroke-width="2.90902" stroke-miterlimit="10"/>
<path d="M150.133 85.4395L303.585 117.978" stroke="#595959" stroke-width="2.90902" stroke-miterlimit="10"/>
<path d="M151.711 104.085L302.425 130.111" stroke="#595959" stroke-width="2.90902" stroke-miterlimit="10"/>
<path d="M153.296 122.725L301.264 142.246" stroke="#595959" stroke-width="2.90902" stroke-miterlimit="10"/>
<path d="M154.873 141.363L300.104 154.38" stroke="#595959" stroke-width="2.90902" stroke-miterlimit="10"/>
<path d="M156.45 160.011L298.943 166.515" stroke="#595959" stroke-width="2.90902" stroke-miterlimit="10"/>
<path d="M297.791 178.649H158.035" stroke="#595959" stroke-width="2.90902" stroke-miterlimit="10"/>
<g filter="url(#filter1_i_797_16944)">
<path d="M5.37836 134.21L61.3596 59.1607C64.4561 58.1829 68.0415 57.368 72.1158 56.7161C76.1902 56.0642 79.7756 55.7383 82.8721 55.7383C87.9242 55.7383 92.6505 56.3902 97.0507 57.6939C101.451 58.9977 105.036 61.2793 107.807 64.5388C110.74 67.7982 112.207 72.443 112.207 78.4729V143.499H131.52C132.497 145.129 133.475 147.492 134.453 150.588C135.431 153.522 135.92 156.618 135.92 159.878C135.92 165.908 134.535 170.308 131.764 173.078C128.993 175.686 125.49 176.99 121.252 176.99H112.207V205.836C110.577 206.162 107.888 206.569 104.14 207.058C100.555 207.71 97.1322 208.036 93.8728 208.036C86.8649 208.036 81.4053 207.14 77.494 205.347C73.5826 203.391 71.6269 198.502 71.6269 190.68V176.99H13.69C9.9416 175.034 6.68214 172.182 3.9116 168.434C1.30403 164.522 0.000244141 159.796 0.000244141 154.255C0.000244141 151.159 0.32619 147.736 0.978082 143.988C1.79295 140.077 3.25971 136.817 5.37836 134.21ZM73.8271 143.499V97.5407H73.0937L42.7807 143.499H73.8271Z" fill="#FFBA3B"/>
</g>
<g filter="url(#filter2_i_797_16944)">
<path d="M319.385 134.22L375.366 59.1714C378.463 58.1936 382.048 57.3787 386.123 56.7269C390.197 56.075 393.782 55.749 396.879 55.749C401.931 55.749 406.657 56.4009 411.058 57.7047C415.458 59.0085 419.043 61.2901 421.814 64.5495C424.747 67.809 426.214 72.4537 426.214 78.4837V143.51H445.526C446.504 145.139 447.482 147.503 448.46 150.599C449.438 153.533 449.927 156.629 449.927 159.888C449.927 165.918 448.541 170.319 445.771 173.089C443 175.697 439.496 177.001 435.259 177.001H426.214V205.847C424.584 206.173 421.895 206.58 418.147 207.069C414.561 207.721 411.139 208.047 407.88 208.047C400.872 208.047 395.412 207.151 391.501 205.358C387.589 203.402 385.634 198.513 385.634 190.69V177.001H327.697C323.948 175.045 320.689 172.193 317.918 168.445C315.311 164.533 314.007 159.807 314.007 154.266C314.007 151.169 314.333 147.747 314.985 143.999C315.8 140.087 317.267 136.828 319.385 134.22ZM387.834 143.51V97.5515H387.101L356.788 143.51H387.834Z" fill="#FFBA3B"/>
</g>
<defs>
<filter id="filter0_i_797_16944" x="155.635" y="10.6855" width="150.533" height="176.812" filterUnits="userSpaceOnUse" color-interpolation-filters="sRGB">
<feFlood flood-opacity="0" result="BackgroundImageFix"/>
<feBlend mode="normal" in="SourceGraphic" in2="BackgroundImageFix" result="shape"/>
<feColorMatrix in="SourceAlpha" type="matrix" values="0 0 0 0 0 0 0 0 0 0 0 0 0 0 0 0 0 0 127 0" result="hardAlpha"/>
<feOffset dx="9.8057" dy="6.53713"/>
<feGaussianBlur stdDeviation="1.63428"/>
<feComposite in2="hardAlpha" operator="arithmetic" k2="-1" k3="1"/>
<feColorMatrix type="matrix" values="0 0 0 0 0.742165 0 0 0 0 0.406296 0 0 0 0 0.0737205 0 0 0 1 0"/>
<feBlend mode="normal" in2="shape" result="effect1_innerShadow_797_16944"/>
</filter>
<filter id="filter1_i_797_16944" x="0.000244141" y="55.7383" width="138.371" height="153.115" filterUnits="userSpaceOnUse" color-interpolation-filters="sRGB">
<feFlood flood-opacity="0" result="BackgroundImageFix"/>
<feBlend mode="normal" in="SourceGraphic" in2="BackgroundImageFix" result="shape"/>
<feColorMatrix in="SourceAlpha" type="matrix" values="0 0 0 0 0 0 0 0 0 0 0 0 0 0 0 0 0 0 127 0" result="hardAlpha"/>
<feOffset dx="2.45143" dy="0.817142"/>
<feGaussianBlur stdDeviation="1.63428"/>
<feComposite in2="hardAlpha" operator="arithmetic" k2="-1" k3="1"/>
<feColorMatrix type="matrix" values="0 0 0 0 0.635319 0 0 0 0 0.415159 0 0 0 0 0 0 0 0 1 0"/>
<feBlend mode="normal" in2="shape" result="effect1_innerShadow_797_16944"/>
</filter>
<filter id="filter2_i_797_16944" x="314.007" y="55.749" width="138.371" height="153.115" filterUnits="userSpaceOnUse" color-interpolation-filters="sRGB">
<feFlood flood-opacity="0" result="BackgroundImageFix"/>
<feBlend mode="normal" in="SourceGraphic" in2="BackgroundImageFix" result="shape"/>
<feColorMatrix in="SourceAlpha" type="matrix" values="0 0 0 0 0 0 0 0 0 0 0 0 0 0 0 0 0 0 127 0" result="hardAlpha"/>
<feOffset dx="2.45143" dy="0.817142"/>
<feGaussianBlur stdDeviation="1.63428"/>
<feComposite in2="hardAlpha" operator="arithmetic" k2="-1" k3="1"/>
<feColorMatrix type="matrix" values="0 0 0 0 0.742165 0 0 0 0 0.406296 0 0 0 0 0.0737205 0 0 0 1 0"/>
<feBlend mode="normal" in2="shape" result="effect1_innerShadow_797_16944"/>
</filter>
</defs>
</svg>
