<svg width="1440" height="615" viewBox="0 0 1440 615" fill="none" xmlns="http://www.w3.org/2000/svg">
<g clip-path="url(#clip0_1794_22075)">
<mask id="mask0_1794_22075" style="mask-type:luminance" maskUnits="userSpaceOnUse" x="-66" y="434" width="167" height="167">
<path d="M34.1137 437.204C78.4596 446.38 106.971 489.767 97.7953 534.113C88.6198 578.459 45.2321 606.97 0.886253 597.795C-43.4596 588.619 -71.9708 545.232 -62.7953 500.886C-53.6198 456.54 -10.2321 428.029 34.1137 437.204Z" fill="white" stroke="white"/>
</mask>
<g mask="url(#mask0_1794_22075)">
<path d="M-34.2993 402.153L138.702 493.331" stroke="#FFBA3B" stroke-width="1.58" stroke-miterlimit="10"/>
<path d="M-38.8662 410.08L134.135 501.258" stroke="#FFBA3B" stroke-width="1.58" stroke-miterlimit="10"/>
<path d="M-43.4336 418.008L129.568 509.185" stroke="#FFBA3B" stroke-width="1.58" stroke-miterlimit="10"/>
<path d="M-48.001 425.936L125.001 517.113" stroke="#FFBA3B" stroke-width="1.58" stroke-miterlimit="10"/>
<path d="M-52.5679 433.862L120.434 525.04" stroke="#FFBA3B" stroke-width="1.58" stroke-miterlimit="10"/>
<path d="M-57.1348 441.79L115.867 532.968" stroke="#FFBA3B" stroke-width="1.58" stroke-miterlimit="10"/>
<path d="M-61.7021 449.718L111.3 540.895" stroke="#FFBA3B" stroke-width="1.58" stroke-miterlimit="10"/>
<path d="M-66.269 457.631L106.733 548.822" stroke="#FFBA3B" stroke-width="1.58" stroke-miterlimit="10"/>
<path d="M-70.8364 465.558L102.165 556.735" stroke="#FFBA3B" stroke-width="1.58" stroke-miterlimit="10"/>
<path d="M-75.4033 473.485L97.5984 564.663" stroke="#FFBA3B" stroke-width="1.58" stroke-miterlimit="10"/>
<path d="M-79.9707 481.413L93.031 572.591" stroke="#FFBA3B" stroke-width="1.58" stroke-miterlimit="10"/>
<path d="M-84.5376 489.34L88.4641 580.518" stroke="#FFBA3B" stroke-width="1.58" stroke-miterlimit="10"/>
<path d="M-89.105 497.268L83.8967 588.445" stroke="#FFBA3B" stroke-width="1.58" stroke-miterlimit="10"/>
<path d="M-93.6719 505.194L79.3298 596.372" stroke="#FFBA3B" stroke-width="1.58" stroke-miterlimit="10"/>
<path d="M-98.2393 513.122L74.7625 604.3" stroke="#FFBA3B" stroke-width="1.58" stroke-miterlimit="10"/>
<path d="M-102.82 521.049L70.1956 612.227" stroke="#FFBA3B" stroke-width="1.58" stroke-miterlimit="10"/>
<path d="M-107.387 528.977L65.6287 620.154" stroke="#FFBA3B" stroke-width="1.58" stroke-miterlimit="10"/>
<path d="M-111.954 536.903L61.0614 628.081" stroke="#FFBA3B" stroke-width="1.58" stroke-miterlimit="10"/>
</g>
<mask id="mask1_1794_22075" style="mask-type:luminance" maskUnits="userSpaceOnUse" x="289" y="150" width="102" height="102">
<path d="M350.185 151.776C377.371 157.401 394.849 183.999 389.224 211.185C383.599 238.371 357.001 255.849 329.815 250.224C302.629 244.599 285.151 218.001 290.776 190.815C296.401 163.629 322.999 146.151 350.185 151.776Z" fill="white" stroke="white"/>
</mask>
<g mask="url(#mask1_1794_22075)">
<path d="M308.124 130.018L414.586 186.127" stroke="#FFEFB8" stroke-width="1.58" stroke-miterlimit="10"/>
<path d="M305.313 134.896L411.776 191.005" stroke="#FFEFB8" stroke-width="1.58" stroke-miterlimit="10"/>
<path d="M302.502 139.774L408.965 195.884" stroke="#FFEFB8" stroke-width="1.58" stroke-miterlimit="10"/>
<path d="M299.692 144.652L406.154 200.762" stroke="#FFEFB8" stroke-width="1.58" stroke-miterlimit="10"/>
<path d="M296.881 149.531L403.344 205.641" stroke="#FFEFB8" stroke-width="1.58" stroke-miterlimit="10"/>
<path d="M294.071 154.409L400.533 210.519" stroke="#FFEFB8" stroke-width="1.58" stroke-miterlimit="10"/>
<path d="M291.26 159.287L397.723 215.396" stroke="#FFEFB8" stroke-width="1.58" stroke-miterlimit="10"/>
<path d="M288.45 164.157L394.912 220.275" stroke="#FFEFB8" stroke-width="1.58" stroke-miterlimit="10"/>
<path d="M285.639 169.036L392.102 225.145" stroke="#FFEFB8" stroke-width="1.58" stroke-miterlimit="10"/>
<path d="M282.829 173.914L389.291 230.023" stroke="#FFEFB8" stroke-width="1.58" stroke-miterlimit="10"/>
<path d="M280.018 178.792L386.481 234.901" stroke="#FFEFB8" stroke-width="1.58" stroke-miterlimit="10"/>
<path d="M277.208 183.671L383.67 239.78" stroke="#FFEFB8" stroke-width="1.58" stroke-miterlimit="10"/>
<path d="M274.397 188.549L380.86 244.658" stroke="#FFEFB8" stroke-width="1.58" stroke-miterlimit="10"/>
<path d="M271.586 193.428L378.049 249.537" stroke="#FFEFB8" stroke-width="1.58" stroke-miterlimit="10"/>
<path d="M268.776 198.306L375.238 254.415" stroke="#FFEFB8" stroke-width="1.58" stroke-miterlimit="10"/>
<path d="M265.957 203.184L372.428 259.293" stroke="#FFEFB8" stroke-width="1.58" stroke-miterlimit="10"/>
<path d="M263.146 208.062L369.617 264.172" stroke="#FFEFB8" stroke-width="1.58" stroke-miterlimit="10"/>
<path d="M260.336 212.94L366.807 269.05" stroke="#FFEFB8" stroke-width="1.58" stroke-miterlimit="10"/>
</g>
<mask id="mask2_1794_22075" style="mask-type:luminance" maskUnits="userSpaceOnUse" x="1348" y="469" width="96" height="96">
<path d="M1405.5 471.09C1430.85 476.336 1447.16 501.143 1441.91 526.499C1436.66 551.854 1411.86 568.156 1386.5 562.91C1361.15 557.663 1344.84 532.856 1350.09 507.501C1355.34 482.145 1380.14 465.844 1405.5 471.09Z" fill="white" stroke="white"/>
</mask>
<g mask="url(#mask2_1794_22075)">
<path d="M1366.25 450.75L1465.61 503.119" stroke="#E07A15" stroke-width="1.58" stroke-miterlimit="10"/>
<path d="M1363.63 455.303L1462.99 507.671" stroke="#E07A15" stroke-width="1.58" stroke-miterlimit="10"/>
<path d="M1361 459.856L1460.37 512.225" stroke="#E07A15" stroke-width="1.58" stroke-miterlimit="10"/>
<path d="M1358.38 464.409L1457.74 516.778" stroke="#E07A15" stroke-width="1.58" stroke-miterlimit="10"/>
<path d="M1355.76 468.963L1455.12 521.332" stroke="#E07A15" stroke-width="1.58" stroke-miterlimit="10"/>
<path d="M1353.13 473.516L1452.5 525.884" stroke="#E07A15" stroke-width="1.58" stroke-miterlimit="10"/>
<path d="M1350.51 478.069L1449.87 530.438" stroke="#E07A15" stroke-width="1.58" stroke-miterlimit="10"/>
<path d="M1347.89 482.614L1447.25 534.991" stroke="#E07A15" stroke-width="1.58" stroke-miterlimit="10"/>
<path d="M1345.26 487.167L1444.63 539.536" stroke="#E07A15" stroke-width="1.58" stroke-miterlimit="10"/>
<path d="M1342.64 491.721L1442.01 544.089" stroke="#E07A15" stroke-width="1.58" stroke-miterlimit="10"/>
<path d="M1340.02 496.273L1439.38 548.642" stroke="#E07A15" stroke-width="1.58" stroke-miterlimit="10"/>
<path d="M1337.39 500.826L1436.76 553.195" stroke="#E07A15" stroke-width="1.58" stroke-miterlimit="10"/>
<path d="M1334.77 505.38L1434.14 557.749" stroke="#E07A15" stroke-width="1.58" stroke-miterlimit="10"/>
<path d="M1332.15 509.933L1431.51 562.301" stroke="#E07A15" stroke-width="1.58" stroke-miterlimit="10"/>
<path d="M1329.52 514.486L1428.89 566.855" stroke="#E07A15" stroke-width="1.58" stroke-miterlimit="10"/>
<path d="M1326.89 519.039L1426.27 571.408" stroke="#E07A15" stroke-width="1.58" stroke-miterlimit="10"/>
<path d="M1324.27 523.593L1423.64 575.961" stroke="#E07A15" stroke-width="1.58" stroke-miterlimit="10"/>
<path d="M1321.65 528.146L1421.02 580.514" stroke="#E07A15" stroke-width="1.58" stroke-miterlimit="10"/>
</g>
<mask id="mask3_1794_22075" style="mask-type:luminance" maskUnits="userSpaceOnUse" x="1134" y="5" width="96" height="96">
<path d="M1191.5 7.08977C1216.85 12.336 1233.16 37.1435 1227.91 62.4988C1222.66 87.8542 1197.86 104.156 1172.5 98.9096C1147.15 93.6634 1130.84 68.8559 1136.09 43.5006C1141.34 18.1452 1166.14 1.84355 1191.5 7.08977Z" fill="white" stroke="white"/>
</mask>
<g mask="url(#mask3_1794_22075)">
<path d="M1152.25 -13.25L1251.61 39.1187" stroke="#3E7742" stroke-width="1.58" stroke-miterlimit="10"/>
<path d="M1149.63 -8.69727L1248.99 43.6715" stroke="#3E7742" stroke-width="1.58" stroke-miterlimit="10"/>
<path d="M1147 -4.14355L1246.37 48.2252" stroke="#3E7742" stroke-width="1.58" stroke-miterlimit="10"/>
<path d="M1144.38 0.40918L1243.74 52.7779" stroke="#3E7742" stroke-width="1.58" stroke-miterlimit="10"/>
<path d="M1141.76 4.96289L1241.12 57.3316" stroke="#3E7742" stroke-width="1.58" stroke-miterlimit="10"/>
<path d="M1139.13 9.51562L1238.5 61.8844" stroke="#3E7742" stroke-width="1.58" stroke-miterlimit="10"/>
<path d="M1136.51 14.0693L1235.87 66.4381" stroke="#3E7742" stroke-width="1.58" stroke-miterlimit="10"/>
<path d="M1133.89 18.6143L1233.25 70.9909" stroke="#3E7742" stroke-width="1.58" stroke-miterlimit="10"/>
<path d="M1131.26 23.167L1230.63 75.5357" stroke="#3E7742" stroke-width="1.58" stroke-miterlimit="10"/>
<path d="M1128.64 27.7207L1228.01 80.0894" stroke="#3E7742" stroke-width="1.58" stroke-miterlimit="10"/>
<path d="M1126.02 32.2734L1225.38 84.6422" stroke="#3E7742" stroke-width="1.58" stroke-miterlimit="10"/>
<path d="M1123.39 36.8262L1222.76 89.1949" stroke="#3E7742" stroke-width="1.58" stroke-miterlimit="10"/>
<path d="M1120.77 41.3799L1220.14 93.7486" stroke="#3E7742" stroke-width="1.58" stroke-miterlimit="10"/>
<path d="M1118.15 45.9326L1217.51 98.3013" stroke="#3E7742" stroke-width="1.58" stroke-miterlimit="10"/>
<path d="M1115.52 50.4863L1214.89 102.855" stroke="#3E7742" stroke-width="1.58" stroke-miterlimit="10"/>
<path d="M1112.89 55.0391L1212.27 107.408" stroke="#3E7742" stroke-width="1.58" stroke-miterlimit="10"/>
<path d="M1110.27 59.5928L1209.64 111.961" stroke="#3E7742" stroke-width="1.58" stroke-miterlimit="10"/>
<path d="M1107.65 64.1455L1207.02 116.514" stroke="#3E7742" stroke-width="1.58" stroke-miterlimit="10"/>
</g>
<path opacity="0.45" d="M82.5797 86.477C83.9374 62.4191 65.5352 41.8157 41.4773 40.458C17.4194 39.1003 -3.18402 57.5025 -4.5417 81.5604C-5.89938 105.618 12.5028 126.222 36.5607 127.579C60.6186 128.937 81.222 110.535 82.5797 86.477Z" fill="#FFBA3B"/>
</g>
<defs>
<clipPath id="clip0_1794_22075">
<rect width="1440" height="615" fill="white"/>
</clipPath>
</defs>
</svg>
