<svg width="383" height="296" viewBox="0 0 383 296" fill="none" xmlns="http://www.w3.org/2000/svg">
<g filter="url(#filter0_i_831_35935)">
<path d="M215.979 91.1284C217.127 81.3557 217.05 72.9505 215.748 65.9127C214.621 58.8954 212.338 53.4214 208.897 49.4907C205.476 45.3944 201.053 43.0276 195.628 42.3903C190.204 41.753 185.353 43.0303 181.076 46.222C176.992 49.2687 173.589 54.0745 170.867 60.6395C168.144 67.2045 166.209 75.3734 165.061 85.146C163.231 100.716 164.056 112.568 167.535 120.701C171.034 128.668 176.808 133.125 184.857 134.071C193.081 135.037 199.818 132.05 205.068 125.111C210.512 118.026 214.149 106.698 215.979 91.1284ZM181.178 167.643C167.355 166.019 155.457 161.599 145.484 154.382C135.686 147.185 128.504 137.357 123.936 124.898C119.369 112.439 118.116 97.4305 120.179 79.8729C122.184 62.8122 126.851 48.7512 134.182 37.6899C141.513 26.6286 150.788 18.6504 162.007 13.7553C173.4 8.8807 186.009 7.25547 199.832 8.87955C213.48 10.4831 225.193 14.9659 234.972 22.3279C244.925 29.7106 252.186 39.6315 256.753 52.0908C261.496 64.5706 262.865 79.3408 260.86 96.4015C258.797 113.959 254.013 128.258 246.507 139.299C239.176 150.36 229.824 158.245 218.449 162.954C207.25 167.684 194.827 169.247 181.178 167.643Z" fill="#E07A15"/>
</g>
<g filter="url(#filter1_i_831_35935)">
<path d="M325.438 174.979C327.779 166.241 328.875 158.599 328.724 152.051C328.722 145.543 327.509 140.297 325.084 136.314C322.699 132.183 319.211 129.503 314.621 128.273C310.03 127.043 305.669 127.62 301.538 130.005C297.595 132.282 293.995 136.238 290.739 141.873C287.483 147.508 284.685 154.694 282.344 163.432C278.614 177.352 277.687 188.214 279.564 196.018C281.481 203.675 285.845 208.415 292.657 210.241C299.618 212.106 305.842 210.202 311.329 204.53C317.005 198.75 321.708 188.899 325.438 174.979ZM284.844 240.288C273.145 237.153 263.493 231.71 255.888 223.958C248.431 216.246 243.594 206.459 241.376 194.595C239.158 182.732 240.152 168.951 244.358 153.254C248.446 138 254.415 125.791 262.268 116.626C270.12 107.461 279.223 101.329 289.577 98.2302C300.078 95.1714 311.179 95.2094 322.878 98.3442C334.429 101.439 343.913 106.917 351.33 114.777C358.896 122.677 363.787 132.559 366.005 144.422C368.371 156.325 367.51 169.904 363.423 185.157C359.217 200.854 353.114 213.266 345.113 222.391C337.261 231.557 328.104 237.595 317.642 240.505C307.328 243.456 296.395 243.383 284.844 240.288Z" fill="#E07A15"/>
</g>
<path d="M113.934 49.6738C113.856 48.9777 114.5 48.42 115.178 48.5956L370.889 114.818C371.365 114.941 371.681 115.392 371.634 115.881L360.469 232.653C360.2 235.615 358.831 238.369 356.632 240.371C354.432 242.374 351.563 243.48 348.588 243.471H146.118C143.175 243.472 140.336 242.386 138.143 240.423C135.951 238.46 134.56 235.757 134.237 232.832L113.934 49.6738ZM109.521 42.0688C108.843 41.8932 108.199 42.451 108.276 43.147L129.366 233.37C129.822 237.494 131.783 241.305 134.874 244.073C137.965 246.841 141.969 248.371 146.118 248.369H348.575C352.766 248.368 356.807 246.806 359.909 243.987C363.012 241.168 364.953 237.294 365.354 233.122L376.919 112.183C376.966 111.694 376.65 111.243 376.174 111.12L109.521 42.0688Z" fill="#595959"/>
<path d="M110.186 49.2075L85.0693 43.64C84.6613 43.5496 84.2762 43.3747 83.9361 43.1252C83.596 42.8758 83.3075 42.5568 83.0872 42.1864C82.8669 41.816 82.719 41.4016 82.652 40.9667C82.585 40.5319 82.6003 40.0852 82.6969 39.6523C82.7928 39.2196 82.9681 38.8089 83.2126 38.4438C83.4572 38.0786 83.7664 37.766 84.1224 37.524C84.4784 37.2819 84.8744 37.1151 85.2877 37.0329C85.7009 36.9508 86.1235 36.9551 86.531 37.0454L111.648 42.6129C112.055 42.7033 112.44 42.8779 112.78 43.127C113.12 43.3761 113.408 43.6946 113.629 44.0644C113.849 44.4343 113.997 44.8482 114.064 45.2825C114.132 45.7168 114.117 46.1631 114.021 46.5957C113.926 47.029 113.751 47.4403 113.506 47.8061C113.262 48.1719 112.953 48.485 112.597 48.7276C112.24 48.9702 111.844 49.1374 111.431 49.2197C111.017 49.3021 110.594 49.2979 110.186 49.2075Z" fill="#595959"/>
<path d="M166.526 295.162C180.366 295.162 191.585 283.943 191.585 270.104C191.585 256.264 180.366 245.045 166.526 245.045C152.687 245.045 141.468 256.264 141.468 270.104C141.468 283.943 152.687 295.162 166.526 295.162Z" fill="#212121"/>
<g style="mix-blend-mode:multiply" opacity="0.6">
<path d="M175.316 281.678C181.695 276.822 182.929 267.714 178.073 261.335C173.217 254.956 164.109 253.721 157.73 258.577C151.351 263.433 150.116 272.541 154.972 278.921C159.828 285.3 168.936 286.534 175.316 281.678Z" fill="#212121"/>
</g>
<path d="M166.527 277.045C170.36 277.045 173.468 273.937 173.468 270.104C173.468 266.271 170.36 263.163 166.527 263.163C162.693 263.163 159.586 266.271 159.586 270.104C159.586 273.937 162.693 277.045 166.527 277.045Z" fill="#454545"/>
<path d="M324.233 295.162C338.073 295.162 349.292 283.943 349.292 270.104C349.292 256.264 338.073 245.045 324.233 245.045C310.394 245.045 299.175 256.264 299.175 270.104C299.175 283.943 310.394 295.162 324.233 295.162Z" fill="#212121"/>
<g style="mix-blend-mode:multiply" opacity="0.6">
<path d="M334.492 280.37C340.161 274.701 340.161 265.51 334.492 259.841C328.823 254.172 319.631 254.172 313.962 259.841C308.293 265.51 308.293 274.701 313.962 280.37C319.631 286.039 328.823 286.039 334.492 280.37Z" fill="#212121"/>
</g>
<path d="M331.188 270.103C331.188 271.467 330.784 272.801 330.026 273.936C329.268 275.07 328.19 275.955 326.929 276.477C325.669 276.999 324.281 277.136 322.943 276.869C321.605 276.603 320.375 275.946 319.41 274.981C318.445 274.016 317.788 272.787 317.522 271.449C317.256 270.11 317.393 268.723 317.915 267.462C318.437 266.202 319.321 265.124 320.456 264.366C321.591 263.608 322.925 263.203 324.289 263.203C326.119 263.203 327.874 263.93 329.168 265.224C330.462 266.518 331.188 268.273 331.188 270.103Z" fill="#454545"/>
<path d="M143.428 54.125L163.257 245.045" stroke="#595959" stroke-width="2.90902" stroke-miterlimit="10"/>
<path d="M177.414 62.459L192.896 245.044" stroke="#595959" stroke-width="2.90902" stroke-miterlimit="10"/>
<path d="M211.4 70.7939L222.536 245.045" stroke="#595959" stroke-width="2.90902" stroke-miterlimit="10"/>
<path d="M245.387 79.1416L252.176 245.044" stroke="#595959" stroke-width="2.90902" stroke-miterlimit="10"/>
<path d="M279.36 87.4775L281.816 245.046" stroke="#595959" stroke-width="2.90902" stroke-miterlimit="10"/>
<path d="M313.346 95.8232L311.456 245.043" stroke="#595959" stroke-width="2.90902" stroke-miterlimit="10"/>
<path d="M347.333 104.16L341.096 245.046" stroke="#595959" stroke-width="2.90902" stroke-miterlimit="10"/>
<path d="M116.023 75.7207L375.151 130.667" stroke="#595959" stroke-width="2.90902" stroke-miterlimit="10"/>
<path d="M118.686 107.207L373.192 151.156" stroke="#595959" stroke-width="2.90902" stroke-miterlimit="10"/>
<path d="M121.363 138.684L371.232 171.649" stroke="#595959" stroke-width="2.90902" stroke-miterlimit="10"/>
<path d="M124.026 170.158L369.273 192.14" stroke="#595959" stroke-width="2.90902" stroke-miterlimit="10"/>
<path d="M126.689 201.647L367.313 212.631" stroke="#595959" stroke-width="2.90902" stroke-miterlimit="10"/>
<path d="M365.368 233.122H129.367" stroke="#595959" stroke-width="2.90902" stroke-miterlimit="10"/>
<g filter="url(#filter2_i_831_35935)">
<path d="M49.9359 235C42.4658 235 35.6453 234.432 29.4744 233.295C23.4658 232.158 18.2692 230.453 13.8846 228.18C9.5 225.906 6.08974 223.145 3.65385 219.897C1.21795 216.487 0 212.59 0 208.205C0 203.658 1.29915 199.842 3.89744 196.756C6.49573 193.671 9.4188 191.235 12.6667 189.449C17.2137 192.859 22.0855 195.863 27.2821 198.462C32.4786 200.897 39.0556 202.115 47.0128 202.115C54.6453 202.115 60.0855 200.41 63.3333 197C66.5812 193.59 68.2051 189.449 68.2051 184.577C68.2051 179.868 66.7436 175.97 63.8205 172.885C61.0598 169.799 56.188 168.256 49.2051 168.256C44.8205 168.256 41.1667 168.744 38.2436 169.718C35.3205 170.692 31.9915 172.073 28.2564 173.859C20.2991 173.534 13.9658 171.423 9.25641 167.526C4.7094 163.466 2.4359 157.295 2.4359 149.013C2.4359 148.526 2.4359 147.957 2.4359 147.308C2.4359 146.496 2.51709 144.953 2.67949 142.679L5.60256 105.654C6.08974 98.6709 8.28205 93.1496 12.1795 89.0898C16.0769 85.0299 21.5171 83 28.5 83H98.6538C99.6282 84.7863 100.603 87.141 101.577 90.0641C102.551 92.9872 103.038 96.0726 103.038 99.3205C103.038 105.491 101.658 109.876 98.8974 112.474C96.1368 115.073 92.6453 116.372 88.4231 116.372H41.6538L39.9487 139.269C43.0342 138.457 46.1197 137.727 49.2051 137.077C52.453 136.427 56.5128 136.103 61.3846 136.103C69.8291 136.103 77.1368 137.402 83.3077 140C89.4786 142.436 94.5128 145.846 98.4103 150.231C102.47 154.615 105.393 159.731 107.179 165.577C109.128 171.423 110.103 177.675 110.103 184.333C110.103 190.991 108.966 197.406 106.692 203.577C104.419 209.748 100.846 215.188 95.9744 219.897C91.1026 224.444 84.8504 228.098 77.2179 230.859C69.7479 233.62 60.6538 235 49.9359 235Z" fill="#FFBA3B"/>
</g>
<defs>
<filter id="filter0_i_831_35935" x="119.216" y="8.27051" width="145.806" height="163.25" filterUnits="userSpaceOnUse" color-interpolation-filters="sRGB">
<feFlood flood-opacity="0" result="BackgroundImageFix"/>
<feBlend mode="normal" in="SourceGraphic" in2="BackgroundImageFix" result="shape"/>
<feColorMatrix in="SourceAlpha" type="matrix" values="0 0 0 0 0 0 0 0 0 0 0 0 0 0 0 0 0 0 127 0" result="hardAlpha"/>
<feOffset dx="9.8057" dy="6.53713"/>
<feGaussianBlur stdDeviation="1.63428"/>
<feComposite in2="hardAlpha" operator="arithmetic" k2="-1" k3="1"/>
<feColorMatrix type="matrix" values="0 0 0 0 0.742165 0 0 0 0 0.406296 0 0 0 0 0.0737205 0 0 0 1 0"/>
<feBlend mode="normal" in2="shape" result="effect1_innerShadow_831_35935"/>
</filter>
<filter id="filter1_i_831_35935" x="240.228" y="95.9639" width="130.347" height="149.97" filterUnits="userSpaceOnUse" color-interpolation-filters="sRGB">
<feFlood flood-opacity="0" result="BackgroundImageFix"/>
<feBlend mode="normal" in="SourceGraphic" in2="BackgroundImageFix" result="shape"/>
<feColorMatrix in="SourceAlpha" type="matrix" values="0 0 0 0 0 0 0 0 0 0 0 0 0 0 0 0 0 0 127 0" result="hardAlpha"/>
<feOffset dx="9.8057" dy="6.53713"/>
<feGaussianBlur stdDeviation="1.63428"/>
<feComposite in2="hardAlpha" operator="arithmetic" k2="-1" k3="1"/>
<feColorMatrix type="matrix" values="0 0 0 0 0.742165 0 0 0 0 0.406296 0 0 0 0 0.0737205 0 0 0 1 0"/>
<feBlend mode="normal" in2="shape" result="effect1_innerShadow_831_35935"/>
</filter>
<filter id="filter2_i_831_35935" x="0" y="83" width="112.554" height="152.817" filterUnits="userSpaceOnUse" color-interpolation-filters="sRGB">
<feFlood flood-opacity="0" result="BackgroundImageFix"/>
<feBlend mode="normal" in="SourceGraphic" in2="BackgroundImageFix" result="shape"/>
<feColorMatrix in="SourceAlpha" type="matrix" values="0 0 0 0 0 0 0 0 0 0 0 0 0 0 0 0 0 0 127 0" result="hardAlpha"/>
<feOffset dx="2.45143" dy="0.817142"/>
<feGaussianBlur stdDeviation="1.63428"/>
<feComposite in2="hardAlpha" operator="arithmetic" k2="-1" k3="1"/>
<feColorMatrix type="matrix" values="0 0 0 0 0.635319 0 0 0 0 0.415159 0 0 0 0 0 0 0 0 1 0"/>
<feBlend mode="normal" in2="shape" result="effect1_innerShadow_831_35935"/>
</filter>
</defs>
</svg>
