<svg width="264" height="288" viewBox="0 0 264 288" fill="none" xmlns="http://www.w3.org/2000/svg">
<g clip-path="url(#clip0_777_41072)">
<path d="M48.5557 233.371H18.5439V241.67H48.5557V233.371Z" fill="#EBEBEB"/>
<path d="M31.8148 252.145C22.9496 252.254 10.5862 252.472 1.80978 252.459H1.49609V252.145V243.839V243.498H1.83706L16.8395 243.546L31.842 243.696H31.9921V243.839L31.8489 252.145H31.8148ZM31.8148 252.145L31.6647 243.839L31.8148 243.989L16.8123 244.132L1.80978 244.18L2.15075 243.839V252.145L1.83706 251.831C10.4703 251.831 23.0724 252.022 31.842 252.145H31.8148Z" fill="#EBEBEB"/>
<path d="M154.065 38.9936C145.2 39.1027 132.836 39.3209 124.06 39.3073H123.746V38.9936V30.6945V30.3535H124.087L139.09 30.4013L154.092 30.5445H154.201V30.6877L154.058 38.9868L154.065 38.9936ZM154.065 38.9936L153.915 30.6877L154.065 30.8377L139.062 30.9809L124.06 31.0286L124.401 30.6877V38.9868L124.087 38.6731C132.72 38.6731 145.322 38.8708 154.092 38.9868L154.065 38.9936Z" fill="#EBEBEB"/>
<path d="M137.323 49.4613C128.457 49.5705 116.094 49.7887 107.318 49.775H107.004V49.4545V41.1554V40.8145H107.345L122.347 40.8622L137.35 41.0122H137.5V41.1554L137.35 49.4545L137.323 49.4613ZM137.323 49.4613L137.152 41.1622L137.295 41.3123L122.293 41.4555L107.29 41.5032L107.631 41.1622V49.4613L107.318 49.1477C115.944 49.1477 128.553 49.3454 137.323 49.4613Z" fill="#EBEBEB"/>
<path d="M120.656 30.6934H90.6445V38.9925H120.656V30.6934Z" fill="#EBEBEB"/>
<path d="M259.512 243.838H229.507V252.137H259.512V243.838Z" fill="#EBEBEB"/>
<path d="M242.784 0.341797H212.772V8.6409H242.784V0.341797Z" fill="#EBEBEB"/>
<path d="M259.518 19.0942C250.653 19.2033 238.289 19.4215 229.513 19.4078H229.213V19.0942V10.7882V10.4473H229.554L244.556 10.495L259.559 10.645H259.709V10.7882L259.518 19.0942ZM259.518 19.0942L259.368 10.7882L259.518 10.9383L244.515 11.0815L229.513 11.1292L229.854 10.7882V19.0942L229.54 18.7805C238.173 18.7805 250.776 18.9714 259.545 19.0942H259.518Z" fill="#EBEBEB"/>
<path d="M31.8146 8.64689C22.9495 8.74918 10.5861 8.9674 1.80967 8.96058H1.49598V8.64007L1.44824 0.340966V0H1.78921L16.7917 0.0477352L31.7942 0.19776H31.9442V0.340966L31.801 8.64689H31.8146ZM31.8146 8.64689L31.6646 0.340966L31.8146 0.490991L16.8122 0.634196L1.80285 0.681931L2.13017 0.340966V8.64007L1.81649 8.32638C10.4497 8.32638 23.0518 8.52414 31.8215 8.64689H31.8146Z" fill="#EBEBEB"/>
<path d="M242.777 151.491C233.912 151.6 221.548 151.818 212.772 151.804H212.458V151.491V143.185V142.844H212.799L227.801 142.891L242.804 143.042H242.954V143.205L242.804 151.511L242.777 151.491ZM242.777 151.491L242.633 143.205L242.777 143.355L227.774 143.498L212.772 143.546L213.113 143.205V151.511L212.799 151.197C221.432 151.197 234.034 151.388 242.804 151.511L242.777 151.491Z" fill="#EBEBEB"/>
<path d="M226.192 155.529C182.664 213.125 130.667 238.411 130.667 238.411C130.667 238.411 78.7108 213.125 35.1968 155.529C1.56395 111.026 6.6307 41.3599 54.7341 26.2892C90.0991 15.2215 111.969 38.1412 122.682 54.7735L108.961 110.01L134.24 116.011L117.192 157.193L137.5 153.156L131.479 197.338L143.869 145.457L126.541 148.444L147.381 111.776L121.597 103.593L144.565 46.5767C156.669 31.5742 176.963 16.6808 206.621 26.3233C254.581 41.885 259.811 111.026 226.192 155.529Z" fill="#FFBA3B"/>
<path d="M121.4 188.534L121.713 188.391C121.87 188.322 122.341 188.166 121.713 188.391C121.904 188.322 122.088 188.234 122.279 188.159C123.439 187.702 124.625 187.306 125.819 186.958C130.008 185.739 134.323 185.007 138.68 184.776C142.163 184.586 145.656 184.666 149.127 185.015C149.579 185.013 150.011 184.833 150.33 184.514C150.65 184.194 150.83 183.762 150.832 183.31C150.821 182.861 150.638 182.434 150.321 182.116C150.003 181.799 149.576 181.616 149.127 181.605C139.982 180.705 130.265 181.455 121.625 184.776C120.943 185.029 120.261 185.295 119.654 185.608C119.448 185.714 119.266 185.861 119.118 186.04C118.971 186.218 118.861 186.425 118.797 186.648C118.732 186.87 118.713 187.103 118.741 187.333C118.77 187.563 118.845 187.785 118.962 187.985C119.079 188.185 119.235 188.359 119.421 188.497C119.608 188.634 119.82 188.732 120.046 188.785C120.272 188.837 120.506 188.843 120.734 188.803C120.962 188.762 121.179 188.675 121.372 188.547L121.4 188.534Z" fill="#263238"/>
<path d="M119.053 171.704C120.919 171.587 122.792 171.624 124.652 171.814C129.521 172.24 134.326 173.222 138.973 174.739C142.634 175.918 146.196 177.386 149.624 179.131C151.575 180.119 153.307 177.18 151.343 176.185C142.041 171.473 131.567 168.288 121.031 168.24C120.349 168.24 119.701 168.24 119.04 168.295C118.591 168.305 118.163 168.488 117.846 168.806C117.528 169.123 117.345 169.551 117.335 170C117.34 170.45 117.522 170.881 117.84 171.199C118.159 171.518 118.589 171.699 119.04 171.704H119.053Z" fill="#263238"/>
<path d="M115.855 135.752C117.724 135.639 119.598 135.675 121.461 135.861C126.331 136.287 131.136 137.271 135.781 138.794C139.446 139.978 143.01 141.453 146.44 143.206C148.397 144.195 150.122 141.256 148.165 140.26C138.857 135.555 128.355 132.37 117.846 132.322C117.165 132.322 116.517 132.322 115.855 132.37C115.407 132.382 114.98 132.566 114.663 132.883C114.346 133.2 114.162 133.626 114.15 134.075C114.152 134.526 114.332 134.959 114.652 135.278C114.971 135.598 115.404 135.778 115.855 135.78V135.752Z" fill="#263238"/>
<path d="M124.878 165.254C125.308 165.002 125.764 164.777 126.242 164.572C126.719 164.367 127.312 164.081 127.851 163.842L128.015 163.774L128.567 163.549L129.788 163.072C134.369 161.374 139.127 160.2 143.972 159.573C147.85 159.078 151.76 158.889 155.667 159.007C157.863 159.062 157.863 155.652 155.667 155.598C145.227 155.311 134.411 156.962 124.885 161.435C124.285 161.715 123.685 162.001 123.105 162.335C121.209 163.433 122.921 166.386 124.83 165.281L124.878 165.254Z" fill="#263238"/>
<path d="M116.094 146.731C117.851 145.562 119.693 144.524 121.604 143.629C126.58 141.227 131.79 139.344 137.152 138.01C141.303 136.949 145.523 136.179 149.781 135.705C150.23 135.694 150.658 135.511 150.975 135.194C151.293 134.876 151.476 134.449 151.486 134C151.483 133.549 151.302 133.117 150.983 132.798C150.664 132.479 150.232 132.298 149.781 132.295C138.189 133.584 126.371 136.734 116.203 142.653C115.583 143.015 114.962 143.383 114.369 143.792C113.987 144.029 113.711 144.403 113.598 144.837C113.485 145.271 113.544 145.732 113.762 146.124C113.992 146.512 114.366 146.794 114.802 146.909C115.238 147.024 115.702 146.963 116.094 146.738V146.731Z" fill="#263238"/>
<g opacity="0.5">
<path d="M194.264 30.0396C189.702 33.6402 198.158 53.8117 207.255 55.3461C214.592 56.6008 218.077 45.6899 216.359 40.5073C213.003 30.4283 199.89 25.5866 194.264 30.0396Z" fill="white"/>
<path d="M225.21 53.6884C230.072 56.3684 237.219 72.8166 236.121 92.6676C234.716 118.451 221.835 138.548 219.946 137.525C218.057 136.502 226.342 110.452 223.471 93.3427C221.916 84.0548 217.661 78.2175 217.436 71.5209C217.211 64.8243 220.102 50.8652 225.21 53.6884Z" fill="white"/>
</g>
<path d="M219.693 287.305H234.409L234.409 169.603H219.693V287.305Z" fill="#DBDBDB"/>
<path d="M196.044 287.312H258.066C258.92 287.316 259.765 287.131 260.54 286.772C261.315 286.412 262.002 285.886 262.55 285.231C263.099 284.576 263.497 283.808 263.716 282.982C263.934 282.156 263.968 281.292 263.815 280.452L263.364 277.942L263.283 277.328L261.107 265.17L260.985 264.392L258.843 252.356L258.68 251.49L256.545 239.413L256.381 238.472L254.288 226.518L254.083 225.447L251.949 213.445L251.778 212.374L249.671 200.434L249.467 199.24L247.373 187.293L247.128 186.059L246.923 184.824C246.677 183.48 245.965 182.265 244.913 181.392C243.86 180.519 242.535 180.044 241.168 180.051H212.963C211.597 180.045 210.272 180.52 209.221 181.393C208.17 182.265 207.459 183.48 207.214 184.824L206.641 188.111L206.314 189.837L203.927 203.352L203.641 205.037L201.254 218.546L200.968 220.189L198.581 233.664L198.295 235.267L195.874 248.783L195.628 250.344L193.241 263.812L192.955 265.292L190.575 278.849L190.33 280.213L190.282 280.417C190.124 281.262 190.155 282.13 190.372 282.961C190.589 283.792 190.987 284.564 191.538 285.223C192.089 285.882 192.778 286.411 193.557 286.772C194.336 287.133 195.186 287.317 196.044 287.312Z" fill="#FFBA3B"/>
<g opacity="0.1">
<path d="M206.313 189.835C215.804 187.542 225.027 184.255 233.829 180.029H230.092C222.493 183.321 214.653 186.025 206.641 188.117L206.313 189.835Z" fill="black"/>
<path d="M203.641 205.035C219.077 201.543 233.84 195.555 247.346 187.305L247.1 186.07C233.613 193.875 219.073 199.699 203.927 203.364L203.641 205.035Z" fill="black"/>
<path d="M200.974 220.188C218.266 216.614 234.759 209.912 249.643 200.412L249.438 199.219C234.511 208.19 218.243 214.715 201.253 218.545L200.974 220.188Z" fill="black"/>
<path d="M198.301 235.265C217.472 231.683 235.72 224.26 251.948 213.444L251.778 212.373C235.435 222.535 217.43 229.737 198.587 233.649L198.301 235.265Z" fill="black"/>
<path d="M195.635 250.343C216.683 246.756 236.696 238.625 254.281 226.516L254.076 225.445C236.371 236.922 216.603 244.848 195.873 248.781L195.635 250.343Z" fill="black"/>
<path d="M192.961 265.272C215.918 261.845 237.72 252.971 256.544 239.392L256.381 238.451C237.344 251.229 215.835 259.862 193.247 263.792L192.961 265.272Z" fill="black"/>
<path d="M190.343 280.273C215.195 277.013 238.788 267.408 258.85 252.382L258.686 251.516C238.346 265.665 215.064 275.019 190.588 278.875L190.343 280.273Z" fill="black"/>
<path d="M215.84 287.31H221.029C235.465 282.063 248.992 274.593 261.12 265.168L260.997 264.391C247.238 274.349 232 282.083 215.84 287.31Z" fill="black"/>
<path d="M248.307 287.312H250.407C254.896 284.43 259.221 281.302 263.364 277.942L263.282 277.328C258.47 280.918 253.471 284.251 248.307 287.312Z" fill="black"/>
</g>
<path opacity="0.1" d="M258.066 287.305H198.302L241.604 273.708C243.272 273.182 244.731 272.143 245.773 270.738C246.814 269.333 247.384 267.635 247.401 265.886C247.558 247.324 247.926 191.869 246.93 185.029L247.101 186.059L247.346 187.293L249.44 199.248L249.644 200.441L251.779 212.382L251.942 213.452L254.084 225.454L254.281 226.511L256.382 238.465L256.545 239.42L258.68 251.49L258.844 252.356L260.985 264.386L261.108 265.17L263.31 277.322L263.392 277.942L263.849 280.452C264.002 281.295 263.966 282.161 263.745 282.989C263.524 283.817 263.123 284.585 262.571 285.24C262.019 285.895 261.328 286.419 260.55 286.776C259.771 287.133 258.923 287.314 258.066 287.305Z" fill="black"/>
<path d="M135.642 242.596L133.071 257.086L248.963 277.646L251.534 263.156L135.642 242.596Z" fill="#DBDBDB"/>
<path d="M139.778 219.317L128.969 280.39C128.816 281.231 128.85 282.095 129.068 282.921C129.287 283.747 129.685 284.515 130.233 285.17C130.782 285.825 131.469 286.351 132.244 286.71C133.019 287.07 133.864 287.254 134.718 287.251H137.262H137.882H150.239H151.023H163.25H164.13H177.318H189.457H190.541H202.727H203.804H215.95H217.157H229.295H230.55H231.798C233.169 287.254 234.498 286.772 235.548 285.89C236.597 285.007 237.301 283.781 237.533 282.429L242.456 254.688C242.692 253.349 242.452 251.969 241.777 250.788C241.101 249.607 240.034 248.7 238.76 248.224L235.623 247.085L233.98 246.464L221.091 241.752L219.489 241.179L206.594 236.467L205.032 235.901L192.15 231.175L190.623 230.609L177.741 225.836L176.248 225.318L163.4 220.619L161.995 220.08L149.039 215.361L147.675 214.877L147.484 214.802C146.682 214.514 145.827 214.405 144.979 214.484C144.131 214.562 143.31 214.826 142.575 215.257C141.84 215.687 141.208 216.274 140.725 216.976C140.242 217.677 139.918 218.476 139.778 219.317Z" fill="#263238"/>
<g opacity="0.2">
<path d="M233.986 246.465C234.59 256.213 236.22 265.87 238.849 275.276L239.496 271.594C237.582 263.535 236.29 255.342 235.63 247.085L233.986 246.465Z" fill="black"/>
<path d="M219.461 241.18C220.201 256.991 223.523 272.574 229.294 287.312H230.549C225.22 272.668 222.026 257.334 221.063 241.78L219.461 241.18Z" fill="black"/>
<path d="M205.004 235.9C205.493 253.55 209.202 270.961 215.949 287.277H217.156C210.945 271.009 207.37 253.854 206.566 236.46L205.004 235.9Z" fill="black"/>
<path d="M190.622 230.637C190.802 250.126 194.919 269.379 202.726 287.237H203.804C196.658 269.379 192.713 250.402 192.15 231.175L190.622 230.637Z" fill="black"/>
<path d="M176.247 225.371C176.096 246.726 180.604 267.856 189.456 287.29H190.54C182.338 267.855 177.991 247.011 177.74 225.917L176.247 225.371Z" fill="black"/>
<path d="M161.995 220.135C161.358 243.335 166.285 266.351 176.364 287.257H177.318C168.066 266.28 163.324 243.593 163.4 220.667L161.995 220.135Z" fill="black"/>
<path d="M147.729 214.932C146.596 239.973 151.932 264.884 163.223 287.264H164.103C153.722 264.764 148.581 240.203 149.066 215.429L147.729 214.932Z" fill="black"/>
<path d="M136.32 238.812L135.413 243.907C138.055 259.038 143.048 273.663 150.211 287.25H150.995C143.594 271.973 138.642 255.628 136.32 238.812Z" fill="black"/>
<path d="M130.64 270.803L130.278 272.849C132.329 277.765 134.651 282.565 137.234 287.224H137.855C135.166 281.879 132.757 276.398 130.64 270.803Z" fill="black"/>
</g>
<path opacity="0.1" d="M242.456 254.729L237.532 282.47C237.3 283.822 236.597 285.047 235.547 285.93C234.497 286.813 233.169 287.295 231.797 287.291H230.549H229.295H217.163H215.949H203.811H202.727H190.541H189.456H177.318H164.095H163.216H150.995H150.211H137.855H137.234H134.69L220.73 276.326C222.154 276.143 223.517 275.636 224.714 274.842C225.91 274.049 226.908 272.991 227.631 271.75L235.228 258.691C235.644 257.976 235.908 257.184 236.006 256.363C236.103 255.542 236.031 254.71 235.794 253.918C235.557 253.126 235.16 252.391 234.627 251.759C234.094 251.126 233.438 250.61 232.698 250.242L200.974 234.469L205.004 235.942L206.573 236.508L219.461 241.22L221.064 241.8L233.952 246.498L235.596 247.125L238.76 248.223C240.044 248.699 241.118 249.612 241.795 250.802C242.471 251.992 242.705 253.383 242.456 254.729Z" fill="black"/>
<path d="M24.4973 215.264C24.4973 215.264 8.45145 245.494 8.44463 245.541C5.89421 251.624 3.7734 257.005 2.93462 259.862C2.93058 259.878 2.93058 259.894 2.93462 259.91C2.62094 261.001 2.48455 261.724 2.60048 261.955C2.60048 261.955 2.60048 261.996 2.60048 262.01C3.90297 264.042 51.9109 285.796 53.8544 285.994C55.7979 286.191 56.4935 280.702 55.3001 278.37C54.1068 276.037 39.4452 259.487 39.4452 259.487L55.1842 229.127L24.4973 215.264Z" fill="#EB9481"/>
<path d="M53.0906 285.845C51.1607 285.648 3.90288 264.024 2.62767 262.06C2.62194 262.042 2.62194 262.023 2.62767 262.005C2.51174 261.753 2.62767 261.023 2.96182 259.959C2.95803 259.946 2.95803 259.932 2.96182 259.918C3.80059 257.034 5.92822 251.647 8.465 245.564C8.465 245.564 11.1927 240.279 12.2497 238.438L42.8139 253.208L39.4724 259.509C39.4724 259.509 53.3702 275.876 54.5635 278.235C55.7569 280.594 55.0273 286.043 53.0906 285.845Z" fill="#EBEBEB"/>
<path d="M53.9572 285.177C51.9932 284.931 4.11484 261.861 2.84644 259.816C2.35545 259.052 5.30822 251.878 9.12703 243.313L9.24978 243.047L40.3186 257.599L40.0526 258.118C40.0526 258.118 54.4345 275.166 55.587 277.532C56.7395 279.898 55.8802 285.422 53.9572 285.177Z" fill="#FFBA3B"/>
<path d="M54.2908 283.055C46.3122 278.97 13.7568 263.224 5.53953 259.815C5.47134 259.78 5.45088 259.815 5.53953 259.862C13.3545 264.083 46.0394 279.543 54.2294 283.184C54.3999 283.266 54.4613 283.143 54.2908 283.055Z" fill="white"/>
<path d="M42.5894 259.461C39.698 257.34 35.5791 255.956 32.0672 257.054C31.9308 257.095 31.9922 257.286 32.1081 257.306C35.6079 257.788 39.0462 258.643 42.3643 259.856C42.4168 259.886 42.4789 259.894 42.5371 259.878C42.5953 259.862 42.6448 259.824 42.6746 259.771C42.7045 259.719 42.7122 259.657 42.6962 259.598C42.6803 259.54 42.6418 259.491 42.5894 259.461Z" fill="#263238"/>
<path d="M44.2188 261.949C41.3274 259.815 37.2085 258.451 33.6898 259.535C33.5534 259.576 33.6148 259.774 33.7375 259.787C37.2445 260.271 40.6897 261.128 44.0142 262.345C44.0653 262.362 44.121 262.361 44.1711 262.341C44.2213 262.321 44.2625 262.283 44.2873 262.235C44.3122 262.187 44.3189 262.132 44.3063 262.079C44.2937 262.027 44.2627 261.981 44.2188 261.949Z" fill="#263238"/>
<path d="M45.8491 264.432C42.9577 262.311 38.8389 260.926 35.3201 262.024C35.1837 262.065 35.2451 262.256 35.361 262.277C38.8681 262.756 42.3135 263.611 45.6377 264.827C45.6895 264.849 45.7478 264.851 45.801 264.833C45.8543 264.814 45.8986 264.776 45.9251 264.726C45.9517 264.677 45.9587 264.619 45.9446 264.564C45.9305 264.51 45.8964 264.462 45.8491 264.432Z" fill="#263238"/>
<path d="M14.5687 252.24C11.9365 248.83 6.63785 252.922 9.27693 256.331C11.916 259.741 17.2078 255.656 14.5687 252.24Z" fill="white"/>
<path opacity="0.1" d="M42.1865 260.674L46.1554 281.814C50.4856 283.825 53.4793 285.142 53.9362 285.223C55.8729 285.469 56.7185 279.945 55.5796 277.572C54.7 275.724 46.244 265.516 42.1865 260.674Z" fill="black"/>
<path d="M55.498 283.813C56.1799 284.557 54.6251 287.346 53.8955 287.277C53.1658 287.209 1.06625 261.862 0.275208 261.214C-0.515832 260.566 1.34584 257.559 2.45057 257.893C3.5553 258.227 55.498 283.813 55.498 283.813Z" fill="#263238"/>
<path d="M12.0723 235.634L46.5303 252.853C46.5303 252.853 87.7598 190.6 88.1826 174.52C88.7691 152.316 67.9429 82.459 67.9429 82.459L37.7402 83.0727C37.7402 83.0727 51.9652 155.105 51.3038 167.482C50.956 173.961 12.0723 235.634 12.0723 235.634Z" fill="#37474F"/>
<path d="M48.6035 234.652C48.6035 234.652 49.19 269.11 49.19 269.137C49.5514 275.718 49.981 281.487 50.4856 284.447C50.4823 284.462 50.4823 284.479 50.4856 284.494C50.6766 285.613 50.8743 286.322 51.0857 286.499C51.0857 286.499 51.0857 286.533 51.1267 286.54C53.1725 287.761 105.858 286.417 107.679 285.756C109.5 285.095 107.747 279.844 105.633 278.255C103.519 276.666 83.1297 268.162 83.1297 268.162L82.2159 233.738L48.6035 234.652Z" fill="#EB9481"/>
<path d="M49.0674 262.058C49.0674 262.058 49.1901 269.109 49.1901 269.136C49.5516 275.717 49.9812 281.486 50.4858 284.446C50.4825 284.461 50.4825 284.478 50.4858 284.493C50.6031 285.184 50.8046 285.857 51.0859 286.498C51.0859 286.498 51.0859 286.532 51.1268 286.539C53.1726 287.76 105.859 286.417 107.679 285.755C109.5 285.094 107.748 279.843 105.634 278.254C103.52 276.665 83.1298 268.161 83.1298 268.161L82.9389 260.98L49.0674 262.058Z" fill="#EBEBEB"/>
<path d="M107.713 285.688C105.865 286.329 52.7224 286.827 50.6903 285.558C49.906 285.095 49.381 277.375 49.0195 267.985V267.692L83.307 267.01V267.589C83.307 267.589 103.765 276.495 105.811 278.125C107.857 279.755 109.561 285.047 107.713 285.688Z" fill="#FFBA3B"/>
<path d="M107.093 283.635C98.1328 283.498 61.9836 283.792 53.1117 284.317C53.0435 284.317 53.0435 284.371 53.1117 284.378C61.9768 284.706 98.1191 284.112 107.093 283.758C107.284 283.771 107.284 283.635 107.093 283.635Z" fill="white"/>
<path d="M86.1648 267.643C82.6323 267.022 78.3294 267.602 75.6562 270.139C75.5539 270.234 75.6971 270.384 75.8062 270.343C79.1645 269.227 82.6325 268.472 86.1511 268.093C86.2108 268.095 86.2688 268.073 86.3122 268.032C86.3557 267.991 86.3812 267.935 86.383 267.875C86.3848 267.815 86.3628 267.757 86.3219 267.714C86.281 267.67 86.2244 267.645 86.1648 267.643Z" fill="#263238"/>
<path d="M88.7351 269.157C85.2027 268.529 80.8997 269.109 78.2265 271.646C78.1242 271.748 78.2674 271.891 78.3765 271.857C81.738 270.734 85.211 269.977 88.7351 269.6C88.7872 269.591 88.8344 269.563 88.8684 269.523C88.9024 269.482 88.9211 269.431 88.9211 269.378C88.9211 269.325 88.9024 269.274 88.8684 269.234C88.8344 269.193 88.7872 269.166 88.7351 269.157Z" fill="#263238"/>
<path d="M91.2794 270.665C87.7538 270.038 83.444 270.624 80.7776 273.161C80.6685 273.257 80.7776 273.4 80.9276 273.366C84.2855 272.246 87.7536 271.49 91.2725 271.109C91.3248 271.1 91.3725 271.074 91.4072 271.034C91.4418 270.994 91.4613 270.943 91.4621 270.89C91.4629 270.837 91.445 270.785 91.4116 270.744C91.3782 270.703 91.3314 270.675 91.2794 270.665Z" fill="#263238"/>
<path d="M108.511 283.777C109.466 284.132 109.296 287.33 108.607 287.589C107.918 287.848 49.9607 288.142 48.9923 287.93C48.024 287.719 48.3104 284.18 49.4765 283.989C50.6426 283.798 108.511 283.777 108.511 283.777Z" fill="#263238"/>
<path d="M57.8371 273.563C53.9706 271.668 51.0178 277.655 54.898 279.578C58.7782 281.501 61.7173 275.452 57.8371 273.563Z" fill="white"/>
<path d="M67.5952 82.3828C67.4111 83.0102 57.3662 113.07 56.3502 113.54C55.2113 114.106 81.4793 155.636 83.491 175.207C84.7799 187.728 84.8549 258.757 84.8549 258.757L48.0442 259.814C48.0442 259.814 48.092 195.952 48.3852 175.712C48.5011 167.829 21.9058 129.477 20.9238 105.18C20.6238 97.5217 25.7451 83.358 25.7451 83.358L67.5952 82.3828Z" fill="#37474F"/>
<path d="M48.583 175.125C48.583 174.798 48.3102 174.702 48.2965 175.037C47.7646 186.002 47.8601 196.892 47.6146 207.865C47.3691 218.837 47.7578 221.435 47.5601 232.373C47.4509 238.572 47.8806 244.764 47.9078 250.956C47.9078 250.976 47.9157 250.995 47.9298 251.009C47.9439 251.023 47.963 251.031 47.9828 251.031C48.0027 251.031 48.0218 251.023 48.0359 251.009C48.05 250.995 48.0579 250.976 48.0579 250.956C48.9239 240.038 48.7398 181.324 48.583 175.125Z" fill="#263238"/>
<path d="M61.3418 111.789C57.4304 112.885 53.6221 114.32 49.9604 116.078C49.8172 116.147 49.8922 116.365 50.0422 116.31C53.8679 115.001 57.7549 113.767 61.5055 112.219C61.543 112.186 61.5695 112.142 61.5814 112.093C61.5934 112.045 61.5903 111.994 61.5725 111.947C61.5547 111.9 61.5231 111.86 61.4819 111.832C61.4407 111.804 61.3918 111.789 61.3418 111.789Z" fill="#263238"/>
<path d="M64.3636 86.502C64.3636 86.3725 64.1385 86.3247 64.1317 86.502C63.8217 90.6332 63.3028 94.7459 62.5769 98.8245C62.2632 100.72 59.9379 111.147 56.685 110.131C56.1395 109.96 55.9008 109.394 55.8735 108.556C55.97 107.464 56.199 106.387 56.5555 105.351C57.0874 103.175 57.5511 100.979 57.9193 98.7632C58.6176 94.6308 58.8896 90.4377 58.7308 86.2497C58.7308 86.2208 58.7193 86.193 58.6989 86.1726C58.6784 86.1521 58.6507 86.1406 58.6217 86.1406C58.5928 86.1406 58.565 86.1521 58.5446 86.1726C58.5241 86.193 58.5126 86.2208 58.5126 86.2497C58.1788 92.0144 57.4083 97.7454 56.2077 103.393C55.5871 106.121 53.8959 110.131 56.7328 110.765C59.5696 111.399 62.0314 104.628 62.5292 102.78C63.845 97.4565 64.4616 91.9846 64.3636 86.502Z" fill="#263238"/>
<path d="M56.7525 110.391C56.4034 111.08 56.0982 111.791 55.8388 112.519C55.5848 113.078 55.4346 113.679 55.3955 114.292C55.3989 114.316 55.4093 114.339 55.4254 114.358C55.4415 114.377 55.4626 114.391 55.4862 114.398C55.5099 114.405 55.5351 114.405 55.5589 114.399C55.5827 114.392 55.6041 114.378 55.6205 114.36C56.0064 113.846 56.3101 113.276 56.5207 112.669C56.8276 111.987 57.1412 111.36 57.4277 110.698C57.4684 110.609 57.4718 110.507 57.4373 110.414C57.4028 110.322 57.3331 110.248 57.2435 110.207C57.154 110.166 57.052 110.163 56.9599 110.197C56.8678 110.232 56.7932 110.302 56.7525 110.391Z" fill="#263238"/>
<path d="M23.0793 86.4479C23.1679 86.5911 70.1734 92.3262 70.6917 91.9034C70.8758 91.7602 72.0556 49.7464 67.1116 38.59C65.0658 33.9938 56.828 31.5525 52.2182 36.4283C29.694 60.3027 22.977 86.2706 23.0793 86.4479Z" fill="#EBEBEB"/>
<path d="M58.6895 33.1816C56.3778 34.0953 56.5687 37.1572 58.1508 40.9147C59.7329 44.6721 62.2015 47.3384 64.7314 47.1407C67.2614 46.9429 68.2093 43.3628 68.4411 41.3034C68.6252 39.6804 68.032 36.4139 65.2429 34.825C62.4538 33.2361 60.0056 32.6497 58.6895 33.1816Z" fill="#455A64"/>
<path d="M64.0905 45.688C61.315 45.2652 58.1099 39.1005 57.6599 35.2749C57.6258 35.0089 58.8737 32.8813 60.258 30.215C61.0968 28.5988 61.9901 26.8053 62.6857 25.0527L72.4237 32.0493C70.9385 33.9538 69.6927 36.0334 68.714 38.2413C68.6194 38.4792 68.5486 38.7259 68.5026 38.9778C68.5026 38.9778 68.5026 39.0528 68.5026 39.1005C68.148 40.5326 66.7705 46.1176 64.0905 45.688Z" fill="#EB9481"/>
<path d="M68.5023 38.9858C68.4996 39.0244 68.4996 39.0631 68.5023 39.1017C68.1152 39.0052 67.7366 38.8775 67.3702 38.7198C61.1783 36.0603 62.7945 27.8089 63.3741 25.5449L65.7745 27.277L72.4234 32.0505C70.9373 33.9544 69.6914 36.0341 68.7137 38.2425C68.6186 38.4826 68.5478 38.7316 68.5023 38.9858Z" fill="#263238"/>
<path d="M64.6087 12.9556C62.4538 16.6994 61.881 28.8105 64.1791 32.0497C67.466 36.755 74.1762 38.678 78.4997 34.4228C82.7072 30.3312 83.1368 14.4968 80.4773 11.4076C76.5766 6.87958 67.7865 7.43195 64.6087 12.9556Z" fill="#EB9481"/>
<path d="M74.0738 23.2871C74.0738 23.2871 74.0056 23.328 74.0056 23.3621C74.0056 24.1736 73.8351 25.1079 73.085 25.3397C73.085 25.3397 73.085 25.3943 73.085 25.3875C73.9987 25.3056 74.1897 24.0645 74.0738 23.2871Z" fill="#263238"/>
<path d="M73.3851 22.3999C72.0758 22.2363 71.8439 24.8617 73.0577 25.0117C74.2716 25.1617 74.483 22.5363 73.3851 22.3999Z" fill="#263238"/>
<path d="M78.7042 23.5469C78.7042 23.5469 78.7587 23.5946 78.7587 23.6287C78.6565 24.4402 78.6837 25.3813 79.3929 25.7222C79.3929 25.7222 79.3929 25.77 79.3929 25.7632C78.5064 25.5586 78.5064 24.3038 78.7042 23.5469Z" fill="#263238"/>
<path d="M79.5021 22.7618C80.8182 22.7618 80.6886 25.4145 79.5021 25.4008C78.3155 25.3872 78.3974 22.7481 79.5021 22.7618Z" fill="#263238"/>
<path d="M73.7325 19.3187C73.3847 19.4483 73.0505 19.6256 72.7505 19.7824C72.383 19.9069 72.0651 20.1459 71.8435 20.4643C71.7914 20.5801 71.7792 20.7098 71.8088 20.8333C71.8384 20.9567 71.9082 21.0668 72.0072 21.1463C72.2145 21.266 72.4497 21.329 72.6891 21.329C72.9285 21.329 73.1637 21.266 73.371 21.1463C73.8384 20.9576 74.2196 20.6031 74.4417 20.1506C74.494 20.0464 74.5145 19.929 74.5005 19.8132C74.4865 19.6973 74.4387 19.5882 74.363 19.4994C74.2873 19.4106 74.1872 19.3461 74.075 19.314C73.9628 19.2818 73.8437 19.2835 73.7325 19.3187Z" fill="#263238"/>
<path d="M79.8703 20.0624C80.1723 20.2605 80.4637 20.4745 80.7431 20.7034C81.0784 20.892 81.3439 21.1838 81.5001 21.5354C81.5285 21.655 81.5156 21.7807 81.4636 21.8921C81.4116 22.0035 81.3236 22.094 81.2137 22.1491C80.9828 22.2302 80.7343 22.2476 80.4943 22.1996C80.2544 22.1516 80.0317 22.04 79.8498 21.8763C79.4267 21.6004 79.1207 21.1778 78.9906 20.6898C78.9686 20.5779 78.9794 20.4621 79.0216 20.3562C79.0637 20.2504 79.1355 20.1589 79.2283 20.0927C79.3211 20.0265 79.431 19.9885 79.5448 19.9831C79.6587 19.9777 79.7716 20.0052 79.8703 20.0624Z" fill="#263238"/>
<path d="M73.4332 28.075C73.6145 28.409 73.8624 28.7024 74.1614 28.937C74.4605 29.1715 74.8045 29.3423 75.1721 29.4388C75.4956 29.5323 75.831 29.5782 76.1677 29.5752C76.2312 29.5821 76.2952 29.5821 76.3587 29.5752H76.536C76.5809 29.5702 76.6229 29.5509 76.6561 29.5203C76.6892 29.4896 76.7116 29.4491 76.7201 29.4047V29.3229V29.2547C76.7883 28.6342 76.8156 27.6726 76.8156 27.6726C77.0338 27.809 78.1794 28.4364 78.1794 28.1091C78.344 25.2789 78.2252 22.4393 77.8248 19.6327C77.8198 19.6158 77.8094 19.601 77.7953 19.5904C77.7812 19.5799 77.764 19.5742 77.7464 19.5742C77.7288 19.5742 77.7116 19.5799 77.6975 19.5904C77.6834 19.601 77.673 19.6158 77.668 19.6327C77.4907 22.2445 77.7703 24.8767 77.668 27.5022C77.2691 27.2725 76.8398 27.1003 76.3928 26.9907C76.3041 26.9907 76.3928 28.8456 76.3246 29.1183C75.8066 29.1243 75.2927 29.026 74.8135 28.8291C74.3344 28.6323 73.8997 28.341 73.5355 27.9727C73.4605 27.9591 73.3923 28.0068 73.4332 28.075Z" fill="#263238"/>
<path d="M63.0192 28.5723C63.0192 28.5723 61.7713 28.2518 61.5736 27.3789C61.3758 26.506 62.5964 24.4261 60.5984 22.9395C59.9165 22.4213 59.3368 22.1008 59.0981 21.3847C58.6412 20.0209 59.4459 19.1753 59.3436 18.3365C59.2141 17.3 57.4615 16.809 57.5365 14.8382C57.632 12.2128 59.9437 11.8513 60.4688 11.0262C60.9939 10.2011 60.6734 8.82355 62.1327 7.39832C63.4966 6.08219 65.3378 6.81186 66.5653 6.38224C67.7928 5.95262 67.7109 3.92729 69.9749 3.27945C71.6252 2.80892 73.3028 4.54785 74.4348 4.41828C76.2146 4.20688 76.4806 2.54979 78.7855 2.54297C81.3359 2.54297 84.05 7.22784 84.2819 8.93948C84.5478 10.8489 83.1158 11.7354 83.2931 12.9424C83.5454 14.6677 85.0115 14.7973 84.8615 16.2771C84.7115 17.7569 83.6681 18.3229 83.4976 19.2162C83.2658 20.4641 83.4431 20.7573 83.2249 21.8416C83.0424 22.5539 82.5996 23.1719 81.9837 23.5737C81.9837 23.5737 82.3861 17.8796 81.0427 13.8494C80.5994 12.4855 79.8698 11.5104 79.4401 11.5376C78.8878 11.5376 78.8605 13.6516 77.9194 13.6584C76.9784 13.6653 75.3622 11.2308 73.9642 11.7831C72.1094 12.5196 72.4504 15.3292 70.5546 15.9429C68.6588 16.5567 67.745 15.9088 67.0836 16.6794C66.2516 17.6341 67.0836 18.5683 66.9199 20.505C66.763 22.2508 66.2925 22.7827 66.2925 22.7827H64.9764C64.9764 22.7827 63.6603 21.3234 63.1556 21.4188C62.651 21.5143 63.0192 28.5723 63.0192 28.5723Z" fill="#263238"/>
<path d="M61.0079 9.78516C60.6123 11.7423 57.9733 12.1378 57.3323 13.9313C56.9095 15.4247 57.6528 16.5295 58.7643 17.4773C59.0916 17.8047 59.5349 18.2206 59.4462 18.7321C59.4462 18.2275 58.9962 17.9342 58.6347 17.6546C58.1994 17.4018 57.8182 17.0658 57.5128 16.6656C57.2074 16.2654 56.9839 15.809 56.8549 15.3224C56.7381 14.8152 56.7664 14.2853 56.9364 13.7933C57.1064 13.3013 57.4114 12.8671 57.8164 12.5402C58.8598 11.5718 60.4623 11.1763 61.0351 9.81243L61.0079 9.78516Z" fill="#263238"/>
<path d="M83.5321 13.748C84.1322 14.3549 85.1142 14.6481 85.4279 15.5415C85.9189 16.9599 84.9915 17.7646 83.9959 18.5624C83.771 18.7402 83.5988 18.976 83.498 19.2443C83.5106 18.9381 83.6259 18.6451 83.8254 18.4124C84.2959 17.7987 85.046 17.2054 85.0938 16.428C85.1256 16.172 85.1019 15.9122 85.0243 15.6662C84.9466 15.4203 84.8168 15.194 84.6437 15.0027C84.2146 14.6318 83.8424 14.1999 83.539 13.7207L83.5321 13.748Z" fill="#263238"/>
<path d="M64.9153 23.0074C64.9153 23.0074 63.0604 18.6771 61.151 19.2636C59.2416 19.8501 60.094 25.7351 61.9421 26.9012C62.1689 27.0683 62.4273 27.1875 62.7016 27.2516C62.9759 27.3158 63.2604 27.3235 63.5378 27.2744C63.8152 27.2253 64.0797 27.1204 64.3153 26.966C64.551 26.8116 64.7527 26.6109 64.9085 26.3761L64.9153 23.0074Z" fill="#EB9481"/>
<path d="M61.4577 20.9492C61.4577 20.9492 61.41 20.9833 61.4577 20.997C62.7466 21.863 63.2171 23.3292 63.4558 24.7885C63.4038 24.629 63.3181 24.4827 63.2044 24.3594C63.0908 24.2361 62.9519 24.1388 62.7972 24.074C62.6425 24.0093 62.4756 23.9787 62.308 23.9843C62.1404 23.9899 61.976 24.0316 61.826 24.1066C61.8171 24.1101 61.8095 24.1162 61.8042 24.1241C61.7988 24.132 61.796 24.1413 61.796 24.1509C61.796 24.1604 61.7988 24.1698 61.8042 24.1777C61.8095 24.1856 61.8171 24.1917 61.826 24.1952C62.0902 24.1665 62.3569 24.2207 62.589 24.3502C62.8211 24.4797 63.0073 24.6781 63.1217 24.9181C63.2975 25.3294 63.4256 25.7596 63.5035 26.2001C63.5444 26.3433 63.7831 26.3228 63.7695 26.166C64.1855 24.3384 63.3262 21.5289 61.4577 20.9492Z" fill="#263238"/>
<path d="M48.863 44.0582C44.3145 57.5059 38.6341 79.8664 41.4027 83.4193C48.3379 92.3253 62.4948 100.468 68.8368 102.813C72.5397 104.177 80.8047 85.0286 77.5792 83.6375C72.4919 81.4417 58.2464 74.3223 56.562 73.1835C55.6619 72.5765 56.6507 55.3305 55.6141 45.4152C54.489 34.6407 51.0861 37.5048 48.863 44.0582Z" fill="#EB9481"/>
<path d="M81.0225 82.2207C87.3712 83.8232 88.7351 85.2417 94.8043 83.7141C98.7799 82.739 101.112 84.8598 97.9207 87.683C92.7039 92.2996 84.098 91.9519 81.152 90.9767L81.0225 82.2207Z" fill="#EB9481"/>
<path d="M42.1521 128.646C43.7683 130.869 47.6076 129.941 53.9973 125.277C69.1157 114.277 140.166 57.3496 140.166 57.3496C140.166 57.3496 64.1308 107.417 49.0124 118.417C42.5954 123.088 40.5428 126.429 42.1521 128.646ZM70.9024 107.744C70.9024 107.744 55.9613 120.394 50.8604 124.111C48.6987 125.679 47.4098 125.727 46.987 125.147C46.5642 124.568 46.987 123.347 49.1624 121.778C54.2632 118.055 70.9024 107.744 70.9024 107.744Z" fill="#A6A6A6"/>
<path d="M65.6318 81.5039C69.7035 80.9133 73.8404 80.9316 77.9066 81.5584C82.6801 82.2745 92.9091 84.9681 98.3645 98.3817C99.6466 101.559 99.2238 106.994 95.2413 102.569C92.4181 99.425 91.5725 96.5746 89.5949 95.0675C89.5949 95.0675 88.231 101.921 85.0055 103.08C82.1806 104.098 79.2864 104.911 76.345 105.515C76.1131 105 75.9127 104.472 75.7449 103.933C75.7449 103.933 70.7259 105.556 67.1457 101.941L65.6318 81.5039Z" fill="#EB9481"/>
<path d="M82.3868 82.9707C84.0303 84.9074 87.4399 89.0603 89.0493 93.4247C90.836 98.2801 92.9704 108.107 89.3766 109.389C86.7376 110.33 85.5919 106.661 85.5919 106.661C85.5919 106.661 85.5919 110.909 83.0551 111.237C80.7161 111.537 80.0001 108.639 80.0001 108.639C80.0001 108.639 79.5705 111.216 77.2723 111.073C74.4901 110.896 75.8471 105.515 73.1808 102.89C72.5807 102.29 82.3868 82.9707 82.3868 82.9707Z" fill="#EB9481"/>
<path d="M83.6073 94.4605C85.5051 98.1931 86.2188 102.416 85.6531 106.565C85.6531 106.667 85.544 106.715 85.544 106.613C85.3736 102.5 84.7026 98.4241 83.5459 94.4742C83.5459 94.4742 83.5936 94.4333 83.6073 94.4605Z" fill="#263238"/>
<path d="M78.7656 96.4039C79.6521 98.2997 81.0773 103.973 80.1295 108.61C80.1295 108.713 80.0135 108.754 80.0135 108.651C80.056 104.539 79.6328 100.435 78.752 96.4175C78.752 96.4175 78.752 96.3766 78.7656 96.4039Z" fill="#263238"/>
<path d="M63.7831 103.195L74.087 79.8731L57.407 72.4605C57.2774 64.2773 57.2911 47.0313 56.35 41.3781C55.2453 34.7497 51.6174 35.7862 48.801 42.06C42.3568 56.3465 37.972 79.9754 39.1176 83.7192C40.7542 89.0519 63.7831 103.195 63.7831 103.195Z" fill="#EBEBEB"/>
<path d="M59.7874 98.3743C60.1624 96.799 62.7538 90.6548 63.4221 89.1341C64.0904 87.6134 66.9476 81.592 67.6364 80.0235C67.6364 79.9417 67.8001 79.969 67.766 80.0576C67.084 81.6124 64.7177 87.8657 64.0699 89.4001C63.4221 90.9344 60.7762 97.0241 59.8692 98.4016C59.8656 98.4124 59.8578 98.4214 59.8476 98.4265C59.8373 98.4316 59.8255 98.4325 59.8146 98.4288C59.8038 98.4252 59.7948 98.4175 59.7897 98.4072C59.7846 98.397 59.7838 98.3851 59.7874 98.3743Z" fill="#263238"/>
<path d="M57.1351 50.7831C57.6875 57.9366 57.2238 65.1582 57.6943 72.3048C62.6656 74.7325 68.8643 77.3443 74.1084 79.8061L73.7674 80.4062L74.0538 79.772V79.8197C68.5984 77.7262 63.1429 75.5918 57.8989 73.1027C57.5784 72.9118 57.0737 72.7958 57.0056 72.3321C56.5214 65.2332 57.0942 57.8479 57.1078 50.7422L57.1351 50.7831Z" fill="#263238"/>
<path d="M57.7486 51.6152C57.7369 52.5369 57.5373 53.4465 57.1621 54.2884C57.3599 53.4087 57.469 52.4745 57.7486 51.6152Z" fill="#263238"/>
<path d="M64.752 101.006L63.8314 103.216V103.277H63.77C55.7232 98.3875 47.4719 93.4435 40.8367 86.672C39.8172 85.6841 39.0722 84.4479 38.675 83.085C38.5302 81.725 38.5302 80.3534 38.675 78.9934C39.1208 74.9601 39.8177 70.9585 40.7617 67.0119C42.0232 61.7678 43.2303 56.4692 45.2215 51.457C43.4962 56.5579 42.4051 61.8565 41.2595 67.1414C40.3964 71.0787 39.7499 75.0604 39.3228 79.0684C39.1796 80.3829 39.1796 81.7091 39.3228 83.0236C39.7091 84.2535 40.3904 85.3702 41.3072 86.2764C47.8674 93.0275 56.0096 98.0397 63.8109 103.229H63.7291L64.752 101.061V101.006Z" fill="#263238"/>
<path d="M44.1034 54.5539C44.0438 53.6265 44.1809 52.6969 44.5058 51.8262C44.3694 52.7127 44.3148 53.6469 44.1034 54.5539Z" fill="#263238"/>
<path d="M46.1282 123.661C43.08 125.325 42.7186 128.625 42.6572 131.769C42.589 134.128 42.6572 136.501 42.7663 138.861C43.0934 144.926 43.7765 150.967 44.8121 156.953C45.7857 163.057 47.2753 169.069 49.2651 174.921C50.9154 179.593 52.9884 184.537 56.5277 188.117C57.8751 189.557 59.5743 190.622 61.458 191.206C63.3938 191.674 65.42 191.61 67.3226 191.022C71.2233 189.903 74.367 187.053 76.8697 183.95C79.9929 180.05 82.4411 175.665 84.7733 171.259C87.3441 166.397 89.7718 161.46 92.4723 156.666C95.0977 152.002 97.88 147.576 101.337 143.819C102.184 142.904 103.076 142.032 104.011 141.207C104.796 140.486 105.64 139.831 106.534 139.25C107.516 138.586 108.547 137.996 109.616 137.483C109.882 137.354 110.155 137.231 110.428 137.115C110.087 137.258 110.741 136.999 110.843 136.958C111.446 136.727 112.061 136.526 112.685 136.358C113.217 136.208 113.755 136.085 114.301 135.976C114.601 135.922 114.901 135.867 115.201 135.826C115.712 135.744 114.853 135.826 115.365 135.826L115.828 135.772C116.277 135.761 116.705 135.578 117.022 135.261C117.34 134.943 117.523 134.516 117.533 134.067C117.528 133.616 117.347 133.186 117.028 132.867C116.709 132.549 116.279 132.367 115.828 132.362C110.882 132.9 106.21 134.907 102.415 138.124C98.4733 141.343 95.3432 145.51 92.6086 149.779C86.9282 158.644 82.973 168.498 77.347 177.397C76.7401 178.352 76.1059 179.299 75.4444 180.22C75.2808 180.452 75.1103 180.684 74.9398 180.902L74.7284 181.188C74.5579 181.407 74.9739 180.875 74.7284 181.229C74.4829 181.584 74.0465 182.082 73.6919 182.491C73.0194 183.279 72.2998 184.026 71.537 184.728C71.2096 185.034 70.855 185.321 70.5141 185.607C70.1731 185.894 70.7323 185.444 70.5141 185.607L70.2754 185.791C70.0572 185.948 69.8321 186.105 69.5935 186.255C69.2389 186.496 68.8774 186.723 68.5092 186.937C68.3046 187.046 68.1069 187.148 67.9023 187.244L67.6977 187.339C67.2613 187.551 67.8682 187.285 67.5886 187.387C66.7915 187.692 65.9672 187.92 65.1268 188.069C64.629 188.117 65.0177 188.069 65.1268 188.069H64.7927L64.2199 188.103C63.9948 188.103 63.7766 188.103 63.5379 188.103C63.4152 188.103 62.7605 188.035 63.0401 188.103C63.3197 188.171 62.7537 188.042 62.6582 188.021C62.4554 187.975 62.2551 187.918 62.0581 187.851C61.8945 187.803 61.7308 187.735 61.5671 187.674C62.0718 187.864 61.3421 187.558 61.2057 187.489C60.8498 187.297 60.5059 187.083 60.176 186.848C60.0805 186.787 59.9919 186.719 59.9032 186.651C60.2306 186.896 60.0464 186.76 59.9714 186.698C59.76 186.528 59.5486 186.351 59.3509 186.16C59.0167 185.853 58.703 185.525 58.3962 185.191L57.8915 184.598L57.7279 184.393C57.5574 184.182 57.8574 184.584 57.5847 184.209C56.2015 182.27 55.0267 180.19 54.0795 178.004C53.6363 176.995 53.1657 175.822 52.7157 174.546C52.2656 173.271 51.7951 171.873 51.3518 170.516C50.5471 167.618 49.8243 164.699 49.1833 161.767C47.9349 155.892 47.0467 149.945 46.5237 143.962C46.2851 141.295 46.1214 138.622 46.0532 135.942C45.9281 133.746 45.9737 131.544 46.1896 129.355C46.2516 128.673 46.466 128.013 46.817 127.425C47.0897 127.002 46.6192 127.602 46.9534 127.254C47.058 127.141 47.1696 127.034 47.2875 126.934C47.0147 127.166 47.3966 126.859 47.4375 126.838C47.4784 126.818 47.7035 126.682 47.8399 126.607C49.7629 125.55 48.0444 122.61 46.1146 123.661H46.1282Z" fill="#263238"/>
</g>
<defs>
<clipPath id="clip0_777_41072">
<rect width="263.832" height="288" fill="white" transform="translate(0.0839844)"/>
</clipPath>
</defs>
</svg>
