<svg width="348" height="228" viewBox="0 0 348 228" fill="none" xmlns="http://www.w3.org/2000/svg">
<path d="M329.011 35.123L341.966 53.7563L325.85 50.4299L329.011 35.123Z" fill="#FFEFB8"/>
<path d="M206.625 55.0755L206.375 53.2332C205.732 49.4064 206.779 45.1248 210.106 40.6442C213.102 36.664 214.735 33.8209 214.553 30.5969C214.348 26.9578 211.931 24.6607 207.433 24.8426C204.862 24.9761 202.393 25.8884 200.353 27.4582L198.391 23.0572C200.665 21.2149 204.646 19.8446 208.428 19.6456C216.634 19.185 220.626 24.0409 220.939 29.4597C221.212 34.3099 218.698 37.9604 215.502 42.2136C212.568 46.0971 211.607 49.3041 212.022 52.9261L212.198 54.7798L206.625 55.0755ZM205.613 65.1512C205.465 62.5128 207.143 60.5568 209.639 60.4147C212.136 60.2725 213.955 62.0352 214.103 64.6735C214.24 67.1697 212.71 69.1883 210.071 69.3361C207.569 69.4783 205.755 67.6644 205.613 65.1512Z" fill="#FFEFB8"/>
<path d="M47.1212 41.1554L40.7008 38.2441L39.8079 40.2115C39.6753 40.4908 39.4693 40.7288 39.2119 40.9001C38.9544 41.0713 38.6553 41.1694 38.3464 41.1838C37.9938 41.1838 37.647 41.235 37.2944 41.2862C36.9885 41.3361 36.6748 41.2998 36.3885 41.1812C36.1022 41.0627 35.8547 40.8667 35.6736 40.6152L34.4168 38.8639L28.6959 42.9693L29.9527 44.7206C30.1285 44.9748 30.232 45.272 30.2521 45.5805C30.2721 45.8889 30.2079 46.1971 30.0664 46.4719C29.9032 46.7841 29.757 47.1048 29.6285 47.4328C29.5183 47.7227 29.3296 47.9762 29.0836 48.165C28.8375 48.3537 28.5438 48.4704 28.2352 48.5018L26.0913 48.7122L26.7794 55.7231L28.9347 55.507C29.2438 55.4824 29.5538 55.5424 29.8314 55.6806C30.1089 55.8189 30.3435 56.0301 30.51 56.2917C30.601 56.4396 30.6976 56.5817 30.8 56.7239C30.9024 56.866 31.0047 57.0025 31.1128 57.1333C31.309 57.372 31.4352 57.6605 31.4774 57.9666C31.5196 58.2728 31.476 58.5846 31.3516 58.8675L30.4531 60.8406L36.8735 63.7518L37.7664 61.7845C37.8997 61.5057 38.1082 61.2696 38.3684 61.1029C38.6286 60.9361 38.9302 60.8453 39.2393 60.8406C39.5881 60.8406 39.935 60.8065 40.28 60.7382C40.5847 60.6939 40.8957 60.7329 41.18 60.851C41.4644 60.9692 41.7114 61.162 41.895 61.4092L43.1518 63.1605L48.9069 59.0381L47.6501 57.2868C47.47 57.0344 47.364 56.7367 47.3439 56.4273C47.3238 56.1179 47.3904 55.8091 47.5364 55.5355C47.6879 55.2264 47.8227 54.9094 47.9401 54.5859C48.0528 54.2971 48.242 54.0445 48.4875 53.8551C48.733 53.6658 49.0254 53.5469 49.3334 53.5112L51.4887 53.3008L50.7949 46.2842L48.6396 46.4946C48.3318 46.5217 48.0225 46.4626 47.7464 46.3241C47.4702 46.1855 47.238 45.9729 47.0757 45.7099C46.979 45.5678 46.8824 45.42 46.78 45.2778C46.6776 45.1357 46.5753 44.9992 46.4672 44.8627C46.2734 44.6216 46.1487 44.3323 46.1066 44.0259C46.0646 43.7194 46.1067 43.4072 46.2284 43.1228L47.1212 41.1554ZM43.4816 47.6432C44.1459 48.5716 44.5199 49.6761 44.5563 50.817C44.5927 51.9579 44.29 53.084 43.6863 54.0528C43.0827 55.0217 42.2052 55.7898 41.165 56.2601C40.1247 56.7303 38.9683 56.8815 37.8421 56.6947C36.7159 56.5078 35.6703 55.9911 34.8378 55.2101C34.0052 54.4291 33.4229 53.4188 33.1646 52.3069C32.9063 51.195 32.9836 50.0315 33.3867 48.9635C33.7898 47.8955 34.5005 46.9711 35.4291 46.307C36.6742 45.4166 38.222 45.0571 39.7321 45.3077C41.2423 45.5583 42.591 46.3984 43.4816 47.6432Z" fill="#FFEFB8"/>
<path d="M337.093 134.191L332.816 136.659L333.573 137.967C333.684 138.154 333.74 138.369 333.733 138.587C333.726 138.805 333.656 139.016 333.533 139.195C333.399 139.403 333.275 139.617 333.163 139.838C333.067 140.031 332.918 140.194 332.735 140.309C332.551 140.423 332.339 140.485 332.123 140.486H330.61V145.421H332.111C332.329 145.419 332.543 145.48 332.728 145.596C332.912 145.712 333.059 145.878 333.152 146.075C333.264 146.294 333.387 146.506 333.522 146.712C333.645 146.892 333.715 147.103 333.722 147.32C333.729 147.538 333.673 147.753 333.561 147.94L332.805 149.254L337.081 151.716L337.844 150.402C337.954 150.216 338.114 150.064 338.306 149.964C338.498 149.863 338.714 149.818 338.93 149.834H339.294H339.658C339.874 149.818 340.09 149.863 340.282 149.964C340.473 150.064 340.633 150.216 340.744 150.402L341.5 151.716L345.777 149.254L345.02 147.94C344.913 147.751 344.86 147.535 344.868 147.317C344.876 147.099 344.945 146.888 345.066 146.706C345.197 146.502 345.322 146.291 345.435 146.07C345.532 145.876 345.681 145.713 345.864 145.598C346.048 145.484 346.26 145.423 346.476 145.421H347.989V140.486H346.476C346.26 140.485 346.048 140.423 345.864 140.309C345.681 140.194 345.532 140.031 345.435 139.838C345.322 139.616 345.197 139.406 345.066 139.201C344.945 139.021 344.876 138.81 344.868 138.593C344.86 138.376 344.913 138.161 345.02 137.973L345.777 136.659L341.512 134.191L340.755 135.505C340.643 135.689 340.482 135.84 340.291 135.94C340.1 136.04 339.885 136.086 339.669 136.073C339.55 136.073 339.43 136.073 339.305 136.073C339.18 136.073 339.061 136.073 338.941 136.073C338.725 136.087 338.508 136.042 338.316 135.942C338.123 135.841 337.962 135.69 337.849 135.505L337.093 134.191ZM339.305 138.911C340.105 138.912 340.886 139.15 341.55 139.595C342.214 140.04 342.731 140.672 343.037 141.41C343.342 142.149 343.421 142.962 343.264 143.746C343.108 144.53 342.722 145.249 342.156 145.814C341.591 146.379 340.87 146.764 340.086 146.919C339.302 147.075 338.489 146.994 337.751 146.688C337.012 146.382 336.381 145.864 335.937 145.199C335.493 144.534 335.256 143.753 335.256 142.954C335.255 142.421 335.358 141.894 335.561 141.402C335.764 140.91 336.062 140.462 336.438 140.086C336.814 139.709 337.261 139.41 337.753 139.207C338.245 139.003 338.773 138.899 339.305 138.899V138.911Z" fill="#FFEFB8"/>
<path d="M60.0986 20.1453L56.1803 23.1419L57.0959 24.3416C57.2282 24.5149 57.3094 24.7217 57.3305 24.9387C57.3516 25.1557 57.3117 25.3743 57.2153 25.5698C57.1065 25.7911 57.0116 26.019 56.931 26.2521C56.8598 26.4568 56.7334 26.6379 56.5658 26.7753C56.3983 26.9128 56.196 27.0013 55.9813 27.0311L54.48 27.2245L55.1169 32.1202L56.6182 31.9268C56.8365 31.8915 57.0603 31.9206 57.2623 32.0105C57.4643 32.1003 57.6357 32.2471 57.7556 32.4329C57.8949 32.6305 58.0449 32.8203 58.2049 33.0015C58.3483 33.1655 58.4433 33.3661 58.4795 33.5809C58.5156 33.7958 58.4914 34.0164 58.4096 34.2183L57.8409 35.6114L62.3904 37.5106L62.959 36.1061C63.0448 35.9062 63.1842 35.734 63.3619 35.6085C63.5396 35.483 63.7485 35.4093 63.9656 35.3953L64.3296 35.3612L64.6878 35.3044C64.8983 35.2647 65.1156 35.2835 65.3161 35.3587C65.5166 35.4339 65.6927 35.5626 65.8252 35.7308L66.7465 36.959L70.6647 33.9624L69.7491 32.757C69.6143 32.586 69.5313 32.38 69.5101 32.1633C69.489 31.9465 69.5305 31.7283 69.6297 31.5345C69.7385 31.3132 69.8335 31.0853 69.914 30.8522C69.9856 30.6482 70.1122 30.468 70.2798 30.3315C70.4474 30.1951 70.6495 30.1076 70.8637 30.0789L72.3651 29.8798L71.7281 24.9841L70.2268 25.1775C70.0086 25.2128 69.7847 25.1837 69.5827 25.0938C69.3807 25.004 69.2093 24.8572 69.0894 24.6714C68.9503 24.4737 68.8003 24.2839 68.6402 24.1028C68.4968 23.9388 68.4017 23.7382 68.3656 23.5234C68.3294 23.3085 68.3536 23.0879 68.4355 22.886L69.0041 21.4872L64.4547 19.5938L63.886 20.9925C63.8 21.1917 63.6603 21.3631 63.4826 21.4876C63.3049 21.6121 63.0961 21.6848 62.8794 21.6976L62.5155 21.7374L62.1572 21.7943C61.9462 21.8339 61.7284 21.8146 61.5277 21.7383C61.327 21.6621 61.1512 21.5319 61.0198 21.3621L60.0986 20.1453ZM62.9022 24.5406C63.6943 24.4388 64.4989 24.5739 65.2144 24.9287C65.9299 25.2836 66.5243 25.8424 66.9225 26.5346C67.3208 27.2268 67.5051 28.0214 67.4521 28.8183C67.3992 29.6151 67.1115 30.3784 66.6252 31.0119C66.1389 31.6454 65.4759 32.1207 64.7198 32.3779C63.9636 32.635 63.1483 32.6625 62.3765 32.4569C61.6048 32.2513 60.9112 31.8217 60.3834 31.2224C59.8555 30.6231 59.517 29.8809 59.4105 29.0895C59.3386 28.5612 59.3721 28.024 59.5091 27.5087C59.646 26.9935 59.8836 26.5105 60.2083 26.0875C60.5329 25.6646 60.9381 25.3102 61.4005 25.0447C61.8629 24.7792 62.3732 24.6079 62.9022 24.5406Z" fill="#FFEFB8"/>
<path d="M30.8227 148.435C31.0361 142.938 30.9602 137.434 30.5952 131.945C29.7815 120.613 28.0528 109.365 25.4259 98.3118C23.9814 92.0571 22.2071 85.9674 20.3532 79.8548C20.2964 79.6729 20.0006 79.7241 20.0518 79.9174C25.7785 101.439 30.4758 123.677 30.1403 146.075C30.0493 152.329 29.3214 158.505 28.7299 164.731C28.7299 164.901 28.9858 164.964 29.0256 164.793C30.2142 159.465 30.6009 153.876 30.8227 148.435Z" fill="#FFEFB8"/>
<path d="M20.0517 79.8945C20.0517 79.8945 11.3736 101.9 13.3242 107.068C15.2748 112.237 19.267 113.323 19.267 113.323C19.267 113.323 13.9611 120.897 17.669 127.999C21.3768 135.101 29.6113 134.765 30.18 142.817C30.1402 142.839 30.6179 109.172 20.0517 79.8945Z" fill="#FFEFB8"/>
<path d="M29.2189 128.937C29.2328 128.899 29.2328 128.856 29.2189 128.818C28.0814 113.796 25.2621 98.9501 20.8137 84.5574C20.8137 84.5119 20.7284 84.5289 20.7398 84.5574C22.4572 91.0016 23.9737 97.4742 25.2893 103.975C24.1241 102.872 22.7007 102.078 21.1493 101.667C21.1493 101.667 21.1038 101.701 21.1493 101.712C22.7791 102.309 24.2445 103.284 25.4258 104.555C25.676 105.829 25.9262 107.108 26.1594 108.382C24.2202 106.216 21.536 105.147 18.8461 104.123C18.8063 104.123 18.7892 104.169 18.8461 104.18C21.6497 105.317 24.4363 106.79 26.3357 109.201C26.9953 112.859 27.5754 116.524 28.0758 120.198C26.6787 118.727 24.8818 117.697 22.9065 117.235C22.8439 117.235 22.8098 117.309 22.8724 117.326C24.9084 117.913 26.73 119.078 28.1156 120.681L28.1498 120.709C28.3204 121.998 28.4834 123.293 28.6388 124.593C27.5544 123.677 26.3318 122.938 25.0163 122.404C25.0088 122.404 25.0015 122.407 24.9962 122.412C24.9909 122.418 24.9879 122.425 24.9879 122.432C24.9879 122.44 24.9909 122.447 24.9962 122.452C25.0015 122.458 25.0088 122.461 25.0163 122.461C26.3594 123.04 27.5896 123.853 28.6502 124.86C28.6502 124.86 28.6786 124.86 28.6957 124.86C28.8379 126.088 28.98 127.322 29.1051 128.556C27.1536 126.196 24.6188 124.386 21.7521 123.308C21.6952 123.308 21.6668 123.37 21.7236 123.399C24.5533 124.644 27.0391 126.556 28.9687 128.971C28.9881 129 29.0167 129.021 29.0498 129.031C29.0828 129.042 29.1183 129.041 29.1506 129.028C29.3383 130.922 29.5089 132.821 29.6454 134.714C29.6454 134.743 29.6909 134.743 29.6909 134.714C29.5146 132.821 29.3781 130.882 29.2189 128.937Z" fill="#FFEFB8"/>
<path d="M22.2526 99.5067C20.6893 98.5283 18.9023 97.9647 17.0605 97.8691C17.015 97.8691 17.015 97.926 17.0605 97.9374C18.8328 98.2695 20.5536 98.8335 22.1786 99.6148C22.2639 99.6489 22.3151 99.5352 22.2526 99.5067Z" fill="#FFEFB8"/>
<path d="M23.316 122.818C22.1089 122.127 20.781 121.671 19.4035 121.477C19.358 121.477 19.3523 121.545 19.4035 121.55C20.7499 121.82 22.0517 122.277 23.2705 122.909C23.316 122.909 23.3558 122.818 23.316 122.818Z" fill="#FFEFB8"/>
<path d="M53.6153 107.426C49.9488 109.962 46.5815 112.905 43.578 116.2C40.4804 119.686 38.0911 123.741 36.5434 128.14C33.2424 137.3 31.4635 146.939 31.2774 156.673C31.1664 162.065 31.6836 167.452 32.8185 172.725C32.8277 172.763 32.8513 172.796 32.8844 172.818C32.9175 172.839 32.9576 172.847 32.9963 172.84C33.0351 172.833 33.0695 172.811 33.0925 172.779C33.1155 172.747 33.1253 172.707 33.1199 172.668C31.7084 163.365 31.7621 153.899 33.2792 144.613C34.7691 135.515 37.1064 125.604 42.8956 118.207C46.0461 114.181 49.9757 111.008 53.8598 107.733C54.0873 107.562 53.8257 107.278 53.6153 107.426Z" fill="#FFEFB8"/>
<path d="M32.5742 150.113C34.662 146.736 37.1144 143.6 39.8875 140.759C44.2265 136.426 47.849 133.367 48.4177 130.479C48.9864 127.59 44.073 125.498 44.073 125.498C44.073 125.498 50.101 126.584 51.7502 124.065C53.3994 121.546 54.1842 106.961 54.1842 106.961C54.1842 106.961 43.2598 114.757 38.1701 125.662C33.0803 136.568 32.5742 150.113 32.5742 150.113Z" fill="#FFEFB8"/>
<path d="M50.2773 120.642C49.5578 120.54 48.8296 120.515 48.1049 120.568C48.0881 120.572 48.0733 120.582 48.0627 120.596C48.0521 120.61 48.0464 120.627 48.0464 120.644C48.0464 120.662 48.0521 120.679 48.0627 120.693C48.0733 120.706 48.0881 120.716 48.1049 120.721C48.8215 120.721 49.5437 120.693 50.2602 120.721C50.2663 120.726 50.2735 120.729 50.2811 120.73C50.2888 120.732 50.2966 120.731 50.3039 120.728C50.3112 120.726 50.3177 120.721 50.3228 120.716C50.3279 120.71 50.3315 120.703 50.3331 120.695C50.3347 120.688 50.3344 120.68 50.3321 120.672C50.3298 120.665 50.3257 120.658 50.3201 120.653C50.3145 120.647 50.3077 120.644 50.3002 120.642C50.2927 120.64 50.2848 120.64 50.2773 120.642Z" fill="#FFEFB8"/>
<path d="M42.4179 134.793C41.2649 134.821 40.1256 135.05 39.0513 135.47C39.0513 135.47 39.0513 135.526 39.0513 135.515C40.1886 135.254 41.2862 135.146 42.4122 134.946C42.4269 134.94 42.4395 134.93 42.4485 134.916C42.4575 134.903 42.4626 134.888 42.4632 134.872C42.4638 134.855 42.4599 134.84 42.4519 134.826C42.4438 134.812 42.4321 134.8 42.4179 134.793Z" fill="#FFEFB8"/>
<path d="M40.0635 129.904C39.5846 129.902 39.1066 129.946 38.6361 130.035C38.6274 130.038 38.6199 130.044 38.6146 130.052C38.6093 130.059 38.6064 130.069 38.6064 130.078C38.6064 130.087 38.6093 130.096 38.6146 130.104C38.6199 130.111 38.6274 130.117 38.6361 130.12C39.113 130.149 39.5915 130.126 40.0635 130.052C40.0831 130.052 40.1019 130.044 40.1158 130.031C40.1296 130.017 40.1374 129.998 40.1374 129.978C40.1374 129.959 40.1296 129.94 40.1158 129.926C40.1019 129.912 40.0831 129.904 40.0635 129.904Z" fill="#FFEFB8"/>
<path d="M0.56858 122.91C4.12125 124.115 7.52648 125.717 10.7196 127.686C14.0302 129.794 16.9017 132.522 19.1759 135.72C23.959 142.375 27.6204 149.768 30.015 157.606C31.3511 161.944 32.1756 166.422 32.4717 170.951C32.4697 170.982 32.4569 171.011 32.4357 171.033C32.4145 171.055 32.3861 171.069 32.3556 171.073C32.3251 171.076 32.2944 171.069 32.2689 171.052C32.2433 171.035 32.2245 171.009 32.2158 170.98C31.2085 163.123 28.9729 155.473 25.5906 148.309C22.2752 141.287 18.0954 133.81 11.7034 129.159C8.22306 126.628 4.31052 124.974 0.409348 123.222C0.367872 123.201 0.336482 123.165 0.322084 123.12C0.307687 123.076 0.311461 123.028 0.332576 122.986C0.353692 122.945 0.390419 122.914 0.434678 122.899C0.478937 122.885 0.527103 122.889 0.56858 122.91Z" fill="#FFEFB8"/>
<path d="M27.4617 152.597C24.9939 150.34 22.2837 148.362 19.3807 146.701C14.8654 144.193 11.1974 142.544 10.0771 140.355C8.95676 138.166 12.4428 135.329 12.4428 135.329C12.4428 135.329 7.83645 137.603 5.92568 135.931C4.0149 134.26 0 122.66 0 122.66C0 122.66 10.6401 126.447 17.2823 134.112C23.9245 141.777 27.4617 152.597 27.4617 152.597Z" fill="#FFEFB8"/>
<path d="M9.34935 129.744C8.87186 129.71 8.39196 129.739 7.92195 129.83C7.87077 129.83 7.88783 129.921 7.92195 129.915C8.39396 129.864 8.85459 129.881 9.32091 129.87C9.3375 129.873 9.35491 129.87 9.36931 129.861C9.38371 129.852 9.39391 129.838 9.39768 129.821C9.40145 129.805 9.39848 129.787 9.38941 129.773C9.38035 129.758 9.36594 129.748 9.34935 129.744Z" fill="#FFEFB8"/>
<path d="M41.1839 185.622H17.1685L20.5919 160.54L21.4677 154.109H36.8847L37.7605 160.54L41.1839 185.622Z" fill="#FFEFB8"/>
<path d="M37.7603 160.54H20.5918L21.4676 154.109H36.8846L37.7603 160.54Z" fill="#FFEFB8"/>
<path d="M39.0855 151.881H19.2612V157.328H39.0855V151.881Z" fill="#FFEFB8"/>
<path d="M1.89941 185.622L45.125 185.48L88.3506 185.435L174.802 185.338L261.253 185.429L304.479 185.48L347.704 185.622L304.479 185.759L261.253 185.81L174.802 185.901L88.3506 185.81L45.125 185.759L1.89941 185.622Z" fill="#6A3120"/>
<path d="M175.939 228.001C265.997 228.001 339.003 220.002 339.003 210.135C339.003 200.268 265.997 192.27 175.939 192.27C85.8813 192.27 12.875 200.268 12.875 210.135C12.875 220.002 85.8813 228.001 175.939 228.001Z" fill="#FFEFB8"/>
<path d="M137.98 207.173C136.655 207.622 98.6609 207.741 97.2051 206.849C96.6364 206.502 96.3123 200.975 96.0677 194.277C96.0165 192.833 95.9767 191.337 95.9426 189.819L92.8604 169.559L118.263 169.395L120.658 189.66L120.561 194.118C120.561 194.118 135.131 200.577 136.621 201.743C138.11 202.908 139.327 206.724 137.98 207.173Z" fill="#EB9481"/>
<path d="M137.98 207.171C136.655 207.621 98.6609 207.74 97.2051 206.847C96.534 206.426 96.1701 198.347 95.9653 189.817L120.68 189.658L120.584 194.116C120.584 194.116 135.153 200.575 136.643 201.741C138.133 202.907 139.327 206.722 137.98 207.171Z" fill="white"/>
<path d="M137.979 207.172C136.654 207.622 98.6606 207.741 97.2047 206.848C96.6361 206.501 96.3119 200.975 96.0674 194.276L120.561 194.117C120.561 194.117 135.13 200.577 136.62 201.742C138.11 202.908 139.327 206.723 137.979 207.172Z" fill="#A6A6A6"/>
<path d="M137.428 205.653C131.059 205.522 105.354 205.585 99.0477 205.932C98.9965 205.932 98.9965 205.971 99.0477 205.971C105.36 206.244 131.065 205.971 137.428 205.761C137.565 205.755 137.565 205.659 137.428 205.653Z" fill="#6A3120"/>
<path d="M134.209 200.382C133.501 200.366 132.797 200.497 132.142 200.768C131.487 201.038 130.895 201.441 130.404 201.952C129.512 202.864 129.006 204.087 128.994 205.363C128.994 205.403 129.062 205.403 129.068 205.363C129.279 204.104 129.892 202.948 130.814 202.066C131.736 201.183 132.919 200.623 134.186 200.467C134.198 200.47 134.21 200.469 134.22 200.463C134.23 200.457 134.237 200.447 134.24 200.436C134.243 200.425 134.242 200.413 134.236 200.403C134.23 200.393 134.22 200.385 134.209 200.382Z" fill="#6A3120"/>
<path d="M123.057 194.742C120.51 194.742 117.558 195.629 115.977 197.716C115.92 197.796 116.034 197.887 116.108 197.847C118.333 196.668 120.678 195.732 123.103 195.055C123.14 195.045 123.173 195.021 123.194 194.989C123.215 194.956 123.224 194.917 123.218 194.878C123.213 194.84 123.193 194.805 123.164 194.78C123.134 194.755 123.096 194.741 123.057 194.742Z" fill="#6A3120"/>
<path d="M125.031 195.505C122.477 195.476 119.526 196.386 117.951 198.478C117.888 198.558 118.002 198.643 118.081 198.603C120.305 197.429 122.648 196.495 125.071 195.817C125.108 195.807 125.14 195.784 125.161 195.752C125.182 195.72 125.191 195.682 125.186 195.644C125.182 195.606 125.163 195.571 125.135 195.545C125.106 195.519 125.069 195.505 125.031 195.505Z" fill="#6A3120"/>
<path d="M126.998 196.266C124.451 196.238 121.499 197.148 119.918 199.24C119.861 199.32 119.975 199.405 120.049 199.365C122.275 198.19 124.62 197.256 127.044 196.579C127.081 196.569 127.114 196.545 127.135 196.513C127.156 196.48 127.165 196.441 127.159 196.403C127.154 196.364 127.134 196.329 127.105 196.304C127.075 196.279 127.037 196.265 126.998 196.266Z" fill="#6A3120"/>
<path d="M128.972 197.022C126.418 197.022 123.467 197.909 121.892 199.995C121.829 200.081 121.948 200.166 122.022 200.126C124.247 198.946 126.592 198.01 129.017 197.334C129.055 197.324 129.087 197.3 129.108 197.268C129.13 197.235 129.138 197.196 129.133 197.158C129.127 197.119 129.108 197.084 129.078 197.059C129.048 197.034 129.01 197.021 128.972 197.022Z" fill="#6A3120"/>
<path d="M100.657 199.883C97.8136 199.883 97.8136 204.341 100.657 204.324C103.5 204.307 103.5 199.86 100.657 199.883Z" fill="#6A3120"/>
<path d="M125.787 187.93C124.496 186.866 122.87 187.93 122.079 189.033C120.764 190.971 119.98 193.219 119.805 195.555C119.803 195.565 119.805 195.576 119.809 195.586C119.812 195.595 119.818 195.604 119.826 195.611C119.834 195.619 119.843 195.624 119.853 195.627C119.863 195.63 119.874 195.63 119.884 195.629C119.895 195.677 119.916 195.721 119.947 195.759C119.978 195.797 120.018 195.828 120.063 195.847C120.107 195.867 120.156 195.877 120.205 195.874C120.254 195.872 120.302 195.858 120.345 195.833C122.153 194.571 124.246 193.445 125.616 191.665C126.396 190.631 127.01 188.942 125.787 187.93ZM122.682 193.36C121.806 194.002 120.902 194.599 120.049 195.27C120.504 194.002 120.896 192.717 121.476 191.489C121.745 190.9 122.052 190.33 122.398 189.783C122.966 188.942 125.446 186.798 125.707 189.573C125.855 191.085 123.723 192.592 122.682 193.36Z" fill="#6A3120"/>
<path d="M113.458 196.527C115.676 196.857 117.968 196.22 120.146 195.873C120.193 195.861 120.237 195.838 120.273 195.805C120.31 195.773 120.339 195.733 120.357 195.687C120.375 195.642 120.383 195.593 120.379 195.544C120.374 195.496 120.359 195.449 120.333 195.407C120.342 195.401 120.348 195.392 120.353 195.383C120.358 195.374 120.36 195.363 120.36 195.353C120.36 195.342 120.358 195.332 120.353 195.323C120.348 195.313 120.342 195.305 120.333 195.299C118.583 193.742 116.456 192.67 114.163 192.189C112.821 191.938 110.922 192.302 110.751 193.968C110.546 195.538 112.161 196.328 113.458 196.527ZM111.911 195.077C110.205 192.899 113.464 192.712 114.442 192.939C115.076 193.096 115.699 193.295 116.307 193.536C117.57 194.02 118.747 194.673 119.952 195.276C118.872 195.379 117.808 195.578 116.734 195.72C115.443 195.89 112.867 196.283 111.911 195.077Z" fill="#6A3120"/>
<path d="M55.5601 75.8926C55.5601 75.8926 85.0577 126.066 85.8709 129.586C87.0822 134.999 93.514 188.46 93.514 188.46L124.223 187.891C124.223 187.891 118.934 140.759 113.924 125.231C110.319 114.046 84.2843 76.9502 84.2843 76.9502L55.5601 75.8926Z" fill="#37474F"/>
<path d="M121.397 183.2C116.989 183.172 101.368 182.995 95.4988 183.541C95.4533 183.541 95.459 183.621 95.4988 183.626C97.5176 183.916 116.984 183.462 121.391 183.325C121.399 183.325 121.407 183.324 121.415 183.321C121.423 183.319 121.43 183.314 121.436 183.309C121.442 183.303 121.447 183.297 121.451 183.289C121.454 183.282 121.456 183.274 121.456 183.265C121.457 183.257 121.455 183.249 121.453 183.241C121.45 183.233 121.446 183.226 121.44 183.22C121.435 183.214 121.428 183.209 121.42 183.206C121.413 183.202 121.405 183.2 121.397 183.2Z" fill="#6A3120"/>
<path d="M60.5931 80.498C62.5266 83.5287 64.5739 86.4968 66.5415 89.499C68.5092 92.5013 70.5166 95.5263 72.4331 98.5456C76.3229 104.611 80.1141 110.716 83.8068 116.86C85.6074 119.697 87.1472 122.69 88.4074 125.805C89.5586 128.93 90.4228 132.154 90.9892 135.437C91.592 138.729 91.9901 142.055 92.3598 145.376C92.7389 148.917 93.1351 152.457 93.5483 155.998C94.3558 163.242 95.1653 170.486 95.9766 177.73C96.0733 178.617 96.1699 179.504 96.2609 180.397C96.2609 180.522 96.0391 180.55 96.0221 180.397C95.1179 173.198 94.3672 165.982 93.5483 158.789C93.1389 155.2 92.7313 151.612 92.3256 148.026C91.9446 144.688 91.5807 141.35 91.0632 138.03C90.5879 134.758 89.8655 131.526 88.9022 128.363C87.8418 125.086 86.4189 121.937 84.6598 118.976C81.1055 112.84 77.3408 106.813 73.5762 100.78C69.8115 94.7473 65.9672 88.703 61.9864 82.7383C61.4973 82.0048 61.0026 81.2713 60.4908 80.5492C60.4566 80.4923 60.559 80.4355 60.5931 80.498Z" fill="#6A3120"/>
<path d="M65.2279 210.134C63.8289 210.049 27.6948 195.408 26.6882 194.026C26.6498 193.942 26.6322 193.851 26.637 193.759C26.637 192.513 29.1449 188.164 31.2377 182.46C31.3685 182.096 32.3011 180.402 33.592 178.116C37.152 171.862 43.4473 161.104 43.4473 161.104L67.0647 170.486L55.7593 187.407L54.0248 191.501C54.0248 191.501 65.1084 202.953 66.0411 204.579C66.9737 206.205 66.6211 210.214 65.2279 210.134Z" fill="#EB9481"/>
<path d="M65.2279 210.135C63.8289 210.05 27.6948 195.409 26.6882 194.027C26.6498 193.943 26.6322 193.851 26.637 193.76C26.637 192.514 29.1449 188.164 31.2377 182.461C31.3685 182.097 32.3011 180.403 33.592 178.117L55.7707 187.408L54.0248 191.502C54.0248 191.502 65.1084 202.954 66.0411 204.58C66.9737 206.206 66.6211 210.215 65.2279 210.135Z" fill="white"/>
<path d="M65.228 210.129C63.829 210.05 27.6949 195.408 26.694 194.021C26.3073 193.498 27.9223 188.562 31.2435 182.461L53.9908 191.502C53.9908 191.502 65.0744 202.954 66.0128 204.58C66.9511 206.206 66.6212 210.215 65.228 210.129Z" fill="#A6A6A6"/>
<path d="M65.2849 208.52C59.4332 206.007 35.5826 196.42 29.6057 194.379C29.5546 194.379 29.5432 194.379 29.6057 194.419C35.3551 197.034 59.2796 206.428 65.2622 208.634C65.3987 208.679 65.3987 208.571 65.2849 208.52Z" fill="#6A3120"/>
<path d="M64.2611 202.424C63.6122 202.139 62.9112 201.992 62.2025 201.992C61.4937 201.992 60.7927 202.139 60.1438 202.424C58.9795 202.939 58.0558 203.878 57.562 205.051C57.562 205.091 57.6132 205.114 57.6303 205.08C58.3048 203.987 59.3166 203.144 60.5129 202.677C61.7091 202.21 63.0248 202.146 64.2611 202.493C64.2611 202.504 64.3066 202.424 64.2611 202.424Z" fill="#6A3120"/>
<path d="M56.0551 193.007C53.7065 192.029 50.6242 191.768 48.3779 193.11C48.2926 193.161 48.3779 193.286 48.4518 193.28C50.9556 193.02 53.4803 193.034 55.9812 193.32C56.0185 193.32 56.0548 193.308 56.0841 193.285C56.1134 193.262 56.134 193.229 56.1426 193.193C56.1512 193.157 56.1472 193.119 56.1313 193.085C56.1154 193.051 56.0886 193.024 56.0551 193.007Z" fill="#6A3120"/>
<path d="M57.5961 194.465C55.2475 193.487 52.1652 193.219 49.9189 194.567C49.8336 194.618 49.9189 194.743 49.9929 194.738C52.4966 194.479 55.0209 194.49 57.5222 194.772C57.5607 194.776 57.5994 194.766 57.6311 194.744C57.6627 194.721 57.6852 194.688 57.6943 194.651C57.7033 194.613 57.6983 194.573 57.6803 194.539C57.6622 194.505 57.6323 194.478 57.5961 194.465Z" fill="#6A3120"/>
<path d="M59.1429 195.896C56.7885 194.918 53.7062 194.651 51.4599 195.999C51.3746 196.05 51.4599 196.175 51.5339 196.169C54.0376 195.91 56.5619 195.922 59.0632 196.203C59.1025 196.21 59.1428 196.201 59.1762 196.18C59.2096 196.158 59.2337 196.125 59.2437 196.086C59.2537 196.048 59.2489 196.007 59.2302 195.972C59.2115 195.936 59.1804 195.91 59.1429 195.896Z" fill="#6A3120"/>
<path d="M60.6843 197.342C58.3299 196.364 55.2533 196.096 53.007 197.444C52.916 197.495 53.007 197.62 53.0753 197.609C55.5794 197.355 58.1034 197.368 60.6046 197.649C60.6439 197.655 60.6842 197.647 60.7176 197.625C60.751 197.603 60.7751 197.57 60.7851 197.532C60.7951 197.493 60.7903 197.452 60.7716 197.417C60.7529 197.382 60.7218 197.355 60.6843 197.342Z" fill="#6A3120"/>
<path d="M33.3588 189.346C30.7031 188.288 29.0539 192.416 31.721 193.474C34.3881 194.531 36.0203 190.426 33.3588 189.346Z" fill="#6A3120"/>
<path d="M61.1448 187.719C60.343 186.247 58.4493 186.611 57.2948 187.35C55.3504 188.65 53.7816 190.438 52.7454 192.535C52.7408 192.545 52.7384 192.556 52.7383 192.566C52.7382 192.577 52.7403 192.587 52.7447 192.597C52.749 192.607 52.7553 192.615 52.7633 192.622C52.7713 192.629 52.7807 192.635 52.7909 192.638C52.7909 192.825 52.916 193.047 53.1378 192.996C55.2931 192.507 57.6531 192.251 59.5866 191.114C60.6956 190.449 61.9012 189.112 61.1448 187.719ZM56.2257 191.586C55.1736 191.853 54.1159 192.069 53.0752 192.371C53.936 191.335 54.849 190.345 55.8106 189.402C56.2832 188.953 56.7847 188.535 57.3119 188.151C58.1422 187.583 61.2586 186.525 60.4624 189.198C60.0245 190.67 57.4825 191.267 56.2257 191.586Z" fill="#6A3120"/>
<path d="M46.4895 191.052C48.423 192.189 50.7831 192.457 52.9327 192.951C53.1545 193.003 53.3023 192.781 53.2853 192.593C53.2953 192.591 53.3046 192.586 53.3126 192.58C53.3206 192.573 53.327 192.565 53.3313 192.556C53.3357 192.546 53.3379 192.536 53.3378 192.526C53.3377 192.516 53.3353 192.506 53.3308 192.496C52.2979 190.393 50.7287 188.598 48.7813 187.294C47.6439 186.555 45.7388 186.156 44.9313 187.652C44.1238 189.147 45.3578 190.393 46.4895 191.052ZM45.6024 189.13C44.8119 186.458 47.9226 187.515 48.7472 188.095C49.2766 188.476 49.7783 188.894 50.2485 189.346C51.2437 190.273 52.0854 191.319 52.9782 192.332C51.9375 192.019 50.8797 191.803 49.8277 191.536C48.5766 191.223 46.063 190.614 45.6024 189.142V189.13Z" fill="#6A3120"/>
<path d="M57.5846 186.458L31.1465 175.785C31.1465 175.785 63.9254 127.601 64.1642 124.042C64.3803 120.863 49.9813 93.2176 49.4183 85.1604C48.8041 76.4664 52.9896 69.7341 57.5959 65.5605L84.8643 77.1488C84.8643 77.1488 81.9868 81.7545 77.4714 84.3189C77.4714 84.3189 91.4553 116.275 90.6592 126.1C89.863 135.926 57.5846 186.458 57.5846 186.458Z" fill="#37474F"/>
<path d="M58.7564 181.431C54.9349 179.788 56.0552 180.209 52.2109 178.588C50.3342 177.803 37.9938 172.669 36.0944 172.248C36.0546 172.248 36.0262 172.305 36.0944 172.328C37.7379 173.334 50.1807 178.253 52.0744 178.997C55.9471 180.527 54.8496 180.044 58.7394 181.528C58.7477 181.523 58.7549 181.517 58.7604 181.509C58.766 181.502 58.7697 181.493 58.7713 181.484C58.773 181.474 58.7725 181.465 58.7699 181.456C58.7673 181.446 58.7627 181.438 58.7564 181.431Z" fill="#6A3120"/>
<path d="M81.9415 83.705C79.1027 84.3647 76.3251 85.2645 73.6387 86.3945C73.6194 86.4045 73.6043 86.421 73.5961 86.4411C73.5879 86.4612 73.5872 86.4836 73.594 86.5042C73.6009 86.5248 73.6149 86.5422 73.6335 86.5534C73.6521 86.5646 73.6741 86.5687 73.6956 86.5651C76.4821 85.7463 79.3141 84.9901 82.0552 84.0291C82.0765 84.0216 82.0961 84.0101 82.1129 83.995C82.1297 83.98 82.1434 83.9618 82.1532 83.9414C82.1629 83.9211 82.1686 83.8991 82.1698 83.8765C82.1711 83.854 82.1679 83.8315 82.1604 83.8102C82.1529 83.7889 82.1414 83.7693 82.1263 83.7525C82.1113 83.7357 82.0931 83.722 82.0727 83.7123C82.0524 83.7025 82.0303 83.6968 82.0078 83.6956C81.9853 83.6943 81.9628 83.6975 81.9415 83.705Z" fill="#6A3120"/>
<path d="M78.7057 82.5855C78.4418 83.0553 78.2082 83.5415 78.0062 84.0411C77.8104 84.4243 77.6888 84.841 77.6479 85.2693C77.6479 85.3489 77.7617 85.3717 77.8072 85.3205C78.0939 84.9792 78.326 84.5956 78.4953 84.1833C78.7285 83.7341 78.9673 83.2849 79.1891 82.83C79.3313 82.5116 78.8706 82.2955 78.7057 82.5855Z" fill="#6A3120"/>
<path d="M79.0468 80.0194C79.2174 79.5986 79.3823 79.1779 79.5586 78.7628C79.7349 78.3477 79.9567 77.9099 80.1273 77.4664C80.1273 77.3981 80.2638 77.4664 80.2354 77.5119C80.0648 77.9326 79.9567 78.3818 79.8259 78.814C79.6951 79.2461 79.5473 79.6782 79.4051 80.1104C79.1378 80.9121 78.8364 81.7082 78.4668 82.4815C78.9144 82.5066 79.3618 82.4288 79.7747 82.254C80.1934 81.9919 80.518 81.6037 80.7017 81.1453C80.9405 80.679 81.1623 80.1957 81.4068 79.7294C81.7089 79.2279 81.9622 78.6986 82.1632 78.1487C82.1632 78.0805 82.2997 78.1487 82.2712 78.1942C81.9015 79.3619 81.4157 80.4895 80.8211 81.5603C80.5652 81.9754 80.3662 82.4076 79.8998 82.5725C79.3951 82.7145 78.8663 82.7493 78.3473 82.6748C78.2791 82.6748 78.1995 82.6748 78.2222 82.5781C78.4543 81.712 78.7296 80.8581 79.0468 80.0194Z" fill="#6A3120"/>
<path d="M77.8752 85.3302C78.8477 87.3829 79.7007 89.4298 80.6049 91.4768C81.5091 93.5238 82.311 95.5026 83.1242 97.5325C84.7506 101.644 86.2064 105.828 87.486 110.042C88.1172 112.134 88.703 114.244 89.2261 116.365C89.8019 118.487 90.2238 120.647 90.4886 122.83C90.7168 125.007 90.5237 127.208 89.9199 129.312C89.2937 131.39 88.4889 133.411 87.5144 135.351C86.9173 136.584 86.7183 136.414 87.0026 135.794C87.8158 134.037 89.9484 128.698 89.7948 124.206C89.6651 122.046 89.3261 119.904 88.7826 117.809C88.2859 115.66 87.7267 113.527 87.105 111.412C85.8937 107.239 84.4549 103.15 82.9763 99.0677C82.146 96.7933 81.2703 94.5189 80.4172 92.2444C79.5642 89.97 78.7112 87.8719 77.7558 85.3643C77.7536 85.3565 77.7529 85.3483 77.7538 85.3402C77.7548 85.3321 77.7573 85.3242 77.7612 85.3171C77.7652 85.31 77.7705 85.3037 77.7769 85.2986C77.7833 85.2936 77.7906 85.2898 77.7985 85.2875C77.8063 85.2853 77.8145 85.2846 77.8226 85.2856C77.8307 85.2865 77.8385 85.289 77.8457 85.293C77.8528 85.2969 77.8591 85.3023 77.8642 85.3086C77.8692 85.315 77.873 85.3224 77.8752 85.3302Z" fill="#6A3120"/>
<path d="M57.8066 78.5412C58.2786 78.365 58.9439 78.6606 59.4216 78.7403C60.0407 78.8424 60.6656 78.9051 61.2926 78.9279C61.9132 78.9469 62.5343 78.926 63.1522 78.8653C63.774 78.8474 64.3832 78.6859 64.9322 78.3934C65.8332 77.7376 66.6046 76.9201 67.2069 75.9825C67.9279 75.0283 68.5224 73.9847 68.9755 72.8779C68.9755 72.8154 69.0949 72.8779 69.0722 72.9234C68.8732 73.5602 68.7253 74.1971 68.5035 74.8169C68.2572 75.3986 67.9643 75.9596 67.6277 76.4943C67.0788 77.5679 66.2693 78.4868 65.2734 79.1667C64.1758 79.7922 62.7655 79.7353 61.5428 79.6841C60.8336 79.6409 60.1284 79.5459 59.433 79.3998C58.9326 79.2975 58.0909 79.2179 57.7725 78.7744C57.7575 78.7576 57.7464 78.7378 57.7399 78.7163C57.7334 78.6947 57.7318 78.6721 57.735 78.6498C57.7383 78.6276 57.7464 78.6063 57.7587 78.5876C57.7711 78.5688 57.7874 78.553 57.8066 78.5412Z" fill="#6A3120"/>
<path d="M38.6702 170.746C43.0149 164.173 47.28 157.539 51.4655 150.845C55.651 144.151 59.7797 137.413 63.8515 130.631C64.8239 129.011 65.9442 127.39 66.5698 125.593C67.2522 123.643 66.8655 121.755 66.2513 119.845C65.0916 116.359 63.7359 112.942 62.1909 109.61C60.6668 106.249 59.0233 102.946 57.4083 99.625C55.7932 96.3043 54.127 93.0405 52.8872 89.5834C51.7499 86.2797 51.2892 82.8567 52.1764 79.428C53.0635 75.9993 54.9743 72.98 56.9704 70.1313C57.4936 69.3807 58.0338 68.6359 58.5627 67.891C58.6025 67.8285 58.6878 67.891 58.648 67.9592C56.4472 70.9274 54.3033 74.0661 53.0124 77.5516C52.3526 79.2717 51.9836 81.0895 51.9205 82.9307C51.9092 84.7958 52.1992 86.6506 52.7792 88.4234C53.8483 91.8805 55.5373 95.1557 57.1126 98.4024C58.6878 101.649 60.3711 105.027 61.9236 108.37C63.5076 111.729 64.916 115.168 66.1432 118.673C66.6721 120.243 67.2806 121.875 67.2351 123.552C67.1953 125.389 66.3195 127.043 65.4096 128.59C61.4289 135.333 57.3514 141.992 53.2 148.61C49.0486 155.229 44.7778 161.848 40.4558 168.392L38.8408 170.866C38.7725 170.968 38.6247 170.849 38.6702 170.746Z" fill="#6A3120"/>
<path d="M86.3769 46.4721C88.8393 51.8796 101.276 59.3227 107.1 60.1187C111.285 60.6873 124.012 60.892 128.374 60.2267C133.492 59.4478 129.58 45.6533 126.56 46.0116C118.257 46.9839 111.206 48.0642 108.988 48.0642C106.281 48.0642 91.6373 43.3619 89.8743 42.7023C85.5524 41.0818 84.9837 43.413 86.3769 46.4721Z" fill="#EB9481"/>
<path d="M86.4397 47.9056C89.5561 52.517 99.9118 60.051 99.9118 60.051L101.351 56.8668L106.11 46.3419C106.11 46.3419 96.5964 43.3396 90.3352 42.0034C89.5984 41.8358 88.849 41.7292 88.0946 41.685C84.1138 41.4689 83.7669 43.9367 86.4397 47.9056Z" fill="#FFBA3B"/>
<path d="M86.4397 47.9056C89.5561 52.517 99.9118 60.051 99.9118 60.051L101.351 56.8668C97.4892 52.3862 91.5237 45.5913 88.0946 41.685C84.1138 41.4689 83.7669 43.9367 86.4397 47.9056Z" fill="#6A3120"/>
<path d="M98.0636 57.9241C98.8541 55.9908 102.369 48.1838 103.244 46.5519C103.301 46.4382 103.392 46.4439 103.341 46.5519C101.816 50.4343 100.081 54.2307 98.1432 57.9241C98.1205 57.998 98.0409 57.998 98.0636 57.9241Z" fill="#6A3120"/>
<path d="M125.036 46.1605C130.086 45.4895 136.336 44.3523 141.63 46.6267C142.226 46.8614 142.725 47.2901 143.046 47.8435C145.435 48.8102 145.696 50.226 145.696 50.226C147.647 51.8067 147.715 53.2908 147.715 53.2908C147.715 53.2908 150.513 54.428 150.087 56.2646C149.62 58.2888 145.787 56.2646 143.001 56.4295C136.603 56.8218 127.646 59.1702 125.798 59.4715L125.036 46.1605Z" fill="#EB9481"/>
<path d="M136.006 52.1185C137.877 51.9906 139.754 51.9906 141.625 52.1185C143.662 52.3741 145.677 52.7827 147.653 53.341C147.666 53.3456 147.68 53.3448 147.692 53.3389C147.704 53.3331 147.714 53.3226 147.718 53.3098C147.723 53.2969 147.722 53.2828 147.716 53.2706C147.71 53.2583 147.7 53.2489 147.687 53.2444C143.975 51.7882 139.935 51.3791 136.006 52.0617C135.915 52.0503 135.915 52.1185 136.006 52.1185Z" fill="#6A3120"/>
<path d="M135.21 48.2917C137.047 48.2917 140.277 48.3826 145.68 50.2647C145.68 50.2647 145.714 50.2647 145.68 50.2363C142.443 48.5989 138.813 47.8959 135.199 48.2064C135.096 48.2121 135.085 48.2917 135.21 48.2917Z" fill="#6A3120"/>
<path d="M134.818 46.2333C137.94 46.3925 139.89 46.8872 143.029 47.831C143.029 47.831 143.064 47.831 143.029 47.8026C139.572 46.3527 138.156 46.2219 134.801 46.1252C134.693 46.1195 134.698 46.2219 134.818 46.2333Z" fill="#6A3120"/>
<path d="M135.347 57.373C134.534 57.754 134.733 58.1862 136.285 58.5444C137.838 58.9026 144.292 59.0106 144.065 61.2566C143.837 63.5026 134.733 63.224 132.191 62.428C129.649 61.6319 125.821 59.4541 125.821 59.4541C127.579 59.1357 131.832 57.9985 135.347 57.373Z" fill="#EB9481"/>
<path d="M93.1389 55.0877C93.0991 56.06 93.0081 57.0494 92.8717 58.0274L92.9115 57.925C93.0991 57.4133 93.2868 56.8845 93.5143 56.3898C93.5143 56.3898 93.5711 56.3898 93.5654 56.3898C93.4535 56.9312 93.2898 57.4605 93.0764 57.9705C92.974 58.2093 92.8773 58.4538 92.7693 58.6927C92.7011 59.1305 92.6214 59.5626 92.5361 59.9891C92.3655 60.8022 91.5978 64.265 91.3988 64.845C91.3646 64.9701 91.2168 64.9416 91.2282 64.8052C91.268 64.1683 91.9106 60.5634 92.0414 59.7503C92.2954 58.1674 92.6352 56.5996 93.0593 55.0536C93.0878 55.0365 93.1446 55.0536 93.1389 55.0877Z" fill="#6A3120"/>
<path d="M87.2129 80.9351C85.6945 81.7198 83.7383 82.9309 74.9237 81.1967C74.355 81.083 73.8204 80.9465 73.2631 80.7816C65.0002 78.2968 55.0653 68.5793 54.4966 67.897C54.4966 67.897 67.6275 46.614 84.4207 39.9215C86.4964 39.097 89.9312 40.6891 91.8136 42.6736C92.4903 43.3843 93.9632 48.6041 93.4002 52.8346C92.8372 57.065 88.7142 80.1732 87.2129 80.9351Z" fill="#FFBA3B"/>
<path d="M86.0414 52.6426C86.1055 53.5438 85.9795 54.4485 85.6718 55.298C85.6003 54.3965 85.7265 53.4903 86.0414 52.6426Z" fill="white"/>
<path d="M80.3151 67.1348C80.3514 67.5842 80.3362 68.0364 80.2696 68.4824C80.2142 68.9297 80.1053 69.3687 79.9455 69.7902C79.9063 69.3408 79.9216 68.8883 79.991 68.4426C80.0484 67.9956 80.1572 67.5568 80.3151 67.1348Z" fill="white"/>
<path d="M70.5848 56.1836C70.6482 57.083 70.5223 57.9856 70.2151 58.8333C70.1741 58.386 70.1875 57.9354 70.2549 57.4914C70.3144 57.0443 70.4251 56.6054 70.5848 56.1836Z" fill="white"/>
<path d="M89.7892 66.4023C89.8254 66.8518 89.8102 67.3039 89.7437 67.7499C89.6882 68.1954 89.5794 68.6326 89.4196 69.0521C89.3804 68.6046 89.3957 68.154 89.4651 67.7101C89.5225 67.2632 89.6313 66.8244 89.7892 66.4023Z" fill="white"/>
<path d="M77.2954 54.3011C78.1949 54.2377 79.0977 54.3636 79.9455 54.6707C79.046 54.7353 78.1429 54.6094 77.2954 54.3011Z" fill="white"/>
<path d="M66.2515 64.7757C67.1509 64.7123 68.0537 64.8382 68.9015 65.1453C68.002 65.2099 67.099 65.084 66.2515 64.7757Z" fill="white"/>
<path d="M79.2402 76.109C79.6898 76.0727 80.142 76.088 80.588 76.1545C81.0335 76.21 81.4708 76.3188 81.8903 76.4786C81.4427 76.5177 80.9921 76.5024 80.5482 76.4331C80.1012 76.3757 79.6623 76.2669 79.2402 76.109Z" fill="white"/>
<path d="M62.8452 71.9918C63.2928 71.9555 63.7432 71.9708 64.1873 72.0373C64.6348 72.0921 65.074 72.2009 65.4953 72.3614C64.5958 72.4248 63.693 72.2989 62.8452 71.9918Z" fill="white"/>
<path d="M85.9565 42.4587C86.404 42.4206 86.8543 42.4339 87.2986 42.4985C87.7463 42.5553 88.1855 42.666 88.6066 42.8283C87.7071 42.8917 86.8043 42.7658 85.9565 42.4587Z" fill="white"/>
<path d="M82.7434 46.0859C82.1585 46.7715 81.4306 47.3207 80.6108 47.6951C80.9034 47.354 81.2334 47.0469 81.5947 46.7796C81.9476 46.5021 82.3334 46.2691 82.7434 46.0859Z" fill="white"/>
<path d="M65.2335 56.3887C64.9426 56.733 64.6124 57.0422 64.2497 57.3098C63.8995 57.5854 63.5177 57.8183 63.1123 58.0035C63.4032 57.6592 63.7334 57.35 64.0961 57.0824C64.4485 56.8099 64.8299 56.5773 65.2335 56.3887Z" fill="white"/>
<path d="M87.0992 61.0449C86.8083 61.3893 86.4781 61.6984 86.1154 61.9661C85.763 62.2385 85.3816 62.4712 84.978 62.6598C85.2689 62.3154 85.5991 62.0063 85.9619 61.7386C86.3134 61.465 86.695 61.2322 87.0992 61.0449Z" fill="white"/>
<path d="M72.9391 69.9395C72.6481 70.2838 72.318 70.5929 71.9552 70.8606C71.6037 71.1342 71.2221 71.367 70.8179 71.5543C71.1088 71.21 71.439 70.9008 71.8017 70.6332C72.1519 70.3575 72.5337 70.1247 72.9391 69.9395Z" fill="white"/>
<path d="M92.5245 48.8613C92.2389 49.2047 91.9145 49.5138 91.5578 49.7825C91.2081 50.0589 90.8262 50.2918 90.4204 50.4762C90.7113 50.1318 91.0415 49.8227 91.4042 49.555C91.7504 49.2825 92.1262 49.0498 92.5245 48.8613Z" fill="white"/>
<path d="M92.2231 59.1971C91.882 58.9046 91.5749 58.5746 91.3076 58.2134C91.0299 57.8646 90.7969 57.4826 90.6138 57.0762C91.2982 57.6644 91.8472 58.3937 92.2231 59.2141V59.1971Z" fill="white"/>
<path d="M60.6668 66.3105C60.3226 66.0217 60.0134 65.6934 59.7456 65.3325C59.4742 64.9794 59.2416 64.5981 59.0518 64.1953C59.396 64.4842 59.7052 64.8124 59.973 65.1733C60.2463 65.5251 60.479 65.9066 60.6668 66.3105Z" fill="white"/>
<path d="M88.3904 74.783C88.0461 74.4921 87.7369 74.162 87.4692 73.7993C87.1964 73.4472 86.9637 73.0658 86.7754 72.6621C87.121 72.9496 87.4304 73.278 87.6967 73.6401C87.9715 73.9929 88.2043 74.3764 88.3904 74.783Z" fill="white"/>
<path d="M74.4974 50.6463C74.153 50.3554 73.8438 50.0253 73.5761 49.6626C73.3024 49.3111 73.0697 48.9296 72.8823 48.5254C73.2244 48.8039 73.5335 49.1206 73.8036 49.4693C74.0786 49.8341 74.3114 50.229 74.4974 50.6463Z" fill="white"/>
<path d="M74.742 79.6053C74.3976 79.3144 74.0884 78.9843 73.8207 78.6216C73.5471 78.2701 73.3143 77.8885 73.127 77.4844C73.4713 77.7753 73.7805 78.1054 74.0482 78.4681C74.3239 78.8182 74.5568 79.2 74.742 79.6053Z" fill="white"/>
<path d="M77.1021 62.5469C76.7597 62.2578 76.4524 61.9295 76.1865 61.5689C75.91 61.2193 75.677 60.8374 75.4927 60.4316C75.8353 60.7226 76.1426 61.0528 76.4083 61.4153C76.6846 61.7629 76.9176 62.1429 77.1021 62.5469Z" fill="white"/>
<path d="M88.7772 48.3317C86.6333 47.9336 84.6202 43.5099 84.3643 40.5304C84.3643 40.3257 85.3651 38.6994 86.5082 36.6695C87.202 35.4356 87.9356 34.0482 88.5213 32.7291C88.6408 32.4561 89.3402 33.3602 89.3402 33.3602L90.8643 34.4974L95.8972 38.3583C94.6993 39.7987 93.6814 41.3797 92.8661 43.0663C92.7856 43.249 92.7246 43.4396 92.6841 43.635C92.6825 43.6653 92.6825 43.6956 92.6841 43.7259C92.3713 44.8631 90.8416 48.724 88.7772 48.3317Z" fill="#EB9481"/>
<path d="M92.6954 43.6694C92.6938 43.6997 92.6938 43.7301 92.6954 43.7604C92.3967 43.6748 92.1057 43.5645 91.8253 43.4306C86.275 40.8491 88.7146 33.4629 88.7146 33.4629L90.8756 34.5319L95.9085 38.3927C94.7106 39.8331 93.6927 41.4141 92.8774 43.1008C92.7969 43.2834 92.7359 43.474 92.6954 43.6694Z" fill="#6A3120"/>
<path d="M101.681 22.6582C101.681 22.6582 104.194 24.256 104.211 27.099C104.228 29.9421 103.074 32.7225 102.835 32.8192C102.596 32.9159 101.681 22.6582 101.681 22.6582Z" fill="#6A3120"/>
<path d="M89.1807 24.1321C87.668 27.123 87.7476 36.5278 89.6356 38.9557C92.3767 42.4697 97.6541 43.6808 100.844 40.2066C103.932 36.8348 103.614 24.5756 101.413 22.2898C98.2114 18.9294 91.4213 19.7197 89.1807 24.1321Z" fill="#EB9481"/>
<path d="M97.2106 31.6719C97.2106 31.6719 97.1594 31.6719 97.1651 31.7287C97.1993 32.3713 97.131 33.1105 96.5566 33.3379V33.372C97.2447 33.2526 97.3471 32.2746 97.2106 31.6719Z" fill="#6A3120"/>
<path d="M96.6248 31.0127C95.5898 30.9615 95.5557 33.0312 96.5167 33.0824C97.4778 33.1336 97.4892 31.0581 96.6248 31.0127Z" fill="#6A3120"/>
<path d="M100.72 31.6484C100.72 31.6484 100.771 31.6769 100.771 31.7053C100.737 32.3421 100.811 33.0813 101.391 33.3031V33.3429C100.657 33.2292 100.589 32.2512 100.72 31.6484Z" fill="#6A3120"/>
<path d="M101.305 30.9836C102.335 30.9267 102.386 32.9964 101.43 33.0533C100.475 33.1102 100.441 31.0404 101.305 30.9836Z" fill="#6A3120"/>
<path d="M95.9765 29.4361C96.2482 29.3607 96.5158 29.2716 96.7784 29.1689C97.0771 29.1148 97.3492 28.9628 97.5518 28.7367C97.6005 28.6528 97.6207 28.5554 97.6094 28.4591C97.5981 28.3627 97.556 28.2726 97.4892 28.2022C97.3348 28.0862 97.1522 28.0134 96.9603 27.9914C96.7684 27.9694 96.574 27.999 96.3974 28.0772C96.0131 28.1754 95.68 28.415 95.4647 28.7481C95.4188 28.827 95.397 28.9177 95.4021 29.0089C95.4072 29.1001 95.439 29.1877 95.4935 29.261C95.548 29.3343 95.6229 29.3899 95.7087 29.4211C95.7946 29.4522 95.8877 29.4574 95.9765 29.4361Z" fill="#6A3120"/>
<path d="M102.022 30.3579C101.753 30.2972 101.487 30.2232 101.225 30.1362C100.926 30.0965 100.648 29.9585 100.435 29.7438C100.381 29.6635 100.355 29.5675 100.361 29.4707C100.367 29.374 100.405 29.2821 100.469 29.2093C100.616 29.085 100.794 29.0021 100.984 28.9691C101.174 28.9362 101.369 28.9543 101.55 29.0217C101.938 29.1048 102.282 29.3274 102.516 29.6471C102.565 29.7254 102.589 29.8161 102.587 29.9081C102.584 30.0001 102.555 30.0893 102.502 30.1649C102.45 30.2404 102.376 30.2989 102.291 30.3332C102.205 30.3675 102.112 30.3761 102.022 30.3579Z" fill="#6A3120"/>
<path d="M99.4738 35.0033C99.4738 35.0033 99.5023 35.9642 99.4738 36.4077C98.5997 36.3187 97.7174 36.3512 96.8522 36.5044C96.6475 36.5499 96.6702 36.385 96.9034 36.277C97.6004 35.9584 98.3767 35.8555 99.1326 35.9813C99.1781 35.8619 99.0587 34.5029 99.1326 34.5086C99.4755 34.5775 99.8081 34.6902 100.122 34.8441C100.122 32.8426 99.8037 30.8638 99.8321 28.868C99.8321 28.7998 99.9401 28.7884 99.9515 28.868C100.355 30.9854 100.546 33.1379 100.52 35.2933C100.526 35.5378 99.6444 35.1 99.4738 35.0033Z" fill="#6A3120"/>
<path d="M98.1943 36.0676C97.9676 36.6638 97.547 37.1665 97.0001 37.4948C96.1414 37.8474 95.8627 37.0684 96.7271 36.3576C97.1799 36.1268 97.6878 36.0264 98.1943 36.0676Z" fill="#6A3120"/>
<path d="M97.3015 37.3182C97.2107 37.3921 97.109 37.4516 97 37.4945C96.2096 37.8129 95.8968 37.1818 96.5337 36.5449C96.9659 36.579 97.4379 36.7382 97.3015 37.3182Z" fill="#FF99BA"/>
<path d="M88.7484 32.1833C89.7891 32.5017 90.9833 29.3744 91.3188 28.1746C91.6202 27.1113 91.9615 23.7508 92.0126 23.5234C92.0638 23.296 96.5621 26.4972 99.1667 25.7296C101.771 24.962 103.54 22.6136 103.58 21.5162C103.619 20.4188 100.361 17.6326 97.5459 17.4905C94.7309 17.3483 90.9151 20.9021 90.9151 20.9021C91.376 20.3791 91.7944 19.8201 92.1662 19.2304C92.1207 19.0996 90.3009 19.799 89.9654 21.1239C89.9654 21.1239 90.3293 19.4977 90.1928 19.4692C90.0564 19.4408 88.6403 20.8282 88.9588 21.8858C88.9588 21.8858 87.321 23.3016 87.1731 24.8539C87.0253 26.4062 87.5257 31.808 88.7484 32.1833Z" fill="#6A3120"/>
<path d="M101.032 25.1831C100.254 25.5991 99.4183 25.898 98.5527 26.0701C97.5818 26.1572 96.6046 26.0008 95.7093 25.6152C94.8204 25.2613 93.9946 24.7659 93.264 24.1482C92.61 23.6081 92.0242 22.9598 91.3248 22.4765C91.1485 22.3571 90.9494 22.6073 91.0575 22.7722C92.2265 24.4171 93.8931 25.643 95.8117 26.2691C96.7028 26.5617 97.6548 26.6176 98.574 26.4312C99.4933 26.2447 100.348 25.8225 101.055 25.2058C101.055 25.2058 101.044 25.1774 101.032 25.1831Z" fill="#6A3120"/>
<path d="M89.8517 31.9038C89.8517 31.9038 88.2367 28.6286 86.7809 29.1574C85.325 29.6862 86.2122 34.218 87.7078 35.0425C87.8907 35.1612 88.0956 35.2419 88.3104 35.2796C88.5251 35.3173 88.7453 35.3113 88.9577 35.2619C89.1701 35.2125 89.3703 35.1208 89.5464 34.9922C89.7225 34.8637 89.8708 34.7009 89.9825 34.5137L89.8517 31.9038Z" fill="#EB9481"/>
<path d="M87.0537 30.4492C87.0537 30.4492 87.0196 30.4776 87.0537 30.489C88.0887 31.1088 88.5096 32.2233 88.7598 33.3321C88.7133 33.2112 88.641 33.1019 88.548 33.0117C88.455 32.9216 88.3434 32.8528 88.2212 32.81C88.0989 32.7673 87.9688 32.7517 87.8398 32.7642C87.7109 32.7768 87.5863 32.8173 87.4746 32.8829C87.4404 32.8829 87.4746 32.9511 87.4746 32.9454C87.6779 32.9146 87.8859 32.9472 88.07 33.0388C88.2542 33.1304 88.4057 33.2764 88.5039 33.4571C88.6677 33.7623 88.7973 34.0846 88.8906 34.4181C88.9247 34.5204 89.1124 34.4977 89.0953 34.3783V34.3499C89.3398 32.9795 88.5437 30.8245 87.0537 30.4492Z" fill="#6A3120"/>
<path d="M79.1717 46.5231C78.0344 52.9654 85.0178 74.6692 89.4933 78.7233C96.1526 84.7562 108.465 88.7194 112.929 90.0102C114.874 90.5788 120.253 76.8867 118.286 75.9883C114.072 74.0551 100.981 69.9725 99.7467 68.9262C98.5126 67.88 90.989 57.0537 87.6508 50.8161C83.1639 42.4405 79.7347 43.265 79.1717 46.5231Z" fill="#EB9481"/>
<path d="M114.971 74.7832C114.971 74.7832 120.783 76.2616 124.53 77.4102C126.623 78.047 130.115 79.4628 131.44 80.6399C133.419 82.3912 140.573 90.9942 138.526 92.7739C136.672 94.3831 131.463 86.2122 131.463 86.2122C131.463 86.2122 137.445 93.9964 134.875 95.5203C132.304 97.0442 127.63 87.0367 127.63 87.0367C127.63 87.0367 133.595 95.1678 130.678 96.322C128.471 97.1977 123.74 88.3615 123.74 88.3615C123.74 88.3615 128.824 95.3838 126.583 96.3789C124.115 97.4763 119.242 89.6011 119.242 89.6011C113.145 91.1761 109.574 89.4305 107.225 87.8953C106.645 87.5257 114.971 74.7832 114.971 74.7832Z" fill="#EB9481"/>
<path d="M129.563 83.3922C130.297 84.2793 131.053 85.172 131.707 86.1272C132.361 87.0825 132.981 88.0491 133.544 89.0556C134.304 90.3585 134.915 91.7434 135.364 93.1836C134.386 90.6875 132.094 87.2474 131.44 86.2978C130.786 85.3482 130.177 84.3645 129.529 83.415C129.512 83.3922 129.546 83.3695 129.563 83.3922Z" fill="#6A3120"/>
<path d="M126.088 85.6893C127.351 86.69 129.995 90.4144 131.013 92.9049C131.059 93.013 131.013 93.0016 130.939 92.9049C130.137 91.671 126.913 86.8947 126.06 85.7064C126.043 85.695 126.071 85.6779 126.088 85.6893Z" fill="#6A3120"/>
<path d="M122.75 87.1285C124.317 88.775 125.556 90.7047 126.401 92.8146C126.441 92.9169 126.361 92.8999 126.299 92.8146C125.122 90.8984 124.212 89.4029 122.688 87.174C122.665 87.1456 122.716 87.0944 122.75 87.1285Z" fill="#6A3120"/>
<path d="M85.5015 47.002C80.3095 39.6556 77.2044 42.3792 78.2451 50.351C79.2233 57.8055 81.8335 66.6814 81.8335 66.6814L94.9132 60.3358L85.5015 47.002Z" fill="#FFBA3B"/>
<path d="M88.6745 49.8848C89.0136 50.7214 89.1688 51.6212 89.1295 52.5231C88.9589 52.1083 88.8368 51.6752 88.7655 51.2324C88.6809 50.7885 88.6504 50.336 88.6745 49.8848Z" fill="white"/>
<path d="M80.9233 54.3538C81.7586 54.016 82.656 53.859 83.5563 53.8933C83.1426 54.0682 82.7091 54.1923 82.2654 54.2629C81.8227 54.3416 81.3727 54.3721 80.9233 54.3538Z" fill="white"/>
<path d="M81.2589 42.9297C81.0888 43.3468 80.8692 43.7419 80.6049 44.1067C80.3499 44.4776 80.0521 44.8173 79.7178 45.1188C80.0738 44.29 80.5987 43.5444 81.2589 42.9297Z" fill="white"/>
<path d="M92.3141 57.7812C91.9619 58.6122 91.4365 59.3586 90.7729 59.9704C90.9431 59.5533 91.1626 59.1581 91.4269 58.7934C91.682 58.4224 91.9798 58.0827 92.3141 57.7812Z" fill="white"/>
<path d="M83.2495 62.2343C82.4184 61.8822 81.672 61.3568 81.0601 60.6934C81.8912 61.0455 82.6376 61.5708 83.2495 62.2343Z" fill="white"/>
<path d="M87.2418 49.2065C87.9413 50.1675 88.6635 51.1114 89.38 52.0496C89.1981 51.572 89.0388 51.0943 88.9023 50.5996C88.9023 50.5996 88.9023 50.5996 88.9365 50.5996C89.0786 50.9806 89.2436 51.3502 89.38 51.7368L89.5848 52.3055C89.6024 52.3423 89.6176 52.3803 89.6303 52.4192C90.1989 53.1527 90.7676 53.8919 91.2908 54.6424C91.9334 55.5408 92.5533 56.4506 93.1788 57.3604C93.8044 58.2701 94.4356 59.4017 95.1124 60.3114C95.1749 60.391 93.975 60.88 93.8385 60.9483C93.702 61.0165 93.6452 60.8971 93.7703 60.863C93.8954 60.8289 94.8508 60.2318 94.8621 60.2205C94.2366 59.305 93.5144 58.4578 92.8604 57.5594C92.2064 56.661 91.5581 55.7228 90.9269 54.8358C89.6473 52.9935 88.4758 51.0829 87.202 49.235C87.1906 49.2065 87.2247 49.1838 87.2418 49.2065Z" fill="#6A3120"/>
<path d="M78.5693 55.6211C78.7684 56.0078 78.9845 56.3944 79.138 56.7924L79.3541 57.2871C79.0527 55.8656 78.7854 54.4441 78.4727 53.0283C79.0755 55.3311 79.684 57.6283 80.2413 59.9425C80.7701 62.143 81.4127 64.3777 81.7198 66.6236C82.118 66.454 82.5287 66.3152 82.9482 66.2086C82.5284 66.4863 82.0732 66.7062 81.5947 66.8625C80.9085 64.5748 80.3391 62.2538 79.8887 59.9084C79.7465 59.2716 79.6157 58.6347 79.4792 57.9922C79.3314 57.6112 79.1551 57.2416 78.9788 56.855C78.8025 56.4683 78.6433 56.0476 78.484 55.6382C78.5181 55.6154 78.558 55.5984 78.5693 55.6211Z" fill="#6A3120"/>
<path d="M82.0436 64.4919C83.8634 63.4627 91.4667 59.5279 93.167 58.8058C93.2865 58.7546 93.349 58.8058 93.2296 58.8797C89.6213 60.9781 85.9003 62.8763 82.0834 64.5658C82.0379 64.5829 81.9924 64.5203 82.0436 64.4919Z" fill="#6A3120"/>
<path fill-rule="evenodd" clip-rule="evenodd" d="M189.076 122.819C188.781 122.777 188.516 122.621 188.335 122.385C188.154 122.149 188.073 121.852 188.109 121.557C188.136 121.333 188.229 121.122 188.377 120.95C188.525 120.779 188.72 120.656 188.938 120.597C189.157 120.537 189.387 120.544 189.602 120.616C189.816 120.689 190.004 120.823 190.141 121.002C190.278 121.182 190.359 121.398 190.373 121.624C190.387 121.849 190.333 122.074 190.219 122.269C190.105 122.464 189.935 122.62 189.731 122.719C189.528 122.817 189.299 122.852 189.076 122.819Z" fill="#363636"/>
<path fill-rule="evenodd" clip-rule="evenodd" d="M189.405 120.454C189.546 120.471 189.68 120.521 189.797 120.6C189.914 120.679 190.011 120.785 190.079 120.909C190.148 121.033 190.186 121.171 190.19 121.312C190.194 121.454 190.165 121.594 190.105 121.722C190.027 121.907 189.892 122.063 189.72 122.166C189.548 122.269 189.347 122.314 189.147 122.294C188.947 122.274 188.759 122.191 188.61 122.056C188.461 121.921 188.359 121.742 188.319 121.545C188.283 121.395 188.286 121.238 188.327 121.09C188.369 120.941 188.448 120.806 188.557 120.696C188.666 120.587 188.801 120.507 188.95 120.465C189.098 120.422 189.255 120.418 189.405 120.454Z" fill="#666666"/>
<path fill-rule="evenodd" clip-rule="evenodd" d="M189.03 123.304C188.709 123.262 188.407 123.125 188.163 122.911C187.92 122.698 187.745 122.416 187.661 122.103C187.578 121.79 187.589 121.459 187.694 121.152C187.798 120.845 187.991 120.577 188.249 120.38C188.506 120.183 188.817 120.067 189.14 120.046C189.464 120.026 189.786 120.102 190.066 120.264C190.347 120.427 190.572 120.669 190.715 120.961C190.857 121.252 190.91 121.578 190.867 121.9C190.809 122.329 190.583 122.718 190.239 122.981C189.894 123.245 189.46 123.361 189.03 123.304ZM189.127 122.593C189.306 122.616 189.488 122.586 189.65 122.506C189.811 122.425 189.946 122.299 190.036 122.143C190.126 121.986 190.168 121.806 190.157 121.626C190.145 121.446 190.08 121.273 189.971 121.13C189.861 120.986 189.711 120.878 189.54 120.82C189.37 120.761 189.185 120.754 189.011 120.8C188.836 120.846 188.679 120.942 188.559 121.077C188.439 121.212 188.361 121.38 188.336 121.559C188.304 121.801 188.369 122.045 188.517 122.24C188.665 122.434 188.885 122.561 189.127 122.593Z" fill="url(#paint0_linear_777_39943)"/>
<path fill-rule="evenodd" clip-rule="evenodd" d="M160.625 121.682C160.4 121.655 160.189 121.562 160.018 121.414C159.847 121.266 159.724 121.071 159.664 120.853C159.605 120.635 159.611 120.404 159.684 120.19C159.756 119.976 159.89 119.788 160.07 119.65C160.249 119.513 160.466 119.432 160.691 119.418C160.917 119.404 161.142 119.458 161.337 119.572C161.532 119.686 161.688 119.856 161.786 120.06C161.884 120.264 161.919 120.492 161.887 120.716C161.845 121.01 161.689 121.275 161.453 121.456C161.217 121.637 160.92 121.718 160.625 121.682Z" fill="#363636"/>
<path fill-rule="evenodd" clip-rule="evenodd" d="M160.937 119.312C161.078 119.328 161.212 119.377 161.329 119.456C161.447 119.534 161.543 119.64 161.611 119.764C161.679 119.887 161.717 120.026 161.72 120.167C161.723 120.308 161.693 120.448 161.631 120.575C161.554 120.76 161.419 120.915 161.246 121.018C161.074 121.121 160.873 121.166 160.673 121.147C160.473 121.127 160.285 121.044 160.136 120.909C159.987 120.774 159.885 120.595 159.845 120.398C159.81 120.248 159.814 120.091 159.856 119.943C159.899 119.794 159.978 119.659 160.088 119.55C160.197 119.441 160.333 119.362 160.482 119.321C160.63 119.279 160.787 119.276 160.937 119.312Z" fill="#666666"/>
<path fill-rule="evenodd" clip-rule="evenodd" d="M160.579 122.155C160.258 122.112 159.957 121.974 159.714 121.76C159.472 121.545 159.298 121.264 159.215 120.951C159.132 120.638 159.144 120.307 159.249 120.001C159.354 119.694 159.548 119.426 159.806 119.23C160.063 119.033 160.373 118.918 160.696 118.898C161.02 118.878 161.342 118.954 161.622 119.116C161.902 119.279 162.127 119.521 162.269 119.812C162.412 120.103 162.465 120.43 162.422 120.75C162.394 120.964 162.324 121.17 162.216 121.356C162.108 121.543 161.964 121.706 161.793 121.836C161.622 121.967 161.426 122.062 161.218 122.117C161.01 122.172 160.792 122.185 160.579 122.155ZM160.676 121.444C160.855 121.467 161.037 121.437 161.199 121.356C161.361 121.276 161.495 121.15 161.585 120.993C161.675 120.837 161.717 120.657 161.706 120.477C161.694 120.297 161.629 120.124 161.52 119.981C161.41 119.837 161.26 119.729 161.09 119.67C160.919 119.612 160.734 119.605 160.56 119.651C160.385 119.697 160.228 119.793 160.108 119.928C159.988 120.063 159.91 120.23 159.885 120.409C159.853 120.651 159.918 120.896 160.066 121.09C160.215 121.284 160.434 121.412 160.676 121.444Z" fill="url(#paint1_linear_777_39943)"/>
<path d="M190.105 121.711C188.45 130.12 181.006 156.333 167.397 153.894C165.242 153.507 163.314 152.188 161.779 149.999C158.185 144.847 157.752 135.215 159.919 120.346C160.084 119.209 161.739 119.488 161.676 120.443C158.446 134.868 159.276 144.404 162.723 149.345C164.07 151.278 165.748 152.427 167.602 152.757C180.511 155.077 186.937 128.983 188.444 121.335C188.598 120.477 190.236 120.602 190.105 121.711Z" fill="#666666"/>
<path fill-rule="evenodd" clip-rule="evenodd" d="M140.783 188.141L218.772 200.423L208.57 206.512L201.183 221.017L122.335 207.991L140.783 188.141Z" fill="#4D4D4D"/>
<path fill-rule="evenodd" clip-rule="evenodd" d="M136.046 105.926L213.751 109.616L218.772 200.423L140.772 188.141L136.046 105.926Z" fill="#5BCA63"/>
<path fill-rule="evenodd" clip-rule="evenodd" d="M136.046 105.926L135.864 106.568L135.136 106.995L122.335 207.991L140.772 188.141L136.046 105.926Z" fill="#4D4D4D"/>
<path fill-rule="evenodd" clip-rule="evenodd" d="M209.634 111.312L209.884 110.129L213.751 109.623L218.772 200.424L208.57 206.514L201.183 221.019L209.634 111.312Z" fill="#6BB270"/>
<path fill-rule="evenodd" clip-rule="evenodd" d="M206.085 198.092L201.183 221.018L208.57 206.513L218.772 200.423L206.085 198.092Z" fill="#3E7742"/>
<path fill-rule="evenodd" clip-rule="evenodd" d="M206.085 198.093L209.884 110.129L213.751 109.623L218.772 200.424L218.75 200.435L206.085 198.093Z" fill="#3E7742"/>
<path d="M206.092 198.098L206.091 198.104L218.771 200.43L218.772 200.425L206.092 198.098Z" fill="black"/>
<path fill-rule="evenodd" clip-rule="evenodd" d="M135.136 106.99L209.634 111.334L201.183 221.019L122.335 207.992L135.136 106.99Z" fill="#6BB270"/>
<path d="M159.231 111.567C160.886 103.158 168.33 76.9448 181.939 79.3841C184.094 79.7765 186.022 81.09 187.557 83.2791C191.151 88.4364 191.584 98.0629 189.417 112.932C189.252 114.069 187.597 113.791 187.66 112.841C190.884 98.4154 190.06 88.8742 186.613 83.9387C185.266 81.9997 183.588 80.8512 181.734 80.527C168.825 78.2071 162.399 104.295 160.892 111.948C160.761 112.807 159.123 112.676 159.231 111.567Z" fill="#3E7742"/>
<path fill-rule="evenodd" clip-rule="evenodd" d="M159.8 111.726C160.024 111.754 160.234 111.848 160.404 111.997C160.575 112.145 160.697 112.34 160.756 112.558C160.814 112.776 160.807 113.007 160.734 113.221C160.661 113.434 160.526 113.622 160.347 113.758C160.167 113.895 159.951 113.976 159.726 113.989C159.5 114.003 159.276 113.949 159.081 113.835C158.887 113.72 158.73 113.551 158.633 113.347C158.535 113.144 158.499 112.916 158.532 112.692C158.574 112.397 158.731 112.13 158.968 111.95C159.205 111.769 159.504 111.688 159.8 111.726Z" fill="#363636"/>
<path fill-rule="evenodd" clip-rule="evenodd" d="M159.442 114.103C159.302 114.086 159.167 114.037 159.05 113.959C158.933 113.88 158.836 113.775 158.767 113.651C158.699 113.528 158.661 113.39 158.657 113.249C158.652 113.108 158.682 112.968 158.742 112.84C158.82 112.655 158.955 112.499 159.127 112.396C159.299 112.293 159.5 112.248 159.7 112.268C159.9 112.288 160.089 112.371 160.237 112.506C160.386 112.641 160.488 112.82 160.528 113.017C160.563 113.166 160.559 113.322 160.517 113.47C160.475 113.618 160.396 113.753 160.287 113.861C160.178 113.97 160.043 114.049 159.896 114.092C159.748 114.134 159.592 114.138 159.442 114.103Z" fill="#666666"/>
<path fill-rule="evenodd" clip-rule="evenodd" d="M159.8 111.26C160.121 111.302 160.423 111.439 160.666 111.653C160.91 111.867 161.085 112.148 161.168 112.461C161.252 112.774 161.241 113.105 161.136 113.412C161.032 113.719 160.838 113.988 160.581 114.185C160.323 114.381 160.013 114.497 159.69 114.518C159.366 114.539 159.044 114.463 158.764 114.3C158.483 114.137 158.258 113.895 158.115 113.604C157.973 113.313 157.92 112.986 157.963 112.665C158.021 112.235 158.247 111.846 158.591 111.583C158.935 111.32 159.37 111.204 159.8 111.26ZM159.709 111.971C159.528 111.945 159.343 111.974 159.179 112.054C159.014 112.133 158.877 112.26 158.785 112.417C158.693 112.575 158.649 112.756 158.66 112.939C158.671 113.121 158.736 113.296 158.847 113.441C158.958 113.587 159.109 113.696 159.282 113.755C159.455 113.814 159.642 113.82 159.818 113.773C159.995 113.725 160.153 113.627 160.274 113.489C160.394 113.351 160.47 113.181 160.494 113C160.526 112.762 160.464 112.521 160.32 112.328C160.177 112.136 159.963 112.007 159.726 111.971H159.709Z" fill="url(#paint2_linear_777_39943)"/>
<path fill-rule="evenodd" clip-rule="evenodd" d="M188.234 112.875C188.495 112.952 188.721 113.119 188.869 113.347C189.018 113.576 189.079 113.85 189.043 114.12C189.006 114.39 188.874 114.637 188.67 114.818C188.467 114.999 188.205 115.1 187.932 115.104C187.769 115.107 187.606 115.074 187.457 115.008C187.307 114.942 187.173 114.844 187.065 114.722C186.956 114.599 186.875 114.455 186.828 114.299C186.78 114.142 186.767 113.977 186.789 113.815C186.81 113.653 186.867 113.497 186.955 113.359C187.042 113.221 187.159 113.103 187.296 113.014C187.433 112.925 187.588 112.866 187.75 112.842C187.911 112.818 188.077 112.83 188.234 112.875Z" fill="#363636"/>
<path fill-rule="evenodd" clip-rule="evenodd" d="M187.893 115.251C187.753 115.235 187.618 115.185 187.501 115.107C187.384 115.028 187.287 114.923 187.219 114.8C187.15 114.676 187.112 114.538 187.108 114.397C187.103 114.256 187.133 114.116 187.193 113.989C187.27 113.803 187.405 113.647 187.577 113.544C187.749 113.441 187.95 113.395 188.149 113.414C188.349 113.433 188.538 113.516 188.687 113.65C188.836 113.784 188.939 113.963 188.979 114.159C189.015 114.309 189.012 114.466 188.971 114.615C188.929 114.764 188.85 114.899 188.741 115.008C188.632 115.118 188.497 115.198 188.349 115.24C188.2 115.283 188.043 115.286 187.893 115.251Z" fill="#666666"/>
<path fill-rule="evenodd" clip-rule="evenodd" d="M188.268 112.403C188.589 112.445 188.891 112.582 189.135 112.796C189.378 113.009 189.553 113.291 189.637 113.604C189.72 113.917 189.709 114.248 189.605 114.555C189.5 114.861 189.307 115.13 189.049 115.327C188.792 115.524 188.482 115.64 188.158 115.661C187.835 115.681 187.512 115.605 187.232 115.442C186.952 115.28 186.726 115.037 186.583 114.746C186.441 114.455 186.388 114.128 186.431 113.807C186.489 113.378 186.715 112.989 187.059 112.725C187.404 112.462 187.838 112.346 188.268 112.403ZM188.177 113.119C187.996 113.094 187.812 113.122 187.647 113.202C187.483 113.281 187.346 113.408 187.253 113.566C187.161 113.723 187.117 113.905 187.129 114.087C187.14 114.269 187.205 114.444 187.315 114.59C187.426 114.735 187.578 114.844 187.751 114.903C187.924 114.962 188.11 114.968 188.287 114.921C188.463 114.874 188.622 114.775 188.742 114.637C188.862 114.5 188.939 114.33 188.962 114.148C188.994 113.908 188.93 113.664 188.783 113.471C188.635 113.278 188.418 113.152 188.177 113.119Z" fill="url(#paint3_linear_777_39943)"/>
<path d="M158.742 112.847C160.397 104.443 167.841 78.225 181.45 80.67C183.605 81.0566 185.539 82.3758 187.068 84.5593C190.662 89.7108 191.095 99.343 188.928 114.212C188.763 115.349 187.108 115.071 187.171 114.121C190.401 99.6956 189.571 90.16 186.13 85.2188C184.777 83.2799 183.099 82.1313 181.245 81.8072C168.342 79.4873 161.91 105.581 160.409 113.228C160.255 114.087 158.611 113.956 158.742 112.847Z" fill="black"/>
<path d="M153.712 156.602C153.987 154.058 152.146 151.772 149.602 151.498C147.057 151.223 144.771 153.064 144.497 155.608C144.223 158.152 146.063 160.437 148.608 160.712C151.152 160.986 153.438 159.146 153.712 156.602Z" fill="#212121"/>
<path d="M185.244 164.659C187.799 164.816 189.997 162.873 190.154 160.319C190.311 157.764 188.367 155.566 185.813 155.409C183.258 155.252 181.06 157.196 180.903 159.75C180.746 162.304 182.689 164.502 185.244 164.659Z" fill="#212121"/>
<path d="M173.361 164.12L173.161 163.615C173.139 163.569 171.234 158.913 166.445 158.397C162.078 157.926 160.562 161.952 160.502 162.126L160.313 162.638L159.285 162.268L159.469 161.752C159.472 161.703 161.322 156.74 166.561 157.309C172.022 157.896 174.107 162.997 174.178 163.204L174.379 163.709L173.361 164.12Z" fill="#212121"/>
<path d="M278.655 152.717C279.024 152.637 279.394 152.552 279.758 152.455" stroke="#6A3120" stroke-miterlimit="10"/>
<path d="M281.936 151.818C290.637 148.878 297.922 142.038 298.604 134.043C300.117 116.417 278.649 106.682 280.867 86.3089C282.982 66.8796 303.364 65.4922 311.536 68.1817C320.561 71.1441 317.467 79.8211 309.295 78.7009C295.147 76.762 286.224 61.3584 292.951 43.8908C297.99 30.8356 310.501 25.9171 315.619 24.416" stroke="#6A3120" stroke-miterlimit="10" stroke-dasharray="4 4"/>
<path d="M316.7 24.1151C317.399 23.9331 317.803 23.8535 317.803 23.8535" stroke="#6A3120" stroke-miterlimit="10"/>
<path d="M326.822 20.7138C325.372 16.2218 315.659 17.8367 317.553 23.7047C319.447 29.5727 328.273 25.2058 326.822 20.7138Z" fill="#6A3120"/>
<path d="M312.27 18.9007C312.344 16.9333 315.085 15.4151 318.963 16.1145C322.841 16.8139 326.487 19.4238 326.487 19.4238C326.487 19.4238 322.654 21.7722 318.741 22.1816C314.829 22.591 312.207 20.8851 312.27 18.9007Z" fill="#EBEBEB"/>
<path d="M326.487 19.424C324.474 19.424 322.466 19.3728 320.459 19.3103C318.451 19.2477 316.438 19.1454 314.431 18.9805C316.444 18.9805 318.457 19.0373 320.464 19.0999C322.472 19.1624 324.485 19.2648 326.487 19.424Z" fill="#6A3120"/>
<path d="M316.188 17.1543C317.333 17.7001 318.411 18.3755 319.401 19.1672C318.83 18.8947 318.276 18.589 317.74 18.2517C317.202 17.9165 316.684 17.55 316.188 17.1543Z" fill="#6A3120"/>
<path d="M321.437 19.2422C320.92 19.6507 320.381 20.0304 319.822 20.3794C319.272 20.7385 318.702 21.0669 318.116 21.3631C318.632 20.9532 319.171 20.5735 319.731 20.2259C320.281 19.8668 320.85 19.5384 321.437 19.2422Z" fill="#6A3120"/>
<path d="M322.022 18.127C322.308 18.2678 322.576 18.4394 322.824 18.6387C323.074 18.842 323.297 19.0749 323.49 19.3324C323.204 19.1929 322.935 19.0212 322.688 18.8207C322.439 18.6174 322.215 18.3844 322.022 18.127Z" fill="#6A3120"/>
<path d="M315.966 30.6028C317.177 32.1551 320.288 31.7855 323.024 28.9481C325.759 26.1108 327.192 21.8633 327.192 21.8633C327.192 21.8633 322.711 22.2044 319.293 24.1377C315.875 26.071 314.749 29.0391 315.966 30.6028Z" fill="#EBEBEB"/>
<path d="M327.192 21.8633C325.554 23.0005 323.962 24.2571 322.364 25.4853C320.766 26.7135 319.202 27.9644 317.672 29.2722C319.31 28.135 320.903 26.8784 322.495 25.6502C324.087 24.422 325.657 23.1654 327.192 21.8633Z" fill="#6A3120"/>
<path d="M320.168 29.7391C320.472 29.1867 320.744 28.6171 320.982 28.0333C321.224 27.4497 321.429 26.8515 321.596 26.2422C321.292 26.7945 321.02 27.3641 320.783 27.948C320.541 28.5317 320.336 29.1299 320.168 29.7391Z" fill="#6A3120"/>
<path d="M323.2 24.9672C322.537 24.9302 321.872 24.9302 321.21 24.9672C320.546 24.9979 319.885 25.0681 319.23 25.1776C319.893 25.2145 320.558 25.2145 321.221 25.1776C321.884 25.1475 322.545 25.0772 323.2 24.9672Z" fill="#6A3120"/>
<path d="M324.326 25.5246C324.476 25.2451 324.594 24.9494 324.678 24.6433C324.762 24.337 324.812 24.0223 324.826 23.7051C324.673 23.9835 324.555 24.2794 324.474 24.5864C324.387 24.8921 324.337 25.2071 324.326 25.5246Z" fill="#6A3120"/>
<path d="M326.822 20.715C326.501 20.8192 326.156 20.8259 325.831 20.734C325.506 20.6422 325.216 20.456 324.997 20.199C324.778 19.9421 324.64 19.6259 324.601 19.2905C324.562 18.9552 324.623 18.6157 324.777 18.3152C324.931 18.0147 325.17 17.7666 325.465 17.6023C325.76 17.438 326.097 17.3649 326.434 17.3924C326.771 17.4198 327.091 17.5465 327.356 17.7563C327.62 17.9662 327.817 18.2498 327.92 18.5713C328.058 19.0011 328.02 19.4681 327.814 19.8699C327.608 20.2717 327.252 20.5756 326.822 20.715Z" fill="#455A64"/>
<path d="M327.869 23.9552C327.548 24.0595 327.203 24.0661 326.878 23.9743C326.553 23.8824 326.262 23.6962 326.043 23.4393C325.824 23.1823 325.686 22.8661 325.647 22.5308C325.608 22.1954 325.669 21.856 325.823 21.5554C325.977 21.2549 326.217 21.0068 326.512 20.8425C326.807 20.6782 327.144 20.6052 327.48 20.6326C327.817 20.66 328.138 20.7867 328.402 20.9966C328.667 21.2064 328.863 21.4901 328.966 21.8116C329.104 22.2414 329.066 22.7083 328.86 23.1101C328.655 23.5119 328.298 23.8158 327.869 23.9552Z" fill="#455A64"/>
<path d="M141.426 22.5104C141.154 25.1227 140.162 27.6081 138.559 29.689C136.956 31.7698 134.807 33.3641 132.35 34.2938C129.893 35.2234 127.227 35.4519 124.648 34.9535C122.069 34.4551 119.679 33.2496 117.746 31.4717L110.654 32.5122L114.203 26.3826C113.387 24.3867 113.038 22.2311 113.181 20.0797C113.324 17.9284 113.956 15.838 115.029 13.9678C116.102 12.0975 117.588 10.4966 119.373 9.28696C121.158 8.07728 123.195 7.29067 125.33 6.987C127.465 6.68333 129.641 6.8706 131.693 7.53456C133.744 8.19852 135.617 9.32166 137.169 10.8185C138.722 12.3154 139.912 14.1465 140.649 16.1726C141.387 18.1987 141.652 20.3663 141.426 22.5104Z" fill="white"/>
<path d="M141.426 22.5113C141.159 25.1217 140.175 27.6073 138.582 29.6928C138.186 30.213 137.757 30.7069 137.297 31.1712C136.826 31.6257 136.327 32.0492 135.801 32.4392C134.757 33.2287 133.609 33.8697 132.389 34.344C131.165 34.8202 129.881 35.1263 128.573 35.2538C127.919 35.3106 127.262 35.322 126.606 35.2879C125.947 35.2739 125.291 35.2054 124.644 35.0832C122.031 34.6043 119.603 33.4072 117.632 31.6261L117.797 31.6773L110.717 32.7633L110.199 32.8429L110.461 32.388L113.987 26.2471V26.4916C113.159 24.4787 112.802 22.3037 112.942 20.1321C113.082 17.9604 113.715 15.8492 114.794 13.9591C115.873 12.069 117.368 10.4497 119.167 9.22441C120.966 7.99912 123.02 7.20009 125.174 6.88809C127.328 6.57609 129.525 6.75934 131.597 7.42389C133.67 8.08844 135.563 9.2168 137.134 10.7232C138.705 12.2295 139.912 14.0742 140.662 16.1169C141.413 18.1596 141.687 20.3465 141.465 22.5113H141.426ZM141.426 22.5113C141.655 20.3759 141.391 18.2163 140.654 16.1991C139.916 14.1819 138.725 12.3612 137.172 10.8776C135.619 9.3939 133.745 8.28695 131.696 7.64218C129.647 6.99742 127.478 6.83208 125.355 7.15895C123.253 7.47445 121.252 8.26601 119.503 9.47318C117.769 10.6868 116.321 12.2645 115.26 14.096C114.213 15.9318 113.597 17.9816 113.458 20.0906C113.319 22.1995 113.661 24.3125 114.459 26.2698L114.51 26.3949L114.442 26.5086L110.893 32.6382L110.643 32.2629L117.717 31.2736H117.814L117.882 31.3418C119.778 33.1136 122.129 34.3242 124.672 34.8387C125.306 34.965 125.949 35.0429 126.594 35.0719C127.24 35.1173 127.888 35.1173 128.534 35.0719C129.828 34.9724 131.103 34.693 132.321 34.2417C133.542 33.7972 134.692 33.1765 135.733 32.3994C136.256 32.0121 136.755 31.5944 137.229 31.1485C137.69 30.6879 138.122 30.1979 138.52 29.6815C140.133 27.606 141.139 25.124 141.426 22.5113Z" fill="#6A3120"/>
<path d="M120.401 27.6397C120.39 27.4514 120.418 27.2629 120.483 27.0859C120.548 26.9089 120.649 26.7471 120.779 26.6106C120.909 26.4741 121.066 26.3658 121.24 26.2924C121.413 26.2191 121.6 26.1822 121.789 26.184C121.978 26.1795 122.166 26.2147 122.34 26.2872C122.515 26.3598 122.673 26.4681 122.803 26.6053C122.933 26.7424 123.033 26.9053 123.096 27.0835C123.16 27.2617 123.185 27.4511 123.171 27.6397C123.184 27.8283 123.158 28.0176 123.095 28.1957C123.031 28.3738 122.931 28.5367 122.801 28.6741C122.671 28.8115 122.514 28.9204 122.34 28.9939C122.166 29.0674 121.978 29.1038 121.789 29.101C121.6 29.1021 121.413 29.0645 121.239 28.9904C121.065 28.9164 120.909 28.8076 120.779 28.6707C120.649 28.5337 120.548 28.3716 120.483 28.1943C120.418 28.0169 120.39 27.8282 120.401 27.6397ZM120.97 24.2792L120.64 12.998H122.915L122.585 24.2792H120.97Z" fill="#FFC727"/>
<path d="M125.804 27.6397C125.794 27.4516 125.822 27.2635 125.888 27.0868C125.953 26.9102 126.054 26.7488 126.184 26.6124C126.314 26.4761 126.47 26.3678 126.643 26.2941C126.817 26.2205 127.003 26.183 127.192 26.184C127.381 26.1787 127.57 26.2133 127.745 26.2855C127.92 26.3576 128.079 26.4659 128.209 26.6031C128.34 26.7403 128.441 26.9035 128.504 27.0821C128.568 27.2607 128.594 27.4506 128.579 27.6397C128.593 27.8288 128.567 28.0186 128.503 28.1971C128.439 28.3755 128.338 28.5387 128.208 28.6762C128.077 28.8137 127.919 28.9225 127.744 28.9956C127.569 29.0687 127.381 29.1046 127.192 29.101C127.003 29.1021 126.816 29.0645 126.642 28.9904C126.468 28.9164 126.312 28.8076 126.181 28.6707C126.051 28.5337 125.951 28.3716 125.886 28.1943C125.821 28.0169 125.793 27.8282 125.804 27.6397ZM126.373 24.2792L126.043 12.998H128.318L127.988 24.2792H126.373Z" fill="#FFC727"/>
<path d="M131.212 27.6397C131.202 27.4516 131.23 27.2635 131.296 27.0868C131.361 26.9102 131.462 26.7488 131.592 26.6124C131.721 26.4761 131.878 26.3678 132.051 26.2941C132.225 26.2205 132.411 26.183 132.6 26.184C132.789 26.1787 132.978 26.2133 133.153 26.2855C133.328 26.3576 133.486 26.4659 133.617 26.6031C133.748 26.7403 133.849 26.9035 133.912 27.0821C133.976 27.2607 134.002 27.4506 133.987 27.6397C133.987 28.0076 133.841 28.3605 133.581 28.6207C133.32 28.8809 132.968 29.0271 132.6 29.0271C132.232 29.0271 131.879 28.8809 131.618 28.6207C131.358 28.3605 131.212 28.0076 131.212 27.6397ZM131.781 24.2792L131.451 12.998H133.726L133.401 24.2792H131.781Z" fill="#FFC727"/>
<defs>
<linearGradient id="paint0_linear_777_39943" x1="190.321" y1="122.957" x2="188.382" y2="120.654" gradientUnits="userSpaceOnUse">
<stop stop-color="#8C8E8F"/>
<stop offset="0.29" stop-color="white"/>
<stop offset="0.6" stop-color="#8C8E8F"/>
<stop offset="1" stop-color="white"/>
</linearGradient>
<linearGradient id="paint1_linear_777_39943" x1="162.041" y1="122.07" x2="160.102" y2="119.676" gradientUnits="userSpaceOnUse">
<stop stop-color="#8C8E8F"/>
<stop offset="0.29" stop-color="white"/>
<stop offset="0.6" stop-color="#8C8E8F"/>
<stop offset="1" stop-color="white"/>
</linearGradient>
<linearGradient id="paint2_linear_777_39943" x1="158.532" y1="111.601" x2="160.465" y2="113.91" gradientUnits="userSpaceOnUse">
<stop stop-color="#8C8E8F"/>
<stop offset="0.29" stop-color="white"/>
<stop offset="0.6" stop-color="#8C8E8F"/>
<stop offset="1" stop-color="white"/>
</linearGradient>
<linearGradient id="paint3_linear_777_39943" x1="186.812" y1="112.494" x2="188.745" y2="114.882" gradientUnits="userSpaceOnUse">
<stop stop-color="#8C8E8F"/>
<stop offset="0.29" stop-color="white"/>
<stop offset="0.6" stop-color="#8C8E8F"/>
<stop offset="1" stop-color="white"/>
</linearGradient>
</defs>
</svg>
