<svg width="252" height="248" viewBox="0 0 252 248" fill="none" xmlns="http://www.w3.org/2000/svg">
<g clip-path="url(#clip0_740_31709)">
<path d="M238.854 170.295C212.746 228.486 146.095 252.51 94.2922 247.309C80.1473 245.892 51.6893 243.033 29.8042 221.599C-12.2247 180.439 -4.1665 96.0805 37.6126 47.0615C42.9925 40.7482 80.2084 -1.5252 137.025 0.0425126C178.623 1.19394 207.415 25.203 210.914 28.1923C215.336 31.9699 225.075 40.9324 233.748 55.0294C254.126 88.1613 255.169 133.931 238.854 170.295Z" fill="url(#paint0_linear_740_31709)"/>
<path d="M17.612 217.429C17.6155 218.474 18.0321 219.474 18.7708 220.212C19.5094 220.95 20.5102 221.366 21.5543 221.368H234.768C235.812 221.366 236.813 220.95 237.551 220.212C238.29 219.474 238.707 218.474 238.71 217.429L240.482 94.9015C240.482 92.7351 237.929 88.5058 233.251 88.8238L24.8793 83.4351C23.5339 83.3997 22.1952 83.638 20.9447 84.1356C19.6941 84.6331 18.5577 85.3795 17.6043 86.3295C16.6509 87.2795 15.9004 88.4133 15.3984 89.6621C14.8964 90.9109 14.6533 92.2486 14.6838 93.5942L17.612 217.429Z" fill="url(#paint1_linear_740_31709)"/>
<path d="M21.5048 213.649C21.5076 214.637 21.9014 215.584 22.6002 216.283C23.299 216.982 24.2461 217.376 25.2345 217.379H229.626C230.615 217.376 231.562 216.982 232.261 216.283C232.959 215.584 233.353 214.637 233.356 213.649L235.029 102.417C234.833 95.7236 228.964 93.3171 225.407 93.4597L25.6986 88.102C24.7526 88.077 23.8114 88.2446 22.9321 88.5946C22.0529 88.9446 21.2539 89.4696 20.5838 90.1379C19.9138 90.8062 19.3865 91.6037 19.0342 92.482C18.6818 93.3603 18.5116 94.301 18.5341 95.2471L21.5048 213.649Z" fill="url(#paint2_linear_740_31709)"/>
<path d="M231.148 160.807H231.139C231.067 160.806 230.996 160.791 230.93 160.763C230.864 160.734 230.805 160.693 230.755 160.641C230.705 160.59 230.665 160.529 230.639 160.462C230.612 160.395 230.599 160.324 230.601 160.252L230.734 151.232C230.736 151.088 230.794 150.952 230.896 150.851C230.998 150.75 231.136 150.694 231.279 150.693H231.288C231.36 150.694 231.431 150.71 231.497 150.738C231.562 150.766 231.622 150.808 231.672 150.859C231.722 150.911 231.761 150.971 231.788 151.038C231.814 151.105 231.828 151.176 231.826 151.248L231.694 160.269C231.692 160.412 231.633 160.549 231.531 160.65C231.429 160.751 231.291 160.807 231.148 160.807Z" fill="#3E7742"/>
<path d="M231.472 138.702H231.464C231.392 138.701 231.322 138.686 231.256 138.657C231.19 138.629 231.13 138.588 231.08 138.536C231.03 138.485 230.991 138.424 230.964 138.357C230.938 138.291 230.925 138.219 230.926 138.148L231.432 103.598C231.423 101.545 230.8 99.9068 229.581 98.7385C227.305 96.5579 223.692 96.6695 223.54 96.6766L159.708 94.9645C159.636 94.9627 159.566 94.9467 159.5 94.9175C159.435 94.8883 159.375 94.8465 159.326 94.7944C159.277 94.7423 159.238 94.681 159.212 94.614C159.187 94.547 159.175 94.4756 159.177 94.4039C159.175 94.3312 159.189 94.2591 159.217 94.1921C159.245 94.1251 159.287 94.0646 159.34 94.0146C159.393 93.9647 159.455 93.9262 159.524 93.9017C159.592 93.8772 159.665 93.8672 159.737 93.8724L223.531 95.5845C223.929 95.5606 227.775 95.4959 230.338 97.9494C231.779 99.3302 232.515 101.233 232.526 103.603L232.018 138.162C232.016 138.305 231.958 138.443 231.856 138.544C231.754 138.645 231.616 138.702 231.472 138.702Z" fill="#3E7742"/>
<path d="M0.815323 231.539L251.185 231.539C251.461 231.539 251.685 231.315 251.685 231.039V221.274C251.685 220.997 251.461 220.773 251.185 220.773L0.815323 220.773C0.538956 220.773 0.314896 220.997 0.314896 221.274V231.039C0.314896 231.315 0.538956 231.539 0.815323 231.539Z" fill="url(#paint3_linear_740_31709)"/>
<path d="M187.792 29.2635L59.9014 28.4806C58.9062 28.4751 57.9204 28.6727 57.0041 29.0611C56.0878 29.4496 55.2604 30.0208 54.5723 30.7399C53.8843 31.4589 53.3501 32.3107 53.0024 33.2432C52.6547 34.1757 52.5007 35.1693 52.55 36.1633L61.3407 217.866H203.663L211.564 55.5241L187.792 29.2635Z" fill="#FFBA3B"/>
<path d="M193.11 54.7468C192.123 54.7118 191.152 54.4773 190.258 54.0574C189.363 53.6375 188.563 53.0408 187.905 52.3034C187.247 51.5659 186.746 50.703 186.43 49.7665C186.115 48.83 185.992 47.8393 186.07 46.8542L187.441 29.5039L211.59 55.419L193.11 54.7468Z" fill="#F5A000"/>
<path d="M81.3454 144.638C99.0738 144.351 167.129 143.176 184.315 142.88C186.482 142.842 188.264 144.156 188.253 145.779C188.242 147.323 186.601 148.58 184.533 148.623L81.6315 150.749C79.6492 150.791 77.946 149.694 77.7015 148.221L77.6395 147.849C77.3597 146.165 79.0779 144.672 81.3454 144.638Z" fill="#FFEFB8"/>
<path d="M80.1046 162.675C80.403 163.054 80.9504 163.286 81.5377 163.281L152.193 162.632C153.079 162.624 153.793 162.086 153.798 161.422L153.823 157.937C153.828 157.244 153.063 156.684 152.14 156.704L83.449 158.139C80.388 158.203 78.5501 160.696 80.1046 162.675Z" fill="#FFEFB8"/>
<path d="M81.0036 176.169C98.732 175.882 166.788 174.708 183.973 174.411C186.141 174.374 187.923 175.686 187.912 177.31C187.9 178.855 186.259 180.11 184.192 180.154L81.2905 182.28C79.3083 182.322 77.6042 181.226 77.3597 179.752L77.2977 179.379C77.0178 177.695 78.737 176.203 81.0036 176.169Z" fill="#FFEFB8"/>
<path d="M79.7635 194.204C80.062 194.583 80.6093 194.815 81.1966 194.809L151.852 194.161C152.737 194.153 153.452 193.615 153.457 192.951L153.481 189.465C153.487 188.772 152.722 188.213 151.799 188.233L83.1088 189.669C80.0469 189.732 78.2091 192.226 79.7635 194.204Z" fill="#FFEFB8"/>
<g opacity="0.8">
<path d="M162.703 70.2929C162.328 69.8315 161.74 69.6402 161.115 69.6535L104.289 70.8447L102.853 66.2851C102.754 65.9767 102.556 65.7094 102.29 65.5245C102.024 65.3395 101.705 65.247 101.381 65.2612L93.5806 65.4658C92.7436 65.4879 92.066 66.0698 92.066 66.9051C92.066 67.7403 92.7436 68.2877 93.5806 68.2682L100.248 68.1105L112.313 106.662C112.416 106.981 112.616 107.26 112.887 107.458C113.157 107.656 113.483 107.764 113.818 107.767L153.705 108.298C154.64 108.31 155.4 107.723 155.4 106.838C155.4 105.954 154.64 105.348 153.705 105.333L114.982 104.916L111.874 94.9069L154.427 94.9716C154.844 94.9734 155.251 94.8427 155.59 94.5984C155.928 94.3541 156.181 94.0088 156.31 93.612L163.021 71.904C163.107 71.6304 163.124 71.3393 163.068 71.0577C163.013 70.7761 162.887 70.513 162.703 70.2929Z" fill="white"/>
<path d="M119.648 110.143C116.371 110.093 113.714 112.647 113.714 115.838C113.714 119.028 116.371 121.693 119.648 121.779C122.95 121.868 125.651 119.313 125.651 116.087C125.651 112.862 122.95 110.195 119.648 110.143ZM119.648 118.676C118.115 118.641 116.87 117.396 116.87 115.903C116.87 114.41 118.115 113.219 119.648 113.246C121.181 113.273 122.442 114.518 122.442 116.019C122.442 117.52 121.187 118.713 119.648 118.676Z" fill="white"/>
<path d="M146.237 110.557C142.793 110.504 140.006 113.12 140.006 116.387C140.006 119.655 142.793 122.388 146.237 122.478C149.703 122.567 152.538 119.955 152.538 116.649C152.538 113.344 149.703 110.611 146.237 110.557ZM146.237 119.299C144.627 119.261 143.321 117.987 143.321 116.457C143.321 114.928 144.627 113.711 146.237 113.736C147.847 113.761 149.169 115.042 149.169 116.579C149.169 118.117 147.852 119.338 146.237 119.299Z" fill="white"/>
</g>
<path opacity="0.81" d="M130.161 136.055C103.255 136.055 81.3657 114.165 81.3657 87.2597C81.3657 60.3544 103.253 38.4648 130.161 38.4648C157.068 38.4648 178.955 60.3535 178.955 87.2597C178.955 114.166 157.065 136.055 130.161 136.055ZM130.161 40.8926C104.594 40.8926 83.7935 61.6927 83.7935 87.2597C83.7935 112.827 104.594 133.627 130.161 133.627C155.728 133.627 176.528 112.827 176.528 87.2597C176.528 61.6927 155.726 40.8926 130.161 40.8926Z" fill="white"/>
<path d="M130.799 93.3333C130.436 93.3615 130.073 93.29 129.748 93.1265C129.423 92.9631 129.148 92.7139 128.954 92.406L122.4 81.8881C121.786 80.9032 122.117 79.5525 123.139 78.8767C124.16 78.2009 125.484 78.4462 126.097 79.4311L130.639 86.7321L136.633 74.5252C137.171 73.4295 138.463 72.9309 139.518 73.4021C140.573 73.8733 140.994 75.1496 140.456 76.2443L132.716 92.026C132.543 92.38 132.284 92.6847 131.962 92.9117C131.64 93.1387 131.266 93.2807 130.875 93.3244L130.799 93.3333Z" fill="url(#paint4_linear_740_31709)"/>
<path d="M38.9365 132.559C38.7394 132.559 38.5501 132.482 38.4087 132.345C38.2673 132.207 38.1849 132.02 38.1792 131.823C38.1703 131.547 37.9949 124.989 39.9258 117.985C42.5271 108.552 47.7431 102.961 55.0104 101.817C58.571 101.256 61.7418 102.097 64.4424 104.315C73.2349 111.547 74.071 130.949 74.102 131.772C74.1089 131.873 74.0953 131.975 74.0622 132.071C74.029 132.167 73.977 132.256 73.909 132.331C73.8411 132.407 73.7587 132.468 73.6667 132.511C73.5747 132.554 73.475 132.578 73.3735 132.582C73.2719 132.586 73.1707 132.569 73.0757 132.533C72.9807 132.497 72.8939 132.443 72.8204 132.372C72.7469 132.302 72.6883 132.218 72.648 132.125C72.6077 132.032 72.5864 131.931 72.5856 131.83C72.5785 131.636 71.7433 112.285 63.4769 105.487C61.1289 103.557 58.3611 102.83 55.2469 103.317C39.0932 105.86 39.6875 131.519 39.6955 131.778C39.6987 131.878 39.6822 131.977 39.647 132.07C39.6117 132.164 39.5584 132.249 39.4901 132.321C39.4218 132.394 39.3399 132.452 39.249 132.493C39.1581 132.534 39.06 132.557 38.9604 132.559L38.9365 132.559Z" fill="url(#paint5_linear_740_31709)"/>
<path d="M6.97555 215.636L20.0142 125.726L68.9942 124.902L84.7794 220.631H11.2172C8.59995 220.631 6.59381 218.269 6.97555 215.636Z" fill="url(#paint6_linear_740_31709)"/>
<path d="M78.5049 125.726L68.9923 124.902L84.7793 220.631H94.2228C96.1368 220.631 97.5681 218.842 97.1775 216.935L78.5049 125.726Z" fill="url(#paint7_linear_740_31709)"/>
<path d="M62.8189 132.352C62.6228 132.352 62.4343 132.276 62.2931 132.14C62.1519 132.004 62.0689 131.818 62.0616 131.622C62.0536 131.427 61.2193 112.076 52.9529 105.279C50.6049 103.349 47.8361 102.622 44.722 103.109C28.5816 105.65 29.1635 131.311 29.1715 131.57C29.1761 131.671 29.1607 131.771 29.1261 131.866C29.0915 131.96 29.0385 132.047 28.9701 132.121C28.9016 132.195 28.8192 132.254 28.7276 132.296C28.6359 132.338 28.5369 132.361 28.4363 132.364C28.3356 132.367 28.2354 132.35 28.1414 132.314C28.0474 132.278 27.9615 132.223 27.8887 132.154C27.8159 132.084 27.7577 132.001 27.7175 131.908C27.6772 131.816 27.6557 131.717 27.6543 131.616C27.6463 131.341 27.4709 124.782 29.4018 117.779C32.0022 108.345 37.2191 102.754 44.4864 101.61C48.0478 101.049 51.2178 101.89 53.9184 104.108C62.7099 111.34 63.5461 130.742 63.5779 131.566C63.5817 131.665 63.5659 131.765 63.5312 131.858C63.4966 131.951 63.4439 132.037 63.3761 132.11C63.3083 132.183 63.2268 132.242 63.1362 132.284C63.0456 132.325 62.9477 132.348 62.8481 132.352H62.8189Z" fill="url(#paint8_linear_740_31709)"/>
<path d="M193.511 239.961C196.721 240.238 202.291 240.689 206.682 240.882C209.322 240.998 210.845 240.739 211.717 240.39C211.717 240.488 211.713 240.582 211.708 240.668C211.696 240.892 211.601 241.104 211.442 241.263C211.283 241.421 211.07 241.515 210.846 241.526C202.548 241.989 195.95 241.686 193.601 241.543C193.489 241.538 193.38 241.505 193.285 241.446C193.19 241.387 193.112 241.305 193.059 241.206C193.005 241.108 192.978 240.998 192.98 240.886C192.982 240.774 193.013 240.665 193.069 240.569C193.202 240.356 193.35 240.153 193.511 239.961Z" fill="url(#paint9_linear_740_31709)"/>
<path d="M206.686 240.882C202.296 240.689 196.726 240.238 193.516 239.961C196.672 236.09 206.686 233.48 206.686 233.48H209.515C211.464 236.285 211.743 238.955 211.722 240.389C210.841 240.737 209.322 241.003 206.686 240.882Z" fill="url(#paint10_linear_740_31709)"/>
<path d="M209.987 228.864L209.722 234.102C209.708 234.379 209.599 234.642 209.412 234.848C209.226 235.053 208.975 235.187 208.7 235.227C207.988 235.334 207.26 235.273 206.575 235.05C206.333 234.971 206.117 234.828 205.95 234.637C205.783 234.445 205.67 234.212 205.623 233.962L204.708 228.863L209.987 228.864Z" fill="url(#paint11_linear_740_31709)"/>
<path d="M242.816 246.004C244.209 245.754 244.838 244.819 245.102 243.82L245.108 243.847C245.212 244.363 245.151 244.899 244.932 245.378C244.713 245.857 244.348 246.254 243.889 246.513C242.738 247.14 241.488 247.247 240.514 247.196C240 247.172 239.501 247.023 239.06 246.76C238.618 246.497 238.249 246.13 237.983 245.69L237.975 245.676C239.024 246.344 240.496 246.423 242.816 246.004Z" fill="url(#paint12_linear_740_31709)"/>
<path d="M236.255 230.477H238.587C242.141 230.383 244.372 240.069 245.102 243.82C244.837 244.819 244.209 245.753 242.816 246.004C240.496 246.423 239.024 246.343 237.975 245.673C236.056 242.408 235.104 237.627 234.647 234.836C234.127 231.662 236.255 230.477 236.255 230.477Z" fill="url(#paint13_linear_740_31709)"/>
<path d="M238.288 225.615L239.583 230.767C239.659 231.075 239.628 231.399 239.496 231.687C239.364 231.975 239.138 232.209 238.855 232.352C238.131 232.724 237.111 233.115 236.173 233.002C235.957 232.974 235.754 232.886 235.586 232.748C235.417 232.61 235.291 232.428 235.22 232.223L233.319 226.802L238.288 225.615Z" fill="url(#paint14_linear_740_31709)"/>
<path d="M192.721 157.762C192.721 157.762 204.298 230.119 204.106 230.517C204.106 230.517 207.304 231.97 210.789 230.703C210.789 230.703 209.742 192.023 207.29 177.191C207.29 177.191 227.041 211.763 233.319 228.99C233.319 228.99 236.591 228.6 239.299 226.818C239.299 226.818 218.028 164.589 212.353 156.301L192.721 157.762Z" fill="url(#paint15_linear_740_31709)"/>
<path d="M206.827 176.813C206.89 176.813 206.951 176.795 207.004 176.761C207.042 176.737 207.075 176.706 207.102 176.67C207.128 176.633 207.146 176.592 207.156 176.548C207.167 176.504 207.168 176.459 207.16 176.415C207.153 176.37 207.137 176.328 207.113 176.29L202.787 169.381C202.763 169.342 202.73 169.308 202.692 169.281C202.654 169.255 202.611 169.237 202.565 169.227L199.382 168.587C199.338 168.578 199.292 168.578 199.248 168.586C199.204 168.595 199.162 168.612 199.124 168.637C199.087 168.662 199.055 168.694 199.029 168.732C199.004 168.769 198.987 168.811 198.978 168.855C198.969 168.899 198.969 168.945 198.978 168.989C198.986 169.033 199.004 169.075 199.028 169.113C199.053 169.15 199.085 169.182 199.123 169.208C199.16 169.233 199.202 169.25 199.246 169.259L202.286 169.87L206.533 176.655C206.565 176.704 206.608 176.744 206.66 176.772C206.711 176.8 206.769 176.814 206.827 176.813Z" fill="url(#paint16_linear_740_31709)"/>
<path d="M139.602 86.9082C139.602 86.9082 147.413 88.6309 152.164 90.8248C153.105 91.2602 153.859 92.018 154.289 92.9612C155.706 96.0736 159.958 103.878 168.206 107.603C167.019 109.179 165.106 112.457 164.274 117.966C159.323 114.28 155.047 108.125 152.995 98.0319C152.995 98.0319 151.433 98.8813 149.483 97.9345C148.453 97.434 147.264 96.7246 146.371 96.163C145.478 95.6159 144.83 94.7458 144.561 93.7335C144.222 92.405 144.422 91.2287 144.422 89.971L140.407 88.7266C140.407 88.7266 139.199 88.2749 139.602 86.9082Z" fill="url(#paint17_linear_740_31709)"/>
<path d="M164.273 117.965C165.106 112.456 167.019 109.178 168.205 107.602C173.326 109.916 179.985 110.656 188.472 107.716C189.254 107.446 190.07 107.285 190.897 107.238C195.414 106.972 210.294 106.49 222.61 110.559C223.887 110.979 225.062 111.665 226.056 112.57C227.051 113.476 227.843 114.581 228.382 115.814C231.714 123.458 237.107 140.868 222.135 149.658C221.172 147.259 219.96 144.967 218.521 142.819C220.932 138.753 221.647 133.197 217.37 125.964C214.25 134.389 212.786 146.681 212.48 152.121C212.38 153.912 212.694 155.702 213.397 157.353L213.473 157.53C213.508 157.613 213.524 157.704 213.521 157.794C213.518 157.885 213.494 157.974 213.453 158.054C213.411 158.135 213.353 158.206 213.281 158.261C213.209 158.317 213.126 158.356 213.038 158.376C204.609 160.268 195.843 159.755 193.224 159.538C192.997 159.519 192.781 159.43 192.608 159.282C192.435 159.134 192.314 158.935 192.261 158.713C188.162 141.442 188.152 129.662 189.155 122.215C185.32 123.075 173.596 124.904 164.273 117.965Z" fill="url(#paint18_linear_740_31709)"/>
<path d="M189.138 122.683C189.221 122.683 189.301 122.652 189.363 122.598C189.425 122.543 189.465 122.468 189.476 122.385C190.439 115.115 192.399 111.941 192.418 111.91C192.467 111.834 192.483 111.741 192.464 111.652C192.444 111.564 192.39 111.487 192.313 111.438C192.236 111.389 192.144 111.373 192.055 111.393C191.967 111.413 191.89 111.467 191.841 111.543C191.757 111.675 189.783 114.852 188.799 122.296C188.793 122.341 188.795 122.386 188.807 122.429C188.819 122.473 188.839 122.513 188.866 122.549C188.893 122.584 188.927 122.614 188.966 122.637C189.005 122.659 189.048 122.674 189.093 122.68C189.108 122.682 189.123 122.683 189.138 122.683Z" fill="url(#paint19_linear_740_31709)"/>
<path d="M209.939 97.1777C209.939 97.1777 210.791 106.193 211.542 108.86C211.597 109.057 211.585 109.267 211.507 109.455C211.429 109.644 211.29 109.802 211.112 109.902C209.838 110.63 206.782 111.818 202.601 109.769C202.272 109.606 201.997 109.35 201.81 109.033C201.623 108.716 201.533 108.351 201.549 107.983L201.917 99.2716L209.939 97.1777Z" fill="url(#paint20_linear_740_31709)"/>
<path d="M201.733 85.6484C201.733 85.6484 199.006 91.9131 198.823 95.2018C198.64 98.4904 197.931 100.624 201.733 101.286C205.536 101.947 208.739 100.054 210.474 96.7783C210.474 96.7783 213.193 91.7298 212.583 89.6643C211.972 87.5988 201.733 85.6484 201.733 85.6484Z" fill="url(#paint21_linear_740_31709)"/>
<path d="M209.174 94.4175L208.958 94.3228C208.893 94.294 208.834 94.2523 208.786 94.2C208.737 94.1478 208.7 94.0862 208.676 94.0191C208.652 93.9519 208.642 93.8805 208.647 93.8094C208.652 93.7382 208.671 93.6688 208.703 93.6053C209.239 92.5699 210.284 90.1953 208.934 89.6418C207.194 88.9279 200.301 87.5222 198.814 85.0768C197.385 82.7261 198.651 79.6916 200.555 78.829C200.615 78.8011 200.684 78.7971 200.748 78.8177C200.811 78.8384 200.865 78.8823 200.897 78.9406L201.056 79.2408C201.08 79.2862 201.117 79.3233 201.163 79.3474C201.208 79.3716 201.26 79.3816 201.311 79.3763C201.362 79.371 201.41 79.3505 201.45 79.3175C201.489 79.2846 201.518 79.2406 201.532 79.1912C201.546 79.1433 201.573 79.1004 201.611 79.0677C201.648 79.0349 201.694 79.0137 201.743 79.0067C201.793 78.9996 201.843 79.0071 201.888 79.028C201.933 79.049 201.971 79.0826 201.997 79.1248C202.454 79.8564 203.689 81.0432 206.989 81.6517C211.684 82.518 214.784 84.416 214.858 87.6569C214.859 87.7031 214.872 87.7484 214.896 87.7878C214.92 87.8273 214.955 87.8596 214.995 87.8814C215.036 87.9031 215.082 87.9136 215.128 87.9117C215.175 87.9097 215.219 87.8955 215.258 87.8703C215.605 87.6595 216.159 87.5603 216.9 88.183C218.187 89.2662 217.66 92.0801 214.837 94.3874C214.805 94.4121 214.779 94.444 214.762 94.4805C214.745 94.517 214.737 94.5571 214.738 94.5974C214.739 94.6377 214.75 94.6772 214.769 94.7126C214.788 94.748 214.816 94.7783 214.849 94.801C215.361 95.1341 216.124 95.9277 214.147 96.9843C212.101 98.0782 210.574 97.9878 209.984 97.8913C209.949 97.8855 209.916 97.8728 209.887 97.8538C209.857 97.8348 209.832 97.81 209.812 97.7809C209.793 97.7518 209.779 97.719 209.773 97.6845C209.767 97.6501 209.767 97.6146 209.775 97.5804L210.403 94.732C210.411 94.6942 210.411 94.655 210.402 94.6173C210.393 94.5796 210.376 94.5444 210.352 94.5143C210.328 94.4841 210.297 94.4597 210.262 94.443C210.227 94.4262 210.189 94.4175 210.15 94.4175H209.174Z" fill="url(#paint22_linear_740_31709)"/>
<path d="M209.057 95.02C209.057 95.02 210.096 91.0183 211.891 92.1396C213.685 93.2609 210.96 96.624 209.517 96.7737L209.057 95.02Z" fill="url(#paint23_linear_740_31709)"/>
<path d="M150.911 97.0999C150.99 97.1003 151.066 97.073 151.126 97.0228C151.161 96.9946 151.19 96.9597 151.212 96.9202C151.233 96.8807 151.247 96.8374 151.251 96.7927C151.256 96.748 151.251 96.7028 151.239 96.6598C151.226 96.6167 151.204 96.5767 151.176 96.5419C150.881 96.1787 148.259 92.9742 147.25 92.4038C146.882 92.1957 146.663 91.9813 146.617 91.7838C146.596 91.6746 146.612 91.5615 146.662 91.4623L149.742 92.0823L151.488 93.5792C151.521 93.6118 151.561 93.6373 151.605 93.6539C151.649 93.6705 151.695 93.678 151.742 93.6758C151.789 93.6737 151.835 93.6619 151.877 93.6413C151.919 93.6208 151.956 93.5918 151.986 93.5562C152.017 93.5206 152.039 93.4791 152.053 93.4344C152.067 93.3897 152.071 93.3426 152.066 93.2961C152.061 93.2496 152.046 93.2046 152.023 93.1641C152 93.1235 151.968 93.0881 151.931 93.0601L150.118 91.5048C150.074 91.4669 150.02 91.4407 149.963 91.4287L146.553 90.7458C146.487 90.7315 146.417 90.7377 146.354 90.7634C146.291 90.7892 146.237 90.8333 146.199 90.8901C145.949 91.2604 145.866 91.6058 145.946 91.9433C146.041 92.3427 146.355 92.689 146.908 93.0061C147.668 93.4348 149.86 96.0175 150.641 96.9812C150.674 97.02 150.716 97.0508 150.763 97.0714C150.809 97.0919 150.86 97.1017 150.911 97.0999Z" fill="url(#paint24_linear_740_31709)"/>
<path d="M209.188 153.992L197.134 154.141L201.353 150.169C201.863 149.687 202.521 149.389 203.22 149.324C203.92 149.258 204.621 149.429 205.213 149.808C206.023 150.327 206.747 150.972 207.356 151.717C207.356 151.717 214.876 148.972 218.521 142.82C219.96 144.968 221.171 147.26 222.135 149.659C218.867 151.577 214.63 153.086 209.188 153.992Z" fill="url(#paint25_linear_740_31709)"/>
<path d="M207.89 155.546C207.866 155.546 207.843 155.546 207.819 155.546L177.219 155.513C177.041 155.513 176.864 155.478 176.7 155.41C176.536 155.342 176.386 155.242 176.26 155.116C176.135 154.99 176.035 154.841 175.967 154.676C175.899 154.512 175.864 154.336 175.864 154.158C175.864 153.98 175.899 153.804 175.967 153.639C176.035 153.475 176.135 153.325 176.26 153.2C176.386 153.074 176.536 152.974 176.7 152.906C176.864 152.838 177.041 152.803 177.219 152.803L207.819 152.836C208.172 152.836 208.512 152.974 208.764 153.221C209.017 153.468 209.163 153.804 209.172 154.157C209.181 154.51 209.051 154.853 208.811 155.112C208.571 155.371 208.239 155.526 207.887 155.544L207.89 155.546Z" fill="url(#paint26_linear_740_31709)"/>
<path d="M149.71 128.057H175.195C176.113 128.055 177.012 128.312 177.79 128.8C178.567 129.288 179.191 129.986 179.588 130.813L191.368 155.531H159.699C159.109 155.532 158.533 155.357 158.043 155.028C157.554 154.698 157.174 154.23 156.954 153.683L147.817 130.81C147.289 129.492 148.274 128.057 149.71 128.057Z" fill="url(#paint27_linear_740_31709)"/>
<path d="M166.93 144.769C167.982 144.422 168.382 142.766 167.823 141.07C167.264 139.375 165.958 138.281 164.906 138.628C163.854 138.975 163.454 140.631 164.012 142.326C164.571 144.022 165.877 145.116 166.93 144.769Z" fill="url(#paint28_linear_740_31709)"/>
</g>
<defs>
<linearGradient id="paint0_linear_740_31709" x1="262.352" y1="283.025" x2="83.2373" y2="82.7951" gradientUnits="userSpaceOnUse">
<stop stop-color="#FFEFB8"/>
<stop offset="1" stop-color="#FDF6DF"/>
</linearGradient>
<linearGradient id="paint1_linear_740_31709" x1="130.404" y1="1827.29" x2="-367.843" y2="373.898" gradientUnits="userSpaceOnUse">
<stop stop-color="#6A3120"/>
<stop offset="1" stop-color="#D07B62"/>
</linearGradient>
<linearGradient id="paint2_linear_740_31709" x1="212.235" y1="77.8641" x2="28.5727" y2="239.116" gradientUnits="userSpaceOnUse">
<stop stop-color="#C5E8AB"/>
<stop offset="1" stop-color="#ACDF87"/>
</linearGradient>
<linearGradient id="paint3_linear_740_31709" x1="122.858" y1="95.4324" x2="125.903" y2="222.127" gradientUnits="userSpaceOnUse">
<stop stop-color="#6A3120"/>
<stop offset="1" stop-color="#D07B62"/>
</linearGradient>
<linearGradient id="paint4_linear_740_31709" x1="138.068" y1="76.7759" x2="124.047" y2="100.14" gradientUnits="userSpaceOnUse">
<stop stop-color="#3E7742"/>
<stop offset="1" stop-color="#6CB637"/>
</linearGradient>
<linearGradient id="paint5_linear_740_31709" x1="69.0386" y1="107.11" x2="50.0293" y2="146.901" gradientUnits="userSpaceOnUse">
<stop stop-color="#3E7742"/>
<stop offset="1" stop-color="#6CB637"/>
</linearGradient>
<linearGradient id="paint6_linear_740_31709" x1="73.8054" y1="141.804" x2="3.39107" y2="244.997" gradientUnits="userSpaceOnUse">
<stop stop-color="#3E7742"/>
<stop offset="1" stop-color="#6CB637"/>
</linearGradient>
<linearGradient id="paint7_linear_740_31709" x1="93.2599" y1="141.804" x2="30.562" y2="175.146" gradientUnits="userSpaceOnUse">
<stop stop-color="#3E7742"/>
<stop offset="1" stop-color="#6CB637"/>
</linearGradient>
<linearGradient id="paint8_linear_740_31709" x1="58.5135" y1="106.901" x2="39.5155" y2="146.683" gradientUnits="userSpaceOnUse">
<stop stop-color="#3E7742"/>
<stop offset="1" stop-color="#6CB637"/>
</linearGradient>
<linearGradient id="paint9_linear_740_31709" x1="211.716" y1="240.867" x2="192.983" y2="240.867" gradientUnits="userSpaceOnUse">
<stop stop-color="#4042E2"/>
<stop offset="1" stop-color="#4F52FF"/>
</linearGradient>
<linearGradient id="paint10_linear_740_31709" x1="211.718" y1="237.196" x2="193.511" y2="237.196" gradientUnits="userSpaceOnUse">
<stop stop-color="#09005D"/>
<stop offset="1" stop-color="#1A0F91"/>
</linearGradient>
<linearGradient id="paint11_linear_740_31709" x1="209.987" y1="232.07" x2="204.71" y2="232.07" gradientUnits="userSpaceOnUse">
<stop stop-color="#FEBBBA"/>
<stop offset="1" stop-color="#FF928E"/>
</linearGradient>
<linearGradient id="paint12_linear_740_31709" x1="245.155" y1="245.514" x2="237.975" y2="245.514" gradientUnits="userSpaceOnUse">
<stop stop-color="#4042E2"/>
<stop offset="1" stop-color="#4F52FF"/>
</linearGradient>
<linearGradient id="paint13_linear_740_31709" x1="245.102" y1="238.369" x2="234.564" y2="238.369" gradientUnits="userSpaceOnUse">
<stop stop-color="#09005D"/>
<stop offset="1" stop-color="#1A0F91"/>
</linearGradient>
<linearGradient id="paint14_linear_740_31709" x1="239.625" y1="229.318" x2="233.318" y2="229.318" gradientUnits="userSpaceOnUse">
<stop stop-color="#FEBBBA"/>
<stop offset="1" stop-color="#FF928E"/>
</linearGradient>
<linearGradient id="paint15_linear_740_31709" x1="216.592" y1="1103.48" x2="-222.198" y2="617.377" gradientUnits="userSpaceOnUse">
<stop stop-color="#6A3120"/>
<stop offset="1" stop-color="#D07B62"/>
</linearGradient>
<linearGradient id="paint16_linear_740_31709" x1="206.01" y1="170.034" x2="200.477" y2="179.956" gradientUnits="userSpaceOnUse">
<stop stop-color="#3E7742"/>
<stop offset="1" stop-color="#6CB637"/>
</linearGradient>
<linearGradient id="paint17_linear_740_31709" x1="152.881" y1="96.4775" x2="177.859" y2="128.973" gradientUnits="userSpaceOnUse">
<stop stop-color="#FEBBBA"/>
<stop offset="1" stop-color="#FF928E"/>
</linearGradient>
<linearGradient id="paint18_linear_740_31709" x1="222.562" y1="116.373" x2="192.299" y2="186.589" gradientUnits="userSpaceOnUse">
<stop stop-color="#3E7742"/>
<stop offset="1" stop-color="#6CB637"/>
</linearGradient>
<linearGradient id="paint19_linear_740_31709" x1="191.954" y1="113.38" x2="184.165" y2="117.946" gradientUnits="userSpaceOnUse">
<stop stop-color="#3E7742"/>
<stop offset="1" stop-color="#6CB637"/>
</linearGradient>
<linearGradient id="paint20_linear_740_31709" x1="208.555" y1="117.479" x2="205.823" y2="103.133" gradientUnits="userSpaceOnUse">
<stop stop-color="#FEBBBA"/>
<stop offset="1" stop-color="#FF928E"/>
</linearGradient>
<linearGradient id="paint21_linear_740_31709" x1="201.161" y1="91.1585" x2="216.752" y2="103.088" gradientUnits="userSpaceOnUse">
<stop stop-color="#FEBBBA"/>
<stop offset="1" stop-color="#FF928E"/>
</linearGradient>
<linearGradient id="paint22_linear_740_31709" x1="208.124" y1="320.786" x2="112.525" y2="148.436" gradientUnits="userSpaceOnUse">
<stop stop-color="#321810"/>
<stop offset="1" stop-color="#9D482F"/>
</linearGradient>
<linearGradient id="paint23_linear_740_31709" x1="203.096" y1="88.6313" x2="218.686" y2="100.56" gradientUnits="userSpaceOnUse">
<stop stop-color="#FEBBBA"/>
<stop offset="1" stop-color="#FF928E"/>
</linearGradient>
<linearGradient id="paint24_linear_740_31709" x1="145.922" y1="93.9184" x2="152.052" y2="93.9184" gradientUnits="userSpaceOnUse">
<stop stop-color="#FF928E"/>
<stop offset="1" stop-color="#FE7062"/>
</linearGradient>
<linearGradient id="paint25_linear_740_31709" x1="193.954" y1="127.671" x2="204.867" y2="144.04" gradientUnits="userSpaceOnUse">
<stop stop-color="#FEBBBA"/>
<stop offset="1" stop-color="#FF928E"/>
</linearGradient>
<linearGradient id="paint26_linear_740_31709" x1="192.934" y1="187.482" x2="191.445" y2="155.251" gradientUnits="userSpaceOnUse">
<stop stop-color="#321810"/>
<stop offset="1" stop-color="#9D482F"/>
</linearGradient>
<linearGradient id="paint27_linear_740_31709" x1="170.067" y1="475.395" x2="68.5548" y2="187.709" gradientUnits="userSpaceOnUse">
<stop stop-color="#6A3120"/>
<stop offset="1" stop-color="#D07B62"/>
</linearGradient>
<linearGradient id="paint28_linear_740_31709" x1="190.539" y1="216.247" x2="141.458" y2="188.325" gradientUnits="userSpaceOnUse">
<stop stop-color="#321810"/>
<stop offset="1" stop-color="#9D482F"/>
</linearGradient>
<clipPath id="clip0_740_31709">
<rect width="251.37" height="248" fill="white" transform="translate(0.314941)"/>
</clipPath>
</defs>
</svg>
