<svg width="230" height="230" viewBox="0 0 230 230" fill="none" xmlns="http://www.w3.org/2000/svg">
<g clip-path="url(#clip0_1586_20372)">
<path d="M216.772 153.216C195.036 204.542 137.135 233.295 86.9248 225.539C78.7544 224.277 56.3549 220.518 36.5238 202.782C-1.65289 168.639 -9.81749 101.031 20.9788 53.3861C43.3931 18.7087 83.5721 -0.94788 121.75 0.0351945C129.974 0.246617 161.491 1.55217 189.188 24.4566C193.256 27.8204 202.229 35.815 210.316 48.4971C229.304 78.2772 230.937 119.767 216.772 153.217V153.216Z" fill="#FFEFB8"/>
<path d="M15.8264 186.863C15.8264 188.852 17.4498 190.478 19.4341 190.478H214.521C216.505 190.478 218.128 188.852 218.128 186.863L219.752 74.4325C219.752 72.4449 217.416 68.5636 213.136 68.8548L22.4759 63.9074C19.9862 63.8424 17.5794 64.8041 15.8166 66.5662C14.0537 68.3283 13.089 70.7379 13.1481 73.2322L15.8272 186.863H15.8264Z" fill="#3E7742"/>
<path d="M19.3882 183.395C19.3882 185.277 20.9238 186.818 22.8015 186.818H209.817C211.694 186.818 213.23 185.278 213.23 183.395L214.762 81.329C214.581 75.1871 209.212 72.9791 205.957 73.1099L23.2256 68.1937C21.4767 68.1468 19.7852 68.8222 18.5465 70.0619C17.3079 71.3009 16.6262 72.9972 16.6705 74.7511L19.3882 183.395Z" fill="#FFE692"/>
<path d="M211.208 134.908H211.203C210.924 134.904 210.704 134.676 210.708 134.399L210.829 126.121C210.833 125.847 211.056 125.627 211.329 125.627H211.336C211.613 125.631 211.833 125.859 211.829 126.136L211.708 134.414C211.704 134.689 211.481 134.908 211.208 134.908Z" fill="#FFEFB8"/>
<path d="M211.505 114.624H211.498C211.221 114.62 211.001 114.392 211.005 114.115L211.469 82.4123C211.46 80.5292 210.891 79.0254 209.775 77.9535C207.692 75.9528 204.386 76.0548 204.247 76.0614L145.842 74.4909C145.566 74.4835 145.348 74.2532 145.356 73.9759C145.363 73.6987 145.575 73.4634 145.869 73.4881L204.24 75.0586C204.603 75.0372 208.123 74.9763 210.467 77.2287C211.786 78.4956 212.46 80.2421 212.47 82.4172L212.005 114.13C212.001 114.405 211.778 114.624 211.506 114.624H211.505Z" fill="#FFEFB8"/>
<path d="M0.463501 199.811L229.537 199.811C229.792 199.811 230 199.602 230 199.346V190.397C230 190.14 229.792 189.932 229.537 189.932L0.463501 189.932C0.20752 189.932 0 190.14 0 190.397V199.346C0 199.602 0.20752 199.811 0.463501 199.811Z" fill="#3E7742"/>
<path d="M180.103 6.18451L57.5614 5.43178C53.5345 5.4071 50.3131 8.78081 50.5124 12.8143L58.9428 187.414H195.309L202.88 31.4187L180.103 6.18451H180.103Z" fill="#FFBA3B"/>
<path d="M185.199 30.6701C181.207 30.5294 178.139 27.0792 178.453 23.086L179.766 6.41406L202.905 31.3159L185.198 30.6701H185.199Z" fill="#D99B2A"/>
<path d="M127.331 50.2246C137.091 50.3628 174.56 50.8523 184.022 50.9748C185.216 50.9905 186.172 51.7819 186.136 52.7213C186.101 53.6156 185.175 54.3156 184.039 54.3049L127.376 53.771C126.284 53.7612 125.367 53.0965 125.26 52.2384L125.232 52.0212C125.109 51.0406 126.082 50.2056 127.331 50.2229V50.2246Z" fill="#FFEFB8"/>
<path d="M126.316 60.6533C126.474 60.8787 126.77 61.0218 127.094 61.0284L165.983 61.8667C166.472 61.8774 166.874 61.5779 166.889 61.1938L166.967 59.175C166.982 58.7735 166.571 58.437 166.063 58.4321L128.24 58.0841C126.555 58.0685 125.498 59.481 126.317 60.6541L126.316 60.6533Z" fill="#FFEFB8"/>
<path d="M126.563 68.4835C136.323 68.6217 173.793 69.1112 183.254 69.2346C184.448 69.2502 185.404 70.0416 185.368 70.9811C185.334 71.8753 184.408 72.5754 183.271 72.5647L126.608 72.0308C125.516 72.0209 124.599 71.3562 124.492 70.4982L124.465 70.281C124.342 69.3004 125.314 68.4654 126.563 68.4827V68.4835Z" fill="#FFEFB8"/>
<path d="M125.549 78.9111C125.707 79.1365 126.004 79.2796 126.327 79.2862L165.216 80.1245C165.705 80.1352 166.107 79.8358 166.122 79.4516L166.2 77.4328C166.216 77.0313 165.805 76.6948 165.296 76.6899L127.473 76.3419C125.788 76.3263 124.731 77.7388 125.55 78.9119L125.549 78.9111Z" fill="#FFEFB8"/>
<path d="M90.4331 109C103.375 109 113.866 98.4787 113.866 85.5C113.866 72.5213 103.375 62 90.4331 62C77.4914 62 67 72.5213 67 85.5C67 98.4787 77.4914 109 90.4331 109Z" fill="#FF4637"/>
<path d="M90.3934 108.369C102.93 108.369 113.093 98.1766 113.093 85.6042C113.093 73.0318 102.93 62.8398 90.3934 62.8398C77.8568 62.8398 67.6938 73.0318 67.6938 85.6042C67.6938 98.1766 77.8568 108.369 90.3934 108.369Z" fill="#FF4637"/>
<path d="M100.828 100.692C100.009 100.692 99.1965 100.342 98.6296 99.6639L78.3741 75.4363C77.3568 74.2198 77.516 72.4069 78.7291 71.3867C79.9427 70.3665 81.7505 70.5262 82.7671 71.7427L103.023 95.9703C104.04 97.1868 103.881 98.9997 102.668 100.02C102.131 100.472 101.478 100.692 100.828 100.692Z" fill="white"/>
<path d="M78.0382 100.515C77.2855 100.515 76.534 100.22 75.9714 99.6333C74.8742 98.4888 74.9096 96.669 76.0507 95.5687L99.9504 72.5235C101.092 71.4226 102.906 71.4586 104.003 72.603C105.101 73.7475 105.065 75.5673 103.924 76.6676L80.0244 99.7128C79.4687 100.249 78.7525 100.515 78.0382 100.515Z" fill="white"/>
<path d="M118.254 214.152C118.298 214.136 141.794 172.87 144.969 168.987C145.503 168.334 146.33 168.002 147.166 168.101L153.725 168.885L161.429 185.6L148.594 178.104C149.863 186.913 133.375 200.004 127.72 204.781C127.146 205.266 127.099 206.134 127.617 206.678L129.875 209.048C126.169 212.816 121.892 215.235 117.064 216.354L118.254 214.153V214.152Z" fill="#FEBBBA"/>
<path d="M128.569 207.77C128.569 207.77 130.01 208.236 130.497 209.523C130.731 210.14 130.479 210.836 129.945 211.221C127.573 212.925 119.746 218.429 116.135 219.506C115.839 219.594 115.558 219.326 115.624 219.023C115.81 218.182 116.409 216.502 118.34 214.042L118.167 214.394C117.948 214.839 118.431 215.302 118.862 215.057C121.278 213.69 126.197 210.697 128.569 207.77Z" fill="#6A3120"/>
<path d="M127.406 224.281C127.446 224.255 130.971 215.737 131.01 215.713C134.242 195.978 142.128 179.077 144.453 174.629C144.845 173.881 145.587 173.388 146.426 173.315L153.007 172.752L163.925 187.557L149.843 182.821C152.864 191.19 139.358 207.357 134.784 213.182C134.32 213.774 134.449 214.633 135.067 215.061L137.756 216.924C134.886 221.365 131.186 224.603 126.685 226.678L127.406 224.28L127.406 224.281Z" fill="#FEBBBA"/>
<path d="M136.219 215.936C136.219 215.936 137.724 216.101 138.462 217.262C138.815 217.818 138.709 218.552 138.263 219.036C136.284 221.187 129.731 228.165 126.412 229.954C126.139 230.1 125.809 229.894 125.814 229.584C125.825 228.723 126.074 226.956 127.468 224.155L127.37 224.534C127.245 225.014 127.811 225.37 128.184 225.043C130.274 223.214 134.488 219.284 136.22 215.936L136.219 215.936Z" fill="#6A3120"/>
<path d="M183.81 169.634C183.81 169.634 189.763 178.513 190.252 182.563C190.74 186.614 188.605 188.014 182.375 188.531C163.833 190.069 154.693 184.495 154.693 184.495C153.424 176.384 152.522 174.321 141.928 169.912C141.928 169.912 155.327 170.979 158.024 169.929C160.72 168.879 183.81 169.633 183.81 169.633V169.634Z" fill="url(#paint0_linear_1586_20372)"/>
<path d="M160.072 119.884C160.072 119.884 164.217 114.964 168.626 121C169.424 122.094 172.49 121.192 173.615 123.48C174.196 124.661 175.449 125.332 176.74 125.094C179.957 124.499 185.214 124.449 187.81 129.503C189.792 133.361 188.263 135.62 186.281 136.907C184.827 137.852 184.308 139.772 185.187 141.27C186.031 142.708 186.19 144.653 184.011 146.995C179.128 152.242 169.464 143.664 169.464 143.664L161.791 125.48L160.072 119.884H160.072Z" fill="#6A3120"/>
<path d="M167.711 168.457C167.711 168.457 160.779 161.837 157.366 157.452C155.521 155.082 154.942 151.962 155.795 149.08C157.353 143.817 160.122 138.365 160.374 137.516C160.762 136.216 168.534 136.27 168.534 136.27C168.534 136.27 183.83 146.225 189.839 163.088L183.09 165.195C183.09 165.195 179.096 158.476 175.15 154.204C175.15 154.204 181.978 163.25 182.218 166.952L167.71 168.456L167.711 168.457Z" fill="url(#paint1_linear_1586_20372)"/>
<path d="M154.503 171.069L159.712 165.386L165.728 167.01C165.728 167.01 172.741 168.1 176.755 167.01L180.769 165.92L189.84 163.088L191.265 167.125C191.627 168.151 191.263 169.289 190.379 169.918C189.594 170.478 188.674 171.092 188.088 171.35C186.893 171.874 160.57 171.515 160.57 171.515L154.503 171.068V171.069Z" fill="#EB9481"/>
<path d="M163.193 126.899L168.417 136.641C168.073 138.768 162.732 138.828 161.906 137.558C161.823 137.429 161.774 137.279 161.742 137.128L158.617 130.619C158.482 129.984 160.218 127.846 160.789 127.54L162.865 126.432C163.665 126.005 160.329 125.972 163.193 126.9V126.899Z" fill="url(#paint2_linear_1586_20372)"/>
<path d="M152.62 124.611C152.62 124.611 152.03 127.903 154.61 132.088C157.19 136.273 159.758 136.083 161.063 134.591C162.368 133.099 163.932 130.613 163.221 126.438C162.51 122.264 153.512 120.413 152.62 124.611V124.611Z" fill="#FEBBBA"/>
<path d="M160.098 126.893C160.098 126.893 155.921 121.391 152.713 126.187L152.767 127.844C152.767 127.844 148.597 127.648 149.05 123.794C149.502 119.939 152.907 117.305 157.627 118.623C162.347 119.94 165.105 121.439 165.638 124.726C166.171 128.012 163.496 127.475 163.496 127.475C163.496 127.475 162.473 125.208 161.239 125.052C160.004 124.898 160.45 126.691 160.45 126.691L160.098 126.892V126.893Z" fill="#6A3120"/>
<path d="M161.056 126.745C161.056 126.745 158.892 123.929 160.862 123.345C162.831 122.761 162.757 126.104 162.629 127.348L161.056 126.745Z" fill="url(#paint3_linear_1586_20372)"/>
<path d="M171.745 173.319C171.727 173.319 171.708 173.32 171.69 173.32L147.731 173.294C147.139 173.294 146.659 172.812 146.66 172.217C146.66 171.623 147.143 171.132 147.734 171.143L171.693 171.169C172.285 171.169 172.765 171.652 172.764 172.246C172.764 172.822 172.312 173.291 171.745 173.319Z" fill="#3E7742"/>
<path d="M126.193 151.504H146.147C147.618 151.504 148.959 152.355 149.586 153.691L158.811 173.306H134.014C133.066 173.306 132.214 172.724 131.865 171.84L124.712 153.689C124.298 152.64 125.069 151.504 126.194 151.504H126.193Z" fill="#3E7742"/>
<path d="M140.25 161.561C140.682 162.908 140.363 164.216 139.536 164.483C138.71 164.749 137.69 163.874 137.257 162.527C136.824 161.179 137.144 159.871 137.97 159.604C138.796 159.338 139.817 160.213 140.25 161.561Z" fill="#6A3120"/>
</g>
<defs>
<linearGradient id="paint0_linear_1586_20372" x1="147.32" y1="152.962" x2="177.882" y2="186.358" gradientUnits="userSpaceOnUse">
<stop stop-color="#FF928E"/>
<stop offset="1" stop-color="#FE7062"/>
</linearGradient>
<linearGradient id="paint1_linear_1586_20372" x1="235.04" y1="100.566" x2="193.065" y2="135.168" gradientUnits="userSpaceOnUse">
<stop stop-color="#FF928E"/>
<stop offset="1" stop-color="#FE7062"/>
</linearGradient>
<linearGradient id="paint2_linear_1586_20372" x1="162.455" y1="149.652" x2="163.313" y2="136.323" gradientUnits="userSpaceOnUse">
<stop stop-color="#FEBBBA"/>
<stop offset="1" stop-color="#FF928E"/>
</linearGradient>
<linearGradient id="paint3_linear_1586_20372" x1="167.403" y1="136.476" x2="151.275" y2="105.697" gradientUnits="userSpaceOnUse">
<stop stop-color="#FEBBBA"/>
<stop offset="1" stop-color="#FF928E"/>
</linearGradient>
<clipPath id="clip0_1586_20372">
<rect width="230" height="230" fill="white"/>
</clipPath>
</defs>
</svg>
